<ttFont>
<head>
    <!-- Most of this table will be recalculated by the compiler -->
    <tableVersion value="1.0"/>
    <fontRevision value="1.001"/>
    <checkSumAdjustment value="0x6217e60f"/>
    <magicNumber value="0x5f0f3cf5"/>
    <flags value="00000000 00011011"/>
    <unitsPerEm value="2048"/>
    <created value="Thu Apr 10 16:02:13 2014"/>
    <modified value="Wed Apr  1 00:21:51 2015"/>
    <xMin value="0"/>
    <yMin value="0"/>
    <xMax value="1200"/>
    <yMax value="1800"/>
    <macStyle value="00000000 00000000"/>
    <lowestRecPPEM value="9"/>
    <fontDirectionHint value="2"/>
    <indexToLocFormat value="0"/>
    <glyphDataFormat value="0"/>
  </head>
    <TTGlyph name=".notdef" xMin="0" yMin="0" xMax="1200" yMax="1800">
      <contour>
        <pt x="151" y="100" on="1"/>
        <pt x="1042" y="100" on="1"/>
        <pt x="597" y="801" on="1"/>
      </contour>
      <contour>
        <pt x="1100" y="195" on="1"/>
        <pt x="1100" y="1594" on="1"/>
        <pt x="656" y="894" on="1"/>
      </contour>
      <contour>
        <pt x="100" y="1583" on="1"/>
        <pt x="100" y="206" on="1"/>
        <pt x="537" y="894" on="1"/>
      </contour>
      <contour>
        <pt x="0" y="1800" on="1"/>
        <pt x="1200" y="1800" on="1"/>
        <pt x="1200" y="0" on="1"/>
        <pt x="0" y="0" on="1"/>
      </contour>
      <contour>
        <pt x="1049" y="1700" on="1"/>
        <pt x="146" y="1700" on="1"/>
        <pt x="597" y="988" on="1"/>
      </contour>
    </TTGlyph>
    <TTGlyph name="A" xMin="100" yMin="100" xMax="1100" yMax="1500">
      <contour>
        <pt x="300" y="700" on="1"/>
        <pt x="900" y="700" on="1"/>
        <pt x="900" y="1000" on="1"/>
        <pt x="800" y="1000" on="1"/>
        <pt x="800" y="1100" on="1"/>
        <pt x="700" y="1100" on="1"/>
        <pt x="700" y="1200" on="1"/>
        <pt x="500" y="1200" on="1"/>
        <pt x="500" y="1100" on="1"/>
        <pt x="400" y="1100" on="1"/>
        <pt x="400" y="1000" on="1"/>
        <pt x="300" y="1000" on="1"/>
      </contour>
      <contour>
        <pt x="300" y="100" on="1"/>
        <pt x="100" y="100" on="1"/>
        <pt x="100" y="1100" on="1"/>
        <pt x="200" y="1100" on="1"/>
        <pt x="200" y="1200" on="1"/>
        <pt x="300" y="1200" on="1"/>
        <pt x="300" y="1300" on="1"/>
        <pt x="400" y="1300" on="1"/>
        <pt x="400" y="1400" on="1"/>
        <pt x="500" y="1400" on="1"/>
        <pt x="500" y="1500" on="1"/>
        <pt x="700" y="1500" on="1"/>
        <pt x="700" y="1400" on="1"/>
        <pt x="800" y="1400" on="1"/>
        <pt x="800" y="1300" on="1"/>
        <pt x="900" y="1300" on="1"/>
        <pt x="900" y="1200" on="1"/>
        <pt x="1000" y="1200" on="1"/>
        <pt x="1000" y="1100" on="1"/>
        <pt x="1100" y="1100" on="1"/>
        <pt x="1100" y="100" on="1"/>
        <pt x="900" y="100" on="1"/>
        <pt x="900" y="500" on="1"/>
        <pt x="300" y="500" on="1"/>
      </contour>
    </TTGlyph>
    <TTGlyph name="AE" xMin="100" yMin="100" xMax="1100" yMax="1600">
      <contour>
        <pt x="600" y="700" on="1"/>
        <pt x="600" y="1200" on="1"/>
        <pt x="500" y="1200" on="1"/>
        <pt x="500" y="1100" on="1"/>
        <pt x="400" y="1100" on="1"/>
        <pt x="400" y="1000" on="1"/>
        <pt x="300" y="1000" on="1"/>
        <pt x="300" y="700" on="1"/>
      </contour>
      <contour>
        <pt x="800" y="1000" on="1"/>
        <pt x="1100" y="1000" on="1"/>
        <pt x="1100" y="800" on="1"/>
        <pt x="800" y="800" on="1"/>
        <pt x="800" y="300" on="1"/>
        <pt x="1100" y="300" on="1"/>
        <pt x="1100" y="100" on="1"/>
        <pt x="600" y="100" on="1"/>
        <pt x="600" y="500" on="1"/>
        <pt x="300" y="500" on="1"/>
        <pt x="300" y="100" on="1"/>
        <pt x="100" y="100" on="1"/>
        <pt x="100" y="1000" on="1"/>
        <pt x="200" y="1000" on="1"/>
        <pt x="200" y="1200" on="1"/>
        <pt x="300" y="1200" on="1"/>
        <pt x="300" y="1300" on="1"/>
        <pt x="400" y="1300" on="1"/>
        <pt x="400" y="1400" on="1"/>
        <pt x="500" y="1400" on="1"/>
        <pt x="500" y="1500" on="1"/>
        <pt x="600" y="1500" on="1"/>
        <pt x="600" y="1600" on="1"/>
        <pt x="1100" y="1600" on="1"/>
        <pt x="1100" y="1400" on="1"/>
        <pt x="800" y="1400" on="1"/>
      </contour>
    </TTGlyph>
    <TTGlyph name="Aacute" xMin="100" yMin="100" xMax="1100" yMax="1700">
      <contour>
        <pt x="300" y="100" on="1"/>
        <pt x="100" y="100" on="1"/>
        <pt x="100" y="900" on="1"/>
        <pt x="200" y="900" on="1"/>
        <pt x="200" y="1000" on="1"/>
        <pt x="300" y="1000" on="1"/>
        <pt x="300" y="1100" on="1"/>
        <pt x="400" y="1100" on="1"/>
        <pt x="400" y="1200" on="1"/>
        <pt x="500" y="1200" on="1"/>
        <pt x="500" y="1300" on="1"/>
        <pt x="700" y="1300" on="1"/>
        <pt x="700" y="1200" on="1"/>
        <pt x="800" y="1200" on="1"/>
        <pt x="800" y="1100" on="1"/>
        <pt x="900" y="1100" on="1"/>
        <pt x="900" y="1000" on="1"/>
        <pt x="1000" y="1000" on="1"/>
        <pt x="1000" y="900" on="1"/>
        <pt x="1100" y="900" on="1"/>
        <pt x="1100" y="100" on="1"/>
        <pt x="900" y="100" on="1"/>
        <pt x="900" y="400" on="1"/>
        <pt x="300" y="400" on="1"/>
      </contour>
      <contour>
        <pt x="900" y="600" on="1"/>
        <pt x="900" y="800" on="1"/>
        <pt x="800" y="800" on="1"/>
        <pt x="800" y="900" on="1"/>
        <pt x="700" y="900" on="1"/>
        <pt x="700" y="1000" on="1"/>
        <pt x="500" y="1000" on="1"/>
        <pt x="500" y="900" on="1"/>
        <pt x="400" y="900" on="1"/>
        <pt x="400" y="800" on="1"/>
        <pt x="300" y="800" on="1"/>
        <pt x="300" y="600" on="1"/>
      </contour>
      <contour>
        <pt x="600" y="1600" on="1"/>
        <pt x="600" y="1700" on="1"/>
        <pt x="900" y="1700" on="1"/>
        <pt x="900" y="1600" on="1"/>
        <pt x="800" y="1600" on="1"/>
        <pt x="800" y="1500" on="1"/>
        <pt x="600" y="1500" on="1"/>
        <pt x="600" y="1400" on="1"/>
        <pt x="400" y="1400" on="1"/>
        <pt x="400" y="1500" on="1"/>
        <pt x="500" y="1500" on="1"/>
        <pt x="500" y="1600" on="1"/>
      </contour>
    </TTGlyph>
    <TTGlyph name="Acircumflex" xMin="100" yMin="100" xMax="1100" yMax="1700">
      <contour>
        <pt x="700" y="1700" on="1"/>
        <pt x="700" y="1600" on="1"/>
        <pt x="800" y="1600" on="1"/>
        <pt x="800" y="1500" on="1"/>
        <pt x="900" y="1500" on="1"/>
        <pt x="900" y="1400" on="1"/>
        <pt x="700" y="1400" on="1"/>
        <pt x="700" y="1500" on="1"/>
        <pt x="500" y="1500" on="1"/>
        <pt x="500" y="1400" on="1"/>
        <pt x="300" y="1400" on="1"/>
        <pt x="300" y="1500" on="1"/>
        <pt x="400" y="1500" on="1"/>
        <pt x="400" y="1600" on="1"/>
        <pt x="500" y="1600" on="1"/>
        <pt x="500" y="1700" on="1"/>
      </contour>
      <contour>
        <pt x="300" y="100" on="1"/>
        <pt x="100" y="100" on="1"/>
        <pt x="100" y="900" on="1"/>
        <pt x="200" y="900" on="1"/>
        <pt x="200" y="1000" on="1"/>
        <pt x="300" y="1000" on="1"/>
        <pt x="300" y="1100" on="1"/>
        <pt x="400" y="1100" on="1"/>
        <pt x="400" y="1200" on="1"/>
        <pt x="500" y="1200" on="1"/>
        <pt x="500" y="1300" on="1"/>
        <pt x="700" y="1300" on="1"/>
        <pt x="700" y="1200" on="1"/>
        <pt x="800" y="1200" on="1"/>
        <pt x="800" y="1100" on="1"/>
        <pt x="900" y="1100" on="1"/>
        <pt x="900" y="1000" on="1"/>
        <pt x="1000" y="1000" on="1"/>
        <pt x="1000" y="900" on="1"/>
        <pt x="1100" y="900" on="1"/>
        <pt x="1100" y="100" on="1"/>
        <pt x="900" y="100" on="1"/>
        <pt x="900" y="400" on="1"/>
        <pt x="300" y="400" on="1"/>
      </contour>
      <contour>
        <pt x="900" y="600" on="1"/>
        <pt x="900" y="800" on="1"/>
        <pt x="800" y="800" on="1"/>
        <pt x="800" y="900" on="1"/>
        <pt x="700" y="900" on="1"/>
        <pt x="700" y="1000" on="1"/>
        <pt x="500" y="1000" on="1"/>
        <pt x="500" y="900" on="1"/>
        <pt x="400" y="900" on="1"/>
        <pt x="400" y="800" on="1"/>
        <pt x="300" y="800" on="1"/>
        <pt x="300" y="600" on="1"/>
      </contour>
    </TTGlyph>
    <TTGlyph name="Adieresis" xMin="100" yMin="100" xMax="1100" yMax="1700">
      <contour>
        <pt x="300" y="100" on="1"/>
        <pt x="100" y="100" on="1"/>
        <pt x="100" y="900" on="1"/>
        <pt x="200" y="900" on="1"/>
        <pt x="200" y="1000" on="1"/>
        <pt x="300" y="1000" on="1"/>
        <pt x="300" y="1100" on="1"/>
        <pt x="400" y="1100" on="1"/>
        <pt x="400" y="1200" on="1"/>
        <pt x="500" y="1200" on="1"/>
        <pt x="500" y="1300" on="1"/>
        <pt x="700" y="1300" on="1"/>
        <pt x="700" y="1200" on="1"/>
        <pt x="800" y="1200" on="1"/>
        <pt x="800" y="1100" on="1"/>
        <pt x="900" y="1100" on="1"/>
        <pt x="900" y="1000" on="1"/>
        <pt x="1000" y="1000" on="1"/>
        <pt x="1000" y="900" on="1"/>
        <pt x="1100" y="900" on="1"/>
        <pt x="1100" y="100" on="1"/>
        <pt x="900" y="100" on="1"/>
        <pt x="900" y="400" on="1"/>
        <pt x="300" y="400" on="1"/>
      </contour>
      <contour>
        <pt x="900" y="600" on="1"/>
        <pt x="900" y="800" on="1"/>
        <pt x="800" y="800" on="1"/>
        <pt x="800" y="900" on="1"/>
        <pt x="700" y="900" on="1"/>
        <pt x="700" y="1000" on="1"/>
        <pt x="500" y="1000" on="1"/>
        <pt x="500" y="900" on="1"/>
        <pt x="400" y="900" on="1"/>
        <pt x="400" y="800" on="1"/>
        <pt x="300" y="800" on="1"/>
        <pt x="300" y="600" on="1"/>
      </contour>
      <contour>
        <pt x="300" y="1500" on="1"/>
        <pt x="300" y="1700" on="1"/>
        <pt x="500" y="1700" on="1"/>
        <pt x="500" y="1500" on="1"/>
      </contour>
      <contour>
        <pt x="700" y="1700" on="1"/>
        <pt x="900" y="1700" on="1"/>
        <pt x="900" y="1500" on="1"/>
        <pt x="700" y="1500" on="1"/>
      </contour>
    </TTGlyph>
    <TTGlyph name="Agrave" xMin="100" yMin="100" xMax="1100" yMax="1700">
      <contour>
        <pt x="300" y="100" on="1"/>
        <pt x="100" y="100" on="1"/>
        <pt x="100" y="900" on="1"/>
        <pt x="200" y="900" on="1"/>
        <pt x="200" y="1000" on="1"/>
        <pt x="300" y="1000" on="1"/>
        <pt x="300" y="1100" on="1"/>
        <pt x="400" y="1100" on="1"/>
        <pt x="400" y="1200" on="1"/>
        <pt x="500" y="1200" on="1"/>
        <pt x="500" y="1300" on="1"/>
        <pt x="700" y="1300" on="1"/>
        <pt x="700" y="1200" on="1"/>
        <pt x="800" y="1200" on="1"/>
        <pt x="800" y="1100" on="1"/>
        <pt x="900" y="1100" on="1"/>
        <pt x="900" y="1000" on="1"/>
        <pt x="1000" y="1000" on="1"/>
        <pt x="1000" y="900" on="1"/>
        <pt x="1100" y="900" on="1"/>
        <pt x="1100" y="100" on="1"/>
        <pt x="900" y="100" on="1"/>
        <pt x="900" y="400" on="1"/>
        <pt x="300" y="400" on="1"/>
      </contour>
      <contour>
        <pt x="900" y="600" on="1"/>
        <pt x="900" y="800" on="1"/>
        <pt x="800" y="800" on="1"/>
        <pt x="800" y="900" on="1"/>
        <pt x="700" y="900" on="1"/>
        <pt x="700" y="1000" on="1"/>
        <pt x="500" y="1000" on="1"/>
        <pt x="500" y="900" on="1"/>
        <pt x="400" y="900" on="1"/>
        <pt x="400" y="800" on="1"/>
        <pt x="300" y="800" on="1"/>
        <pt x="300" y="600" on="1"/>
      </contour>
      <contour>
        <pt x="600" y="1700" on="1"/>
        <pt x="600" y="1600" on="1"/>
        <pt x="700" y="1600" on="1"/>
        <pt x="700" y="1500" on="1"/>
        <pt x="800" y="1500" on="1"/>
        <pt x="800" y="1400" on="1"/>
        <pt x="600" y="1400" on="1"/>
        <pt x="600" y="1500" on="1"/>
        <pt x="400" y="1500" on="1"/>
        <pt x="400" y="1600" on="1"/>
        <pt x="300" y="1600" on="1"/>
        <pt x="300" y="1700" on="1"/>
      </contour>
    </TTGlyph>
    <TTGlyph name="Aring" xMin="100" yMin="100" xMax="1100" yMax="1700">
      <contour>
        <pt x="300" y="100" on="1"/>
        <pt x="100" y="100" on="1"/>
        <pt x="100" y="900" on="1"/>
        <pt x="200" y="900" on="1"/>
        <pt x="200" y="1000" on="1"/>
        <pt x="300" y="1000" on="1"/>
        <pt x="300" y="1100" on="1"/>
        <pt x="400" y="1100" on="1"/>
        <pt x="400" y="1200" on="1"/>
        <pt x="500" y="1200" on="1"/>
        <pt x="500" y="1300" on="1"/>
        <pt x="700" y="1300" on="1"/>
        <pt x="700" y="1200" on="1"/>
        <pt x="800" y="1200" on="1"/>
        <pt x="800" y="1100" on="1"/>
        <pt x="900" y="1100" on="1"/>
        <pt x="900" y="1000" on="1"/>
        <pt x="1000" y="1000" on="1"/>
        <pt x="1000" y="900" on="1"/>
        <pt x="1100" y="900" on="1"/>
        <pt x="1100" y="100" on="1"/>
        <pt x="900" y="100" on="1"/>
        <pt x="900" y="400" on="1"/>
        <pt x="300" y="400" on="1"/>
      </contour>
      <contour>
        <pt x="900" y="600" on="1"/>
        <pt x="900" y="800" on="1"/>
        <pt x="800" y="800" on="1"/>
        <pt x="800" y="900" on="1"/>
        <pt x="700" y="900" on="1"/>
        <pt x="700" y="1000" on="1"/>
        <pt x="500" y="1000" on="1"/>
        <pt x="500" y="900" on="1"/>
        <pt x="400" y="900" on="1"/>
        <pt x="400" y="800" on="1"/>
        <pt x="300" y="800" on="1"/>
        <pt x="300" y="600" on="1"/>
      </contour>
      <contour>
        <pt x="400" y="1600" on="1"/>
        <pt x="500" y="1600" on="1"/>
        <pt x="500" y="1400" on="1"/>
        <pt x="400" y="1400" on="1"/>
      </contour>
      <contour>
        <pt x="500" y="1300" on="1"/>
        <pt x="500" y="1400" on="1"/>
        <pt x="700" y="1400" on="1"/>
        <pt x="700" y="1300" on="1"/>
      </contour>
      <contour>
        <pt x="700" y="1700" on="1"/>
        <pt x="700" y="1600" on="1"/>
        <pt x="500" y="1600" on="1"/>
        <pt x="500" y="1700" on="1"/>
      </contour>
      <contour>
        <pt x="800" y="1400" on="1"/>
        <pt x="700" y="1400" on="1"/>
        <pt x="700" y="1600" on="1"/>
        <pt x="800" y="1600" on="1"/>
      </contour>
    </TTGlyph>
    <TTGlyph name="Atilde" xMin="100" yMin="100" xMax="1100" yMax="1700">
      <contour>
        <pt x="800" y="1500" on="1"/>
        <pt x="800" y="1400" on="1"/>
        <pt x="600" y="1400" on="1"/>
        <pt x="600" y="1500" on="1"/>
        <pt x="400" y="1500" on="1"/>
        <pt x="400" y="1400" on="1"/>
        <pt x="300" y="1400" on="1"/>
        <pt x="300" y="1600" on="1"/>
        <pt x="400" y="1600" on="1"/>
        <pt x="400" y="1700" on="1"/>
        <pt x="600" y="1700" on="1"/>
        <pt x="600" y="1600" on="1"/>
        <pt x="800" y="1600" on="1"/>
        <pt x="800" y="1700" on="1"/>
        <pt x="900" y="1700" on="1"/>
        <pt x="900" y="1500" on="1"/>
      </contour>
      <contour>
        <pt x="900" y="600" on="1"/>
        <pt x="900" y="800" on="1"/>
        <pt x="800" y="800" on="1"/>
        <pt x="800" y="900" on="1"/>
        <pt x="700" y="900" on="1"/>
        <pt x="700" y="1000" on="1"/>
        <pt x="500" y="1000" on="1"/>
        <pt x="500" y="900" on="1"/>
        <pt x="400" y="900" on="1"/>
        <pt x="400" y="800" on="1"/>
        <pt x="300" y="800" on="1"/>
        <pt x="300" y="600" on="1"/>
      </contour>
      <contour>
        <pt x="300" y="100" on="1"/>
        <pt x="100" y="100" on="1"/>
        <pt x="100" y="900" on="1"/>
        <pt x="200" y="900" on="1"/>
        <pt x="200" y="1000" on="1"/>
        <pt x="300" y="1000" on="1"/>
        <pt x="300" y="1100" on="1"/>
        <pt x="400" y="1100" on="1"/>
        <pt x="400" y="1200" on="1"/>
        <pt x="500" y="1200" on="1"/>
        <pt x="500" y="1300" on="1"/>
        <pt x="700" y="1300" on="1"/>
        <pt x="700" y="1200" on="1"/>
        <pt x="800" y="1200" on="1"/>
        <pt x="800" y="1100" on="1"/>
        <pt x="900" y="1100" on="1"/>
        <pt x="900" y="1000" on="1"/>
        <pt x="1000" y="1000" on="1"/>
        <pt x="1000" y="900" on="1"/>
        <pt x="1100" y="900" on="1"/>
        <pt x="1100" y="100" on="1"/>
        <pt x="900" y="100" on="1"/>
        <pt x="900" y="400" on="1"/>
        <pt x="300" y="400" on="1"/>
      </contour>
    </TTGlyph>
    <TTGlyph name="B" xMin="100" yMin="100" xMax="1100" yMax="1500">
      <contour>
        <pt x="300" y="900" on="1"/>
        <pt x="800" y="900" on="1"/>
        <pt x="800" y="1000" on="1"/>
        <pt x="900" y="1000" on="1"/>
        <pt x="900" y="1200" on="1"/>
        <pt x="800" y="1200" on="1"/>
        <pt x="800" y="1300" on="1"/>
        <pt x="300" y="1300" on="1"/>
      </contour>
      <contour>
        <pt x="100" y="100" on="1"/>
        <pt x="100" y="1500" on="1"/>
        <pt x="900" y="1500" on="1"/>
        <pt x="900" y="1400" on="1"/>
        <pt x="1000" y="1400" on="1"/>
        <pt x="1000" y="1300" on="1"/>
        <pt x="1100" y="1300" on="1"/>
        <pt x="1100" y="900" on="1"/>
        <pt x="1000" y="900" on="1"/>
        <pt x="1000" y="700" on="1"/>
        <pt x="1100" y="700" on="1"/>
        <pt x="1100" y="300" on="1"/>
        <pt x="1000" y="300" on="1"/>
        <pt x="1000" y="200" on="1"/>
        <pt x="900" y="200" on="1"/>
        <pt x="900" y="100" on="1"/>
      </contour>
      <contour>
        <pt x="300" y="300" on="1"/>
        <pt x="800" y="300" on="1"/>
        <pt x="800" y="400" on="1"/>
        <pt x="900" y="400" on="1"/>
        <pt x="900" y="600" on="1"/>
        <pt x="800" y="600" on="1"/>
        <pt x="800" y="700" on="1"/>
        <pt x="300" y="700" on="1"/>
      </contour>
    </TTGlyph>
    <TTGlyph name="C" xMin="100" yMin="100" xMax="1100" yMax="1500">
      <contour>
        <pt x="400" y="300" on="1"/>
        <pt x="800" y="300" on="1"/>
        <pt x="800" y="400" on="1"/>
        <pt x="900" y="400" on="1"/>
        <pt x="900" y="500" on="1"/>
        <pt x="1100" y="500" on="1"/>
        <pt x="1100" y="300" on="1"/>
        <pt x="1000" y="300" on="1"/>
        <pt x="1000" y="200" on="1"/>
        <pt x="900" y="200" on="1"/>
        <pt x="900" y="100" on="1"/>
        <pt x="300" y="100" on="1"/>
        <pt x="300" y="200" on="1"/>
        <pt x="200" y="200" on="1"/>
        <pt x="200" y="300" on="1"/>
        <pt x="100" y="300" on="1"/>
        <pt x="100" y="1300" on="1"/>
        <pt x="200" y="1300" on="1"/>
        <pt x="200" y="1400" on="1"/>
        <pt x="300" y="1400" on="1"/>
        <pt x="300" y="1500" on="1"/>
        <pt x="900" y="1500" on="1"/>
        <pt x="900" y="1400" on="1"/>
        <pt x="1000" y="1400" on="1"/>
        <pt x="1000" y="1300" on="1"/>
        <pt x="1100" y="1300" on="1"/>
        <pt x="1100" y="1100" on="1"/>
        <pt x="900" y="1100" on="1"/>
        <pt x="900" y="1200" on="1"/>
        <pt x="800" y="1200" on="1"/>
        <pt x="800" y="1300" on="1"/>
        <pt x="400" y="1300" on="1"/>
        <pt x="400" y="1200" on="1"/>
        <pt x="300" y="1200" on="1"/>
        <pt x="300" y="400" on="1"/>
        <pt x="400" y="400" on="1"/>
      </contour>
    </TTGlyph>
    <TTGlyph name="Ccedilla" xMin="100" yMin="100" xMax="1100" yMax="1500">
      <contour>
        <pt x="1000" y="1300" on="1"/>
        <pt x="1100" y="1300" on="1"/>
        <pt x="1100" y="1100" on="1"/>
        <pt x="900" y="1100" on="1"/>
        <pt x="900" y="1200" on="1"/>
        <pt x="800" y="1200" on="1"/>
        <pt x="800" y="1300" on="1"/>
        <pt x="400" y="1300" on="1"/>
        <pt x="400" y="1200" on="1"/>
        <pt x="300" y="1200" on="1"/>
        <pt x="300" y="700" on="1"/>
        <pt x="400" y="700" on="1"/>
        <pt x="400" y="600" on="1"/>
        <pt x="800" y="600" on="1"/>
        <pt x="800" y="700" on="1"/>
        <pt x="900" y="700" on="1"/>
        <pt x="900" y="800" on="1"/>
        <pt x="1100" y="800" on="1"/>
        <pt x="1100" y="600" on="1"/>
        <pt x="1000" y="600" on="1"/>
        <pt x="1000" y="500" on="1"/>
        <pt x="900" y="500" on="1"/>
        <pt x="900" y="400" on="1"/>
        <pt x="800" y="400" on="1"/>
        <pt x="800" y="300" on="1"/>
        <pt x="700" y="300" on="1"/>
        <pt x="700" y="200" on="1"/>
        <pt x="600" y="200" on="1"/>
        <pt x="600" y="100" on="1"/>
        <pt x="300" y="100" on="1"/>
        <pt x="300" y="200" on="1"/>
        <pt x="400" y="200" on="1"/>
        <pt x="400" y="300" on="1"/>
        <pt x="500" y="300" on="1"/>
        <pt x="500" y="400" on="1"/>
        <pt x="300" y="400" on="1"/>
        <pt x="300" y="500" on="1"/>
        <pt x="200" y="500" on="1"/>
        <pt x="200" y="600" on="1"/>
        <pt x="100" y="600" on="1"/>
        <pt x="100" y="1300" on="1"/>
        <pt x="200" y="1300" on="1"/>
        <pt x="200" y="1400" on="1"/>
        <pt x="300" y="1400" on="1"/>
        <pt x="300" y="1500" on="1"/>
        <pt x="900" y="1500" on="1"/>
        <pt x="900" y="1400" on="1"/>
        <pt x="1000" y="1400" on="1"/>
      </contour>
    </TTGlyph>
    <TTGlyph name="D" xMin="100" yMin="100" xMax="1100" yMax="1500">
      <contour>
        <pt x="300" y="1300" on="1"/>
        <pt x="300" y="300" on="1"/>
        <pt x="800" y="300" on="1"/>
        <pt x="800" y="400" on="1"/>
        <pt x="900" y="400" on="1"/>
        <pt x="900" y="1200" on="1"/>
        <pt x="800" y="1200" on="1"/>
        <pt x="800" y="1300" on="1"/>
      </contour>
      <contour>
        <pt x="100" y="100" on="1"/>
        <pt x="100" y="1500" on="1"/>
        <pt x="900" y="1500" on="1"/>
        <pt x="900" y="1400" on="1"/>
        <pt x="1000" y="1400" on="1"/>
        <pt x="1000" y="1300" on="1"/>
        <pt x="1100" y="1300" on="1"/>
        <pt x="1100" y="300" on="1"/>
        <pt x="1000" y="300" on="1"/>
        <pt x="1000" y="200" on="1"/>
        <pt x="900" y="200" on="1"/>
        <pt x="900" y="100" on="1"/>
      </contour>
    </TTGlyph>
    <TTGlyph name="E" xMin="100" yMin="100" xMax="1100" yMax="1500">
      <contour>
        <pt x="1100" y="1500" on="1"/>
        <pt x="1100" y="1300" on="1"/>
        <pt x="300" y="1300" on="1"/>
        <pt x="300" y="900" on="1"/>
        <pt x="900" y="900" on="1"/>
        <pt x="900" y="700" on="1"/>
        <pt x="300" y="700" on="1"/>
        <pt x="300" y="300" on="1"/>
        <pt x="1100" y="300" on="1"/>
        <pt x="1100" y="100" on="1"/>
        <pt x="100" y="100" on="1"/>
        <pt x="100" y="1500" on="1"/>
      </contour>
    </TTGlyph>
    <TTGlyph name="Eacute" xMin="100" yMin="100" xMax="1100" yMax="1700">
      <contour>
        <pt x="600" y="1600" on="1"/>
        <pt x="600" y="1700" on="1"/>
        <pt x="900" y="1700" on="1"/>
        <pt x="900" y="1600" on="1"/>
        <pt x="800" y="1600" on="1"/>
        <pt x="800" y="1500" on="1"/>
        <pt x="600" y="1500" on="1"/>
        <pt x="600" y="1400" on="1"/>
        <pt x="400" y="1400" on="1"/>
        <pt x="400" y="1500" on="1"/>
        <pt x="500" y="1500" on="1"/>
        <pt x="500" y="1600" on="1"/>
      </contour>
      <contour>
        <pt x="1100" y="1300" on="1"/>
        <pt x="1100" y="1100" on="1"/>
        <pt x="300" y="1100" on="1"/>
        <pt x="300" y="800" on="1"/>
        <pt x="900" y="800" on="1"/>
        <pt x="900" y="600" on="1"/>
        <pt x="300" y="600" on="1"/>
        <pt x="300" y="300" on="1"/>
        <pt x="1100" y="300" on="1"/>
        <pt x="1100" y="100" on="1"/>
        <pt x="100" y="100" on="1"/>
        <pt x="100" y="1300" on="1"/>
      </contour>
    </TTGlyph>
    <TTGlyph name="Ecircumflex" xMin="100" yMin="100" xMax="1100" yMax="1700">
      <contour>
        <pt x="1100" y="1300" on="1"/>
        <pt x="1100" y="1100" on="1"/>
        <pt x="300" y="1100" on="1"/>
        <pt x="300" y="800" on="1"/>
        <pt x="900" y="800" on="1"/>
        <pt x="900" y="600" on="1"/>
        <pt x="300" y="600" on="1"/>
        <pt x="300" y="300" on="1"/>
        <pt x="1100" y="300" on="1"/>
        <pt x="1100" y="100" on="1"/>
        <pt x="100" y="100" on="1"/>
        <pt x="100" y="1300" on="1"/>
      </contour>
      <contour>
        <pt x="700" y="1700" on="1"/>
        <pt x="700" y="1600" on="1"/>
        <pt x="800" y="1600" on="1"/>
        <pt x="800" y="1500" on="1"/>
        <pt x="900" y="1500" on="1"/>
        <pt x="900" y="1400" on="1"/>
        <pt x="700" y="1400" on="1"/>
        <pt x="700" y="1500" on="1"/>
        <pt x="500" y="1500" on="1"/>
        <pt x="500" y="1400" on="1"/>
        <pt x="300" y="1400" on="1"/>
        <pt x="300" y="1500" on="1"/>
        <pt x="400" y="1500" on="1"/>
        <pt x="400" y="1600" on="1"/>
        <pt x="500" y="1600" on="1"/>
        <pt x="500" y="1700" on="1"/>
      </contour>
    </TTGlyph>
    <TTGlyph name="Edieresis" xMin="100" yMin="100" xMax="1100" yMax="1700">
      <contour>
        <pt x="300" y="1500" on="1"/>
        <pt x="300" y="1700" on="1"/>
        <pt x="500" y="1700" on="1"/>
        <pt x="500" y="1500" on="1"/>
      </contour>
      <contour>
        <pt x="900" y="1700" on="1"/>
        <pt x="900" y="1500" on="1"/>
        <pt x="700" y="1500" on="1"/>
        <pt x="700" y="1700" on="1"/>
      </contour>
      <contour>
        <pt x="1100" y="1300" on="1"/>
        <pt x="1100" y="1100" on="1"/>
        <pt x="300" y="1100" on="1"/>
        <pt x="300" y="800" on="1"/>
        <pt x="900" y="800" on="1"/>
        <pt x="900" y="600" on="1"/>
        <pt x="300" y="600" on="1"/>
        <pt x="300" y="300" on="1"/>
        <pt x="1100" y="300" on="1"/>
        <pt x="1100" y="100" on="1"/>
        <pt x="100" y="100" on="1"/>
        <pt x="100" y="1300" on="1"/>
      </contour>
    </TTGlyph>
    <TTGlyph name="Egrave" xMin="100" yMin="100" xMax="1100" yMax="1700">
      <contour>
        <pt x="1100" y="1300" on="1"/>
        <pt x="1100" y="1100" on="1"/>
        <pt x="300" y="1100" on="1"/>
        <pt x="300" y="800" on="1"/>
        <pt x="900" y="800" on="1"/>
        <pt x="900" y="600" on="1"/>
        <pt x="300" y="600" on="1"/>
        <pt x="300" y="300" on="1"/>
        <pt x="1100" y="300" on="1"/>
        <pt x="1100" y="100" on="1"/>
        <pt x="100" y="100" on="1"/>
        <pt x="100" y="1300" on="1"/>
      </contour>
      <contour>
        <pt x="600" y="1700" on="1"/>
        <pt x="600" y="1600" on="1"/>
        <pt x="700" y="1600" on="1"/>
        <pt x="700" y="1500" on="1"/>
        <pt x="800" y="1500" on="1"/>
        <pt x="800" y="1400" on="1"/>
        <pt x="600" y="1400" on="1"/>
        <pt x="600" y="1500" on="1"/>
        <pt x="400" y="1500" on="1"/>
        <pt x="400" y="1600" on="1"/>
        <pt x="300" y="1600" on="1"/>
        <pt x="300" y="1700" on="1"/>
      </contour>
    </TTGlyph>
    <TTGlyph name="Eth" xMin="100" yMin="100" xMax="1100" yMax="1500">
      <contour>
        <pt x="200" y="900" on="1"/>
        <pt x="200" y="1500" on="1"/>
        <pt x="900" y="1500" on="1"/>
        <pt x="900" y="1400" on="1"/>
        <pt x="1000" y="1400" on="1"/>
        <pt x="1000" y="1300" on="1"/>
        <pt x="1100" y="1300" on="1"/>
        <pt x="1100" y="300" on="1"/>
        <pt x="1000" y="300" on="1"/>
        <pt x="1000" y="200" on="1"/>
        <pt x="900" y="200" on="1"/>
        <pt x="900" y="100" on="1"/>
        <pt x="200" y="100" on="1"/>
        <pt x="200" y="700" on="1"/>
        <pt x="100" y="700" on="1"/>
        <pt x="100" y="900" on="1"/>
      </contour>
      <contour>
        <pt x="400" y="900" on="1"/>
        <pt x="600" y="900" on="1"/>
        <pt x="600" y="700" on="1"/>
        <pt x="400" y="700" on="1"/>
        <pt x="400" y="300" on="1"/>
        <pt x="800" y="300" on="1"/>
        <pt x="800" y="400" on="1"/>
        <pt x="900" y="400" on="1"/>
        <pt x="900" y="1200" on="1"/>
        <pt x="800" y="1200" on="1"/>
        <pt x="800" y="1300" on="1"/>
        <pt x="400" y="1300" on="1"/>
      </contour>
    </TTGlyph>
    <TTGlyph name="Euro" xMin="100" yMin="100" xMax="1100" yMax="1700">
      <contour>
        <pt x="1000" y="1500" on="1"/>
        <pt x="1100" y="1500" on="1"/>
        <pt x="1100" y="1400" on="1"/>
        <pt x="900" y="1400" on="1"/>
        <pt x="900" y="1500" on="1"/>
        <pt x="600" y="1500" on="1"/>
        <pt x="600" y="1400" on="1"/>
        <pt x="500" y="1400" on="1"/>
        <pt x="500" y="1300" on="1"/>
        <pt x="400" y="1300" on="1"/>
        <pt x="400" y="1200" on="1"/>
        <pt x="700" y="1200" on="1"/>
        <pt x="700" y="1000" on="1"/>
        <pt x="400" y="1000" on="1"/>
        <pt x="400" y="900" on="1"/>
        <pt x="700" y="900" on="1"/>
        <pt x="700" y="700" on="1"/>
        <pt x="400" y="700" on="1"/>
        <pt x="400" y="500" on="1"/>
        <pt x="500" y="500" on="1"/>
        <pt x="500" y="400" on="1"/>
        <pt x="600" y="400" on="1"/>
        <pt x="600" y="300" on="1"/>
        <pt x="900" y="300" on="1"/>
        <pt x="900" y="400" on="1"/>
        <pt x="1100" y="400" on="1"/>
        <pt x="1100" y="300" on="1"/>
        <pt x="1000" y="300" on="1"/>
        <pt x="1000" y="200" on="1"/>
        <pt x="900" y="200" on="1"/>
        <pt x="900" y="100" on="1"/>
        <pt x="500" y="100" on="1"/>
        <pt x="500" y="200" on="1"/>
        <pt x="400" y="200" on="1"/>
        <pt x="400" y="300" on="1"/>
        <pt x="300" y="300" on="1"/>
        <pt x="300" y="400" on="1"/>
        <pt x="200" y="400" on="1"/>
        <pt x="200" y="700" on="1"/>
        <pt x="100" y="700" on="1"/>
        <pt x="100" y="900" on="1"/>
        <pt x="200" y="900" on="1"/>
        <pt x="200" y="1000" on="1"/>
        <pt x="100" y="1000" on="1"/>
        <pt x="100" y="1200" on="1"/>
        <pt x="200" y="1200" on="1"/>
        <pt x="200" y="1400" on="1"/>
        <pt x="300" y="1400" on="1"/>
        <pt x="300" y="1500" on="1"/>
        <pt x="400" y="1500" on="1"/>
        <pt x="400" y="1600" on="1"/>
        <pt x="500" y="1600" on="1"/>
        <pt x="500" y="1700" on="1"/>
        <pt x="900" y="1700" on="1"/>
        <pt x="900" y="1600" on="1"/>
        <pt x="1000" y="1600" on="1"/>
      </contour>
    </TTGlyph>
    <TTGlyph name="F" xMin="100" yMin="100" xMax="1100" yMax="1500">
      <contour>
        <pt x="1100" y="1500" on="1"/>
        <pt x="1100" y="1300" on="1"/>
        <pt x="300" y="1300" on="1"/>
        <pt x="300" y="900" on="1"/>
        <pt x="900" y="900" on="1"/>
        <pt x="900" y="700" on="1"/>
        <pt x="300" y="700" on="1"/>
        <pt x="300" y="100" on="1"/>
        <pt x="100" y="100" on="1"/>
        <pt x="100" y="1500" on="1"/>
      </contour>
    </TTGlyph>
    <TTGlyph name="G" xMin="100" yMin="100" xMax="1100" yMax="1500">
      <contour>
        <pt x="1000" y="1300" on="1"/>
        <pt x="1100" y="1300" on="1"/>
        <pt x="1100" y="1100" on="1"/>
        <pt x="900" y="1100" on="1"/>
        <pt x="900" y="1200" on="1"/>
        <pt x="800" y="1200" on="1"/>
        <pt x="800" y="1300" on="1"/>
        <pt x="400" y="1300" on="1"/>
        <pt x="400" y="1200" on="1"/>
        <pt x="300" y="1200" on="1"/>
        <pt x="300" y="400" on="1"/>
        <pt x="400" y="400" on="1"/>
        <pt x="400" y="300" on="1"/>
        <pt x="800" y="300" on="1"/>
        <pt x="800" y="400" on="1"/>
        <pt x="900" y="400" on="1"/>
        <pt x="900" y="700" on="1"/>
        <pt x="600" y="700" on="1"/>
        <pt x="600" y="900" on="1"/>
        <pt x="1100" y="900" on="1"/>
        <pt x="1100" y="300" on="1"/>
        <pt x="1000" y="300" on="1"/>
        <pt x="1000" y="200" on="1"/>
        <pt x="900" y="200" on="1"/>
        <pt x="900" y="100" on="1"/>
        <pt x="300" y="100" on="1"/>
        <pt x="300" y="200" on="1"/>
        <pt x="200" y="200" on="1"/>
        <pt x="200" y="300" on="1"/>
        <pt x="100" y="300" on="1"/>
        <pt x="100" y="1300" on="1"/>
        <pt x="200" y="1300" on="1"/>
        <pt x="200" y="1400" on="1"/>
        <pt x="300" y="1400" on="1"/>
        <pt x="300" y="1500" on="1"/>
        <pt x="900" y="1500" on="1"/>
        <pt x="900" y="1400" on="1"/>
        <pt x="1000" y="1400" on="1"/>
      </contour>
    </TTGlyph>
    <TTGlyph name="H" xMin="100" yMin="100" xMax="1100" yMax="1500">
      <contour>
        <pt x="300" y="700" on="1"/>
        <pt x="300" y="100" on="1"/>
        <pt x="100" y="100" on="1"/>
        <pt x="100" y="1500" on="1"/>
        <pt x="300" y="1500" on="1"/>
        <pt x="300" y="900" on="1"/>
        <pt x="900" y="900" on="1"/>
        <pt x="900" y="1500" on="1"/>
        <pt x="1100" y="1500" on="1"/>
        <pt x="1100" y="100" on="1"/>
        <pt x="900" y="100" on="1"/>
        <pt x="900" y="700" on="1"/>
      </contour>
    </TTGlyph>
    <TTGlyph name="I" xMin="300" yMin="100" xMax="900" yMax="1500">
      <contour>
        <pt x="300" y="100" on="1"/>
        <pt x="300" y="300" on="1"/>
        <pt x="500" y="300" on="1"/>
        <pt x="500" y="1300" on="1"/>
        <pt x="300" y="1300" on="1"/>
        <pt x="300" y="1500" on="1"/>
        <pt x="900" y="1500" on="1"/>
        <pt x="900" y="1300" on="1"/>
        <pt x="700" y="1300" on="1"/>
        <pt x="700" y="300" on="1"/>
        <pt x="900" y="300" on="1"/>
        <pt x="900" y="100" on="1"/>
      </contour>
    </TTGlyph>
    <TTGlyph name="Iacute" xMin="300" yMin="100" xMax="900" yMax="1700">
      <contour>
        <pt x="300" y="100" on="1"/>
        <pt x="300" y="300" on="1"/>
        <pt x="500" y="300" on="1"/>
        <pt x="500" y="1100" on="1"/>
        <pt x="300" y="1100" on="1"/>
        <pt x="300" y="1300" on="1"/>
        <pt x="900" y="1300" on="1"/>
        <pt x="900" y="1100" on="1"/>
        <pt x="700" y="1100" on="1"/>
        <pt x="700" y="300" on="1"/>
        <pt x="900" y="300" on="1"/>
        <pt x="900" y="100" on="1"/>
      </contour>
      <contour>
        <pt x="900" y="1700" on="1"/>
        <pt x="900" y="1600" on="1"/>
        <pt x="800" y="1600" on="1"/>
        <pt x="800" y="1500" on="1"/>
        <pt x="600" y="1500" on="1"/>
        <pt x="600" y="1400" on="1"/>
        <pt x="400" y="1400" on="1"/>
        <pt x="400" y="1500" on="1"/>
        <pt x="500" y="1500" on="1"/>
        <pt x="500" y="1600" on="1"/>
        <pt x="600" y="1600" on="1"/>
        <pt x="600" y="1700" on="1"/>
      </contour>
    </TTGlyph>
    <TTGlyph name="Icircumflex" xMin="300" yMin="100" xMax="900" yMax="1700">
      <contour>
        <pt x="300" y="100" on="1"/>
        <pt x="300" y="300" on="1"/>
        <pt x="500" y="300" on="1"/>
        <pt x="500" y="1100" on="1"/>
        <pt x="300" y="1100" on="1"/>
        <pt x="300" y="1300" on="1"/>
        <pt x="900" y="1300" on="1"/>
        <pt x="900" y="1100" on="1"/>
        <pt x="700" y="1100" on="1"/>
        <pt x="700" y="300" on="1"/>
        <pt x="900" y="300" on="1"/>
        <pt x="900" y="100" on="1"/>
      </contour>
      <contour>
        <pt x="500" y="1600" on="1"/>
        <pt x="500" y="1700" on="1"/>
        <pt x="700" y="1700" on="1"/>
        <pt x="700" y="1600" on="1"/>
        <pt x="800" y="1600" on="1"/>
        <pt x="800" y="1500" on="1"/>
        <pt x="900" y="1500" on="1"/>
        <pt x="900" y="1400" on="1"/>
        <pt x="700" y="1400" on="1"/>
        <pt x="700" y="1500" on="1"/>
        <pt x="500" y="1500" on="1"/>
        <pt x="500" y="1400" on="1"/>
        <pt x="300" y="1400" on="1"/>
        <pt x="300" y="1500" on="1"/>
        <pt x="400" y="1500" on="1"/>
        <pt x="400" y="1600" on="1"/>
      </contour>
    </TTGlyph>
    <TTGlyph name="Idieresis" xMin="300" yMin="100" xMax="900" yMax="1700">
      <contour>
        <pt x="300" y="100" on="1"/>
        <pt x="300" y="300" on="1"/>
        <pt x="500" y="300" on="1"/>
        <pt x="500" y="1100" on="1"/>
        <pt x="300" y="1100" on="1"/>
        <pt x="300" y="1300" on="1"/>
        <pt x="900" y="1300" on="1"/>
        <pt x="900" y="1100" on="1"/>
        <pt x="700" y="1100" on="1"/>
        <pt x="700" y="300" on="1"/>
        <pt x="900" y="300" on="1"/>
        <pt x="900" y="100" on="1"/>
      </contour>
      <contour>
        <pt x="500" y="1700" on="1"/>
        <pt x="500" y="1500" on="1"/>
        <pt x="300" y="1500" on="1"/>
        <pt x="300" y="1700" on="1"/>
      </contour>
      <contour>
        <pt x="900" y="1700" on="1"/>
        <pt x="900" y="1500" on="1"/>
        <pt x="700" y="1500" on="1"/>
        <pt x="700" y="1700" on="1"/>
      </contour>
    </TTGlyph>
    <TTGlyph name="Igrave" xMin="300" yMin="100" xMax="900" yMax="1700">
      <contour>
        <pt x="300" y="100" on="1"/>
        <pt x="300" y="300" on="1"/>
        <pt x="500" y="300" on="1"/>
        <pt x="500" y="1100" on="1"/>
        <pt x="300" y="1100" on="1"/>
        <pt x="300" y="1300" on="1"/>
        <pt x="900" y="1300" on="1"/>
        <pt x="900" y="1100" on="1"/>
        <pt x="700" y="1100" on="1"/>
        <pt x="700" y="300" on="1"/>
        <pt x="900" y="300" on="1"/>
        <pt x="900" y="100" on="1"/>
      </contour>
      <contour>
        <pt x="600" y="1700" on="1"/>
        <pt x="600" y="1600" on="1"/>
        <pt x="700" y="1600" on="1"/>
        <pt x="700" y="1500" on="1"/>
        <pt x="800" y="1500" on="1"/>
        <pt x="800" y="1400" on="1"/>
        <pt x="600" y="1400" on="1"/>
        <pt x="600" y="1500" on="1"/>
        <pt x="400" y="1500" on="1"/>
        <pt x="400" y="1600" on="1"/>
        <pt x="300" y="1600" on="1"/>
        <pt x="300" y="1700" on="1"/>
      </contour>
    </TTGlyph>
    <TTGlyph name="J" xMin="100" yMin="100" xMax="1100" yMax="1500">
      <contour>
        <pt x="200" y="300" on="1"/>
        <pt x="100" y="300" on="1"/>
        <pt x="100" y="500" on="1"/>
        <pt x="300" y="500" on="1"/>
        <pt x="300" y="400" on="1"/>
        <pt x="400" y="400" on="1"/>
        <pt x="400" y="300" on="1"/>
        <pt x="600" y="300" on="1"/>
        <pt x="600" y="400" on="1"/>
        <pt x="700" y="400" on="1"/>
        <pt x="700" y="1300" on="1"/>
        <pt x="500" y="1300" on="1"/>
        <pt x="500" y="1500" on="1"/>
        <pt x="1100" y="1500" on="1"/>
        <pt x="1100" y="1300" on="1"/>
        <pt x="900" y="1300" on="1"/>
        <pt x="900" y="300" on="1"/>
        <pt x="800" y="300" on="1"/>
        <pt x="800" y="200" on="1"/>
        <pt x="700" y="200" on="1"/>
        <pt x="700" y="100" on="1"/>
        <pt x="300" y="100" on="1"/>
        <pt x="300" y="200" on="1"/>
        <pt x="200" y="200" on="1"/>
      </contour>
    </TTGlyph>
    <TTGlyph name="K" xMin="100" yMin="100" xMax="1100" yMax="1500">
      <contour>
        <pt x="300" y="700" on="1"/>
        <pt x="300" y="100" on="1"/>
        <pt x="100" y="100" on="1"/>
        <pt x="100" y="1500" on="1"/>
        <pt x="300" y="1500" on="1"/>
        <pt x="300" y="900" on="1"/>
        <pt x="400" y="900" on="1"/>
        <pt x="400" y="1000" on="1"/>
        <pt x="500" y="1000" on="1"/>
        <pt x="500" y="1100" on="1"/>
        <pt x="600" y="1100" on="1"/>
        <pt x="600" y="1200" on="1"/>
        <pt x="700" y="1200" on="1"/>
        <pt x="700" y="1300" on="1"/>
        <pt x="800" y="1300" on="1"/>
        <pt x="800" y="1400" on="1"/>
        <pt x="900" y="1400" on="1"/>
        <pt x="900" y="1500" on="1"/>
        <pt x="1100" y="1500" on="1"/>
        <pt x="1100" y="1300" on="1"/>
        <pt x="1000" y="1300" on="1"/>
        <pt x="1000" y="1200" on="1"/>
        <pt x="900" y="1200" on="1"/>
        <pt x="900" y="1100" on="1"/>
        <pt x="800" y="1100" on="1"/>
        <pt x="800" y="1000" on="1"/>
        <pt x="700" y="1000" on="1"/>
        <pt x="700" y="900" on="1"/>
        <pt x="600" y="900" on="1"/>
        <pt x="600" y="700" on="1"/>
        <pt x="700" y="700" on="1"/>
        <pt x="700" y="600" on="1"/>
        <pt x="800" y="600" on="1"/>
        <pt x="800" y="500" on="1"/>
        <pt x="900" y="500" on="1"/>
        <pt x="900" y="400" on="1"/>
        <pt x="1000" y="400" on="1"/>
        <pt x="1000" y="300" on="1"/>
        <pt x="1100" y="300" on="1"/>
        <pt x="1100" y="100" on="1"/>
        <pt x="900" y="100" on="1"/>
        <pt x="900" y="200" on="1"/>
        <pt x="800" y="200" on="1"/>
        <pt x="800" y="300" on="1"/>
        <pt x="700" y="300" on="1"/>
        <pt x="700" y="400" on="1"/>
        <pt x="600" y="400" on="1"/>
        <pt x="600" y="500" on="1"/>
        <pt x="500" y="500" on="1"/>
        <pt x="500" y="600" on="1"/>
        <pt x="400" y="600" on="1"/>
        <pt x="400" y="700" on="1"/>
      </contour>
    </TTGlyph>
    <TTGlyph name="L" xMin="100" yMin="100" xMax="1100" yMax="1500">
      <contour>
        <pt x="100" y="100" on="1"/>
        <pt x="100" y="1500" on="1"/>
        <pt x="300" y="1500" on="1"/>
        <pt x="300" y="300" on="1"/>
        <pt x="1100" y="300" on="1"/>
        <pt x="1100" y="100" on="1"/>
      </contour>
    </TTGlyph>
    <TTGlyph name="M" xMin="100" yMin="100" xMax="1100" yMax="1500">
      <contour>
        <pt x="300" y="100" on="1"/>
        <pt x="100" y="100" on="1"/>
        <pt x="100" y="1500" on="1"/>
        <pt x="300" y="1500" on="1"/>
        <pt x="300" y="1300" on="1"/>
        <pt x="400" y="1300" on="1"/>
        <pt x="400" y="1200" on="1"/>
        <pt x="500" y="1200" on="1"/>
        <pt x="500" y="1100" on="1"/>
        <pt x="700" y="1100" on="1"/>
        <pt x="700" y="1200" on="1"/>
        <pt x="800" y="1200" on="1"/>
        <pt x="800" y="1300" on="1"/>
        <pt x="900" y="1300" on="1"/>
        <pt x="900" y="1500" on="1"/>
        <pt x="1100" y="1500" on="1"/>
        <pt x="1100" y="100" on="1"/>
        <pt x="900" y="100" on="1"/>
        <pt x="900" y="1000" on="1"/>
        <pt x="800" y="1000" on="1"/>
        <pt x="800" y="900" on="1"/>
        <pt x="700" y="900" on="1"/>
        <pt x="700" y="700" on="1"/>
        <pt x="500" y="700" on="1"/>
        <pt x="500" y="900" on="1"/>
        <pt x="400" y="900" on="1"/>
        <pt x="400" y="1000" on="1"/>
        <pt x="300" y="1000" on="1"/>
      </contour>
    </TTGlyph>
    <TTGlyph name="N" xMin="100" yMin="100" xMax="1100" yMax="1500">
      <contour>
        <pt x="300" y="900" on="1"/>
        <pt x="300" y="100" on="1"/>
        <pt x="100" y="100" on="1"/>
        <pt x="100" y="1500" on="1"/>
        <pt x="300" y="1500" on="1"/>
        <pt x="300" y="1200" on="1"/>
        <pt x="400" y="1200" on="1"/>
        <pt x="400" y="1100" on="1"/>
        <pt x="500" y="1100" on="1"/>
        <pt x="500" y="1000" on="1"/>
        <pt x="600" y="1000" on="1"/>
        <pt x="600" y="900" on="1"/>
        <pt x="700" y="900" on="1"/>
        <pt x="700" y="800" on="1"/>
        <pt x="800" y="800" on="1"/>
        <pt x="800" y="700" on="1"/>
        <pt x="900" y="700" on="1"/>
        <pt x="900" y="1500" on="1"/>
        <pt x="1100" y="1500" on="1"/>
        <pt x="1100" y="100" on="1"/>
        <pt x="900" y="100" on="1"/>
        <pt x="900" y="400" on="1"/>
        <pt x="800" y="400" on="1"/>
        <pt x="800" y="500" on="1"/>
        <pt x="700" y="500" on="1"/>
        <pt x="700" y="600" on="1"/>
        <pt x="600" y="600" on="1"/>
        <pt x="600" y="700" on="1"/>
        <pt x="500" y="700" on="1"/>
        <pt x="500" y="800" on="1"/>
        <pt x="400" y="800" on="1"/>
        <pt x="400" y="900" on="1"/>
      </contour>
    </TTGlyph>
    <TTGlyph name="Ntilde" xMin="100" yMin="100" xMax="1100" yMax="1700">
      <contour>
        <pt x="400" y="1600" on="1"/>
        <pt x="400" y="1700" on="1"/>
        <pt x="600" y="1700" on="1"/>
        <pt x="600" y="1600" on="1"/>
        <pt x="800" y="1600" on="1"/>
        <pt x="800" y="1700" on="1"/>
        <pt x="900" y="1700" on="1"/>
        <pt x="900" y="1500" on="1"/>
        <pt x="800" y="1500" on="1"/>
        <pt x="800" y="1400" on="1"/>
        <pt x="600" y="1400" on="1"/>
        <pt x="600" y="1500" on="1"/>
        <pt x="400" y="1500" on="1"/>
        <pt x="400" y="1400" on="1"/>
        <pt x="300" y="1400" on="1"/>
        <pt x="300" y="1600" on="1"/>
      </contour>
      <contour>
        <pt x="300" y="800" on="1"/>
        <pt x="300" y="100" on="1"/>
        <pt x="100" y="100" on="1"/>
        <pt x="100" y="1300" on="1"/>
        <pt x="300" y="1300" on="1"/>
        <pt x="300" y="1100" on="1"/>
        <pt x="400" y="1100" on="1"/>
        <pt x="400" y="1000" on="1"/>
        <pt x="500" y="1000" on="1"/>
        <pt x="500" y="900" on="1"/>
        <pt x="600" y="900" on="1"/>
        <pt x="600" y="800" on="1"/>
        <pt x="700" y="800" on="1"/>
        <pt x="700" y="700" on="1"/>
        <pt x="800" y="700" on="1"/>
        <pt x="800" y="600" on="1"/>
        <pt x="900" y="600" on="1"/>
        <pt x="900" y="1300" on="1"/>
        <pt x="1100" y="1300" on="1"/>
        <pt x="1100" y="100" on="1"/>
        <pt x="900" y="100" on="1"/>
        <pt x="900" y="300" on="1"/>
        <pt x="800" y="300" on="1"/>
        <pt x="800" y="400" on="1"/>
        <pt x="700" y="400" on="1"/>
        <pt x="700" y="500" on="1"/>
        <pt x="600" y="500" on="1"/>
        <pt x="600" y="600" on="1"/>
        <pt x="500" y="600" on="1"/>
        <pt x="500" y="700" on="1"/>
        <pt x="400" y="700" on="1"/>
        <pt x="400" y="800" on="1"/>
      </contour>
    </TTGlyph>
    <TTGlyph name="O" xMin="100" yMin="100" xMax="1100" yMax="1500">
      <contour>
        <pt x="800" y="1300" on="1"/>
        <pt x="400" y="1300" on="1"/>
        <pt x="400" y="1200" on="1"/>
        <pt x="300" y="1200" on="1"/>
        <pt x="300" y="400" on="1"/>
        <pt x="400" y="400" on="1"/>
        <pt x="400" y="300" on="1"/>
        <pt x="800" y="300" on="1"/>
        <pt x="800" y="400" on="1"/>
        <pt x="900" y="400" on="1"/>
        <pt x="900" y="1200" on="1"/>
        <pt x="800" y="1200" on="1"/>
      </contour>
      <contour>
        <pt x="300" y="1400" on="1"/>
        <pt x="300" y="1500" on="1"/>
        <pt x="900" y="1500" on="1"/>
        <pt x="900" y="1400" on="1"/>
        <pt x="1000" y="1400" on="1"/>
        <pt x="1000" y="1300" on="1"/>
        <pt x="1100" y="1300" on="1"/>
        <pt x="1100" y="300" on="1"/>
        <pt x="1000" y="300" on="1"/>
        <pt x="1000" y="200" on="1"/>
        <pt x="900" y="200" on="1"/>
        <pt x="900" y="100" on="1"/>
        <pt x="300" y="100" on="1"/>
        <pt x="300" y="200" on="1"/>
        <pt x="200" y="200" on="1"/>
        <pt x="200" y="300" on="1"/>
        <pt x="100" y="300" on="1"/>
        <pt x="100" y="1300" on="1"/>
        <pt x="200" y="1300" on="1"/>
        <pt x="200" y="1400" on="1"/>
      </contour>
    </TTGlyph>
    <TTGlyph name="Oacute" xMin="100" yMin="100" xMax="1100" yMax="1700">
      <contour>
        <pt x="600" y="1600" on="1"/>
        <pt x="600" y="1700" on="1"/>
        <pt x="900" y="1700" on="1"/>
        <pt x="900" y="1600" on="1"/>
        <pt x="800" y="1600" on="1"/>
        <pt x="800" y="1500" on="1"/>
        <pt x="600" y="1500" on="1"/>
        <pt x="600" y="1400" on="1"/>
        <pt x="400" y="1400" on="1"/>
        <pt x="400" y="1500" on="1"/>
        <pt x="500" y="1500" on="1"/>
        <pt x="500" y="1600" on="1"/>
      </contour>
      <contour>
        <pt x="400" y="300" on="1"/>
        <pt x="800" y="300" on="1"/>
        <pt x="800" y="400" on="1"/>
        <pt x="900" y="400" on="1"/>
        <pt x="900" y="1000" on="1"/>
        <pt x="800" y="1000" on="1"/>
        <pt x="800" y="1100" on="1"/>
        <pt x="400" y="1100" on="1"/>
        <pt x="400" y="1000" on="1"/>
        <pt x="300" y="1000" on="1"/>
        <pt x="300" y="400" on="1"/>
        <pt x="400" y="400" on="1"/>
      </contour>
      <contour>
        <pt x="300" y="100" on="1"/>
        <pt x="300" y="200" on="1"/>
        <pt x="200" y="200" on="1"/>
        <pt x="200" y="300" on="1"/>
        <pt x="100" y="300" on="1"/>
        <pt x="100" y="1100" on="1"/>
        <pt x="200" y="1100" on="1"/>
        <pt x="200" y="1200" on="1"/>
        <pt x="300" y="1200" on="1"/>
        <pt x="300" y="1300" on="1"/>
        <pt x="900" y="1300" on="1"/>
        <pt x="900" y="1200" on="1"/>
        <pt x="1000" y="1200" on="1"/>
        <pt x="1000" y="1100" on="1"/>
        <pt x="1100" y="1100" on="1"/>
        <pt x="1100" y="300" on="1"/>
        <pt x="1000" y="300" on="1"/>
        <pt x="1000" y="200" on="1"/>
        <pt x="900" y="200" on="1"/>
        <pt x="900" y="100" on="1"/>
      </contour>
    </TTGlyph>
    <TTGlyph name="Ocircumflex" xMin="100" yMin="100" xMax="1100" yMax="1700">
      <contour>
        <pt x="400" y="300" on="1"/>
        <pt x="800" y="300" on="1"/>
        <pt x="800" y="400" on="1"/>
        <pt x="900" y="400" on="1"/>
        <pt x="900" y="1000" on="1"/>
        <pt x="800" y="1000" on="1"/>
        <pt x="800" y="1100" on="1"/>
        <pt x="400" y="1100" on="1"/>
        <pt x="400" y="1000" on="1"/>
        <pt x="300" y="1000" on="1"/>
        <pt x="300" y="400" on="1"/>
        <pt x="400" y="400" on="1"/>
      </contour>
      <contour>
        <pt x="300" y="100" on="1"/>
        <pt x="300" y="200" on="1"/>
        <pt x="200" y="200" on="1"/>
        <pt x="200" y="300" on="1"/>
        <pt x="100" y="300" on="1"/>
        <pt x="100" y="1100" on="1"/>
        <pt x="200" y="1100" on="1"/>
        <pt x="200" y="1200" on="1"/>
        <pt x="300" y="1200" on="1"/>
        <pt x="300" y="1300" on="1"/>
        <pt x="900" y="1300" on="1"/>
        <pt x="900" y="1200" on="1"/>
        <pt x="1000" y="1200" on="1"/>
        <pt x="1000" y="1100" on="1"/>
        <pt x="1100" y="1100" on="1"/>
        <pt x="1100" y="300" on="1"/>
        <pt x="1000" y="300" on="1"/>
        <pt x="1000" y="200" on="1"/>
        <pt x="900" y="200" on="1"/>
        <pt x="900" y="100" on="1"/>
      </contour>
      <contour>
        <pt x="700" y="1700" on="1"/>
        <pt x="700" y="1600" on="1"/>
        <pt x="800" y="1600" on="1"/>
        <pt x="800" y="1500" on="1"/>
        <pt x="900" y="1500" on="1"/>
        <pt x="900" y="1400" on="1"/>
        <pt x="700" y="1400" on="1"/>
        <pt x="700" y="1500" on="1"/>
        <pt x="500" y="1500" on="1"/>
        <pt x="500" y="1400" on="1"/>
        <pt x="300" y="1400" on="1"/>
        <pt x="300" y="1500" on="1"/>
        <pt x="400" y="1500" on="1"/>
        <pt x="400" y="1600" on="1"/>
        <pt x="500" y="1600" on="1"/>
        <pt x="500" y="1700" on="1"/>
      </contour>
    </TTGlyph>
    <TTGlyph name="Odieresis" xMin="100" yMin="100" xMax="1100" yMax="1700">
      <contour>
        <pt x="400" y="300" on="1"/>
        <pt x="800" y="300" on="1"/>
        <pt x="800" y="400" on="1"/>
        <pt x="900" y="400" on="1"/>
        <pt x="900" y="1000" on="1"/>
        <pt x="800" y="1000" on="1"/>
        <pt x="800" y="1100" on="1"/>
        <pt x="400" y="1100" on="1"/>
        <pt x="400" y="1000" on="1"/>
        <pt x="300" y="1000" on="1"/>
        <pt x="300" y="400" on="1"/>
        <pt x="400" y="400" on="1"/>
      </contour>
      <contour>
        <pt x="300" y="100" on="1"/>
        <pt x="300" y="200" on="1"/>
        <pt x="200" y="200" on="1"/>
        <pt x="200" y="300" on="1"/>
        <pt x="100" y="300" on="1"/>
        <pt x="100" y="1100" on="1"/>
        <pt x="200" y="1100" on="1"/>
        <pt x="200" y="1200" on="1"/>
        <pt x="300" y="1200" on="1"/>
        <pt x="300" y="1300" on="1"/>
        <pt x="900" y="1300" on="1"/>
        <pt x="900" y="1200" on="1"/>
        <pt x="1000" y="1200" on="1"/>
        <pt x="1000" y="1100" on="1"/>
        <pt x="1100" y="1100" on="1"/>
        <pt x="1100" y="300" on="1"/>
        <pt x="1000" y="300" on="1"/>
        <pt x="1000" y="200" on="1"/>
        <pt x="900" y="200" on="1"/>
        <pt x="900" y="100" on="1"/>
      </contour>
      <contour>
        <pt x="500" y="1700" on="1"/>
        <pt x="500" y="1500" on="1"/>
        <pt x="300" y="1500" on="1"/>
        <pt x="300" y="1700" on="1"/>
      </contour>
      <contour>
        <pt x="900" y="1700" on="1"/>
        <pt x="900" y="1500" on="1"/>
        <pt x="700" y="1500" on="1"/>
        <pt x="700" y="1700" on="1"/>
      </contour>
    </TTGlyph>
    <TTGlyph name="Ograve" xMin="100" yMin="100" xMax="1100" yMax="1700">
      <contour>
        <pt x="600" y="1700" on="1"/>
        <pt x="600" y="1600" on="1"/>
        <pt x="700" y="1600" on="1"/>
        <pt x="700" y="1500" on="1"/>
        <pt x="800" y="1500" on="1"/>
        <pt x="800" y="1400" on="1"/>
        <pt x="600" y="1400" on="1"/>
        <pt x="600" y="1500" on="1"/>
        <pt x="400" y="1500" on="1"/>
        <pt x="400" y="1600" on="1"/>
        <pt x="300" y="1600" on="1"/>
        <pt x="300" y="1700" on="1"/>
      </contour>
      <contour>
        <pt x="400" y="300" on="1"/>
        <pt x="800" y="300" on="1"/>
        <pt x="800" y="400" on="1"/>
        <pt x="900" y="400" on="1"/>
        <pt x="900" y="1000" on="1"/>
        <pt x="800" y="1000" on="1"/>
        <pt x="800" y="1100" on="1"/>
        <pt x="400" y="1100" on="1"/>
        <pt x="400" y="1000" on="1"/>
        <pt x="300" y="1000" on="1"/>
        <pt x="300" y="400" on="1"/>
        <pt x="400" y="400" on="1"/>
      </contour>
      <contour>
        <pt x="300" y="100" on="1"/>
        <pt x="300" y="200" on="1"/>
        <pt x="200" y="200" on="1"/>
        <pt x="200" y="300" on="1"/>
        <pt x="100" y="300" on="1"/>
        <pt x="100" y="1100" on="1"/>
        <pt x="200" y="1100" on="1"/>
        <pt x="200" y="1200" on="1"/>
        <pt x="300" y="1200" on="1"/>
        <pt x="300" y="1300" on="1"/>
        <pt x="900" y="1300" on="1"/>
        <pt x="900" y="1200" on="1"/>
        <pt x="1000" y="1200" on="1"/>
        <pt x="1000" y="1100" on="1"/>
        <pt x="1100" y="1100" on="1"/>
        <pt x="1100" y="300" on="1"/>
        <pt x="1000" y="300" on="1"/>
        <pt x="1000" y="200" on="1"/>
        <pt x="900" y="200" on="1"/>
        <pt x="900" y="100" on="1"/>
      </contour>
    </TTGlyph>
    <TTGlyph name="Oslash" xMin="100" yMin="100" xMax="1100" yMax="1500">
      <contour>
        <pt x="500" y="300" on="1"/>
        <pt x="800" y="300" on="1"/>
        <pt x="800" y="400" on="1"/>
        <pt x="900" y="400" on="1"/>
        <pt x="900" y="1100" on="1"/>
        <pt x="800" y="1100" on="1"/>
        <pt x="800" y="900" on="1"/>
        <pt x="700" y="900" on="1"/>
        <pt x="700" y="700" on="1"/>
        <pt x="600" y="700" on="1"/>
        <pt x="600" y="500" on="1"/>
        <pt x="500" y="500" on="1"/>
      </contour>
      <contour>
        <pt x="700" y="1300" on="1"/>
        <pt x="400" y="1300" on="1"/>
        <pt x="400" y="1200" on="1"/>
        <pt x="300" y="1200" on="1"/>
        <pt x="300" y="500" on="1"/>
        <pt x="400" y="500" on="1"/>
        <pt x="400" y="700" on="1"/>
        <pt x="500" y="700" on="1"/>
        <pt x="500" y="900" on="1"/>
        <pt x="600" y="900" on="1"/>
        <pt x="600" y="1100" on="1"/>
        <pt x="700" y="1100" on="1"/>
      </contour>
      <contour>
        <pt x="400" y="100" on="1"/>
        <pt x="400" y="200" on="1"/>
        <pt x="300" y="200" on="1"/>
        <pt x="300" y="100" on="1"/>
        <pt x="100" y="100" on="1"/>
        <pt x="100" y="300" on="1"/>
        <pt x="200" y="300" on="1"/>
        <pt x="200" y="400" on="1"/>
        <pt x="100" y="400" on="1"/>
        <pt x="100" y="1300" on="1"/>
        <pt x="200" y="1300" on="1"/>
        <pt x="200" y="1400" on="1"/>
        <pt x="300" y="1400" on="1"/>
        <pt x="300" y="1500" on="1"/>
        <pt x="800" y="1500" on="1"/>
        <pt x="800" y="1400" on="1"/>
        <pt x="900" y="1400" on="1"/>
        <pt x="900" y="1500" on="1"/>
        <pt x="1100" y="1500" on="1"/>
        <pt x="1100" y="1300" on="1"/>
        <pt x="1000" y="1300" on="1"/>
        <pt x="1000" y="1200" on="1"/>
        <pt x="1100" y="1200" on="1"/>
        <pt x="1100" y="300" on="1"/>
        <pt x="1000" y="300" on="1"/>
        <pt x="1000" y="200" on="1"/>
        <pt x="900" y="200" on="1"/>
        <pt x="900" y="100" on="1"/>
      </contour>
    </TTGlyph>
    <TTGlyph name="Otilde" xMin="100" yMin="100" xMax="1100" yMax="1700">
      <contour>
        <pt x="400" y="300" on="1"/>
        <pt x="800" y="300" on="1"/>
        <pt x="800" y="400" on="1"/>
        <pt x="900" y="400" on="1"/>
        <pt x="900" y="1000" on="1"/>
        <pt x="800" y="1000" on="1"/>
        <pt x="800" y="1100" on="1"/>
        <pt x="400" y="1100" on="1"/>
        <pt x="400" y="1000" on="1"/>
        <pt x="300" y="1000" on="1"/>
        <pt x="300" y="400" on="1"/>
        <pt x="400" y="400" on="1"/>
      </contour>
      <contour>
        <pt x="300" y="100" on="1"/>
        <pt x="300" y="200" on="1"/>
        <pt x="200" y="200" on="1"/>
        <pt x="200" y="300" on="1"/>
        <pt x="100" y="300" on="1"/>
        <pt x="100" y="1100" on="1"/>
        <pt x="200" y="1100" on="1"/>
        <pt x="200" y="1200" on="1"/>
        <pt x="300" y="1200" on="1"/>
        <pt x="300" y="1300" on="1"/>
        <pt x="900" y="1300" on="1"/>
        <pt x="900" y="1200" on="1"/>
        <pt x="1000" y="1200" on="1"/>
        <pt x="1000" y="1100" on="1"/>
        <pt x="1100" y="1100" on="1"/>
        <pt x="1100" y="300" on="1"/>
        <pt x="1000" y="300" on="1"/>
        <pt x="1000" y="200" on="1"/>
        <pt x="900" y="200" on="1"/>
        <pt x="900" y="100" on="1"/>
      </contour>
      <contour>
        <pt x="800" y="1500" on="1"/>
        <pt x="800" y="1400" on="1"/>
        <pt x="600" y="1400" on="1"/>
        <pt x="600" y="1500" on="1"/>
        <pt x="400" y="1500" on="1"/>
        <pt x="400" y="1400" on="1"/>
        <pt x="300" y="1400" on="1"/>
        <pt x="300" y="1600" on="1"/>
        <pt x="400" y="1600" on="1"/>
        <pt x="400" y="1700" on="1"/>
        <pt x="600" y="1700" on="1"/>
        <pt x="600" y="1600" on="1"/>
        <pt x="800" y="1600" on="1"/>
        <pt x="800" y="1700" on="1"/>
        <pt x="900" y="1700" on="1"/>
        <pt x="900" y="1500" on="1"/>
      </contour>
    </TTGlyph>
    <TTGlyph name="P" xMin="100" yMin="100" xMax="1100" yMax="1500">
      <contour>
        <pt x="300" y="1300" on="1"/>
        <pt x="300" y="900" on="1"/>
        <pt x="800" y="900" on="1"/>
        <pt x="800" y="1000" on="1"/>
        <pt x="900" y="1000" on="1"/>
        <pt x="900" y="1200" on="1"/>
        <pt x="800" y="1200" on="1"/>
        <pt x="800" y="1300" on="1"/>
      </contour>
      <contour>
        <pt x="300" y="700" on="1"/>
        <pt x="300" y="100" on="1"/>
        <pt x="100" y="100" on="1"/>
        <pt x="100" y="1500" on="1"/>
        <pt x="900" y="1500" on="1"/>
        <pt x="900" y="1400" on="1"/>
        <pt x="1000" y="1400" on="1"/>
        <pt x="1000" y="1300" on="1"/>
        <pt x="1100" y="1300" on="1"/>
        <pt x="1100" y="900" on="1"/>
        <pt x="1000" y="900" on="1"/>
        <pt x="1000" y="800" on="1"/>
        <pt x="900" y="800" on="1"/>
        <pt x="900" y="700" on="1"/>
      </contour>
    </TTGlyph>
    <TTGlyph name="Q" xMin="100" yMin="100" xMax="1100" yMax="1500">
      <contour>
        <pt x="300" y="1200" on="1"/>
        <pt x="300" y="400" on="1"/>
        <pt x="400" y="400" on="1"/>
        <pt x="400" y="300" on="1"/>
        <pt x="700" y="300" on="1"/>
        <pt x="700" y="400" on="1"/>
        <pt x="600" y="400" on="1"/>
        <pt x="600" y="500" on="1"/>
        <pt x="500" y="500" on="1"/>
        <pt x="500" y="700" on="1"/>
        <pt x="700" y="700" on="1"/>
        <pt x="700" y="600" on="1"/>
        <pt x="800" y="600" on="1"/>
        <pt x="800" y="500" on="1"/>
        <pt x="900" y="500" on="1"/>
        <pt x="900" y="1200" on="1"/>
        <pt x="800" y="1200" on="1"/>
        <pt x="800" y="1300" on="1"/>
        <pt x="400" y="1300" on="1"/>
        <pt x="400" y="1200" on="1"/>
      </contour>
      <contour>
        <pt x="200" y="300" on="1"/>
        <pt x="100" y="300" on="1"/>
        <pt x="100" y="1300" on="1"/>
        <pt x="200" y="1300" on="1"/>
        <pt x="200" y="1400" on="1"/>
        <pt x="300" y="1400" on="1"/>
        <pt x="300" y="1500" on="1"/>
        <pt x="900" y="1500" on="1"/>
        <pt x="900" y="1400" on="1"/>
        <pt x="1000" y="1400" on="1"/>
        <pt x="1000" y="1300" on="1"/>
        <pt x="1100" y="1300" on="1"/>
        <pt x="1100" y="400" on="1"/>
        <pt x="1000" y="400" on="1"/>
        <pt x="1000" y="300" on="1"/>
        <pt x="1100" y="300" on="1"/>
        <pt x="1100" y="100" on="1"/>
        <pt x="900" y="100" on="1"/>
        <pt x="900" y="200" on="1"/>
        <pt x="700" y="200" on="1"/>
        <pt x="700" y="100" on="1"/>
        <pt x="300" y="100" on="1"/>
        <pt x="300" y="200" on="1"/>
        <pt x="200" y="200" on="1"/>
      </contour>
    </TTGlyph>
    <TTGlyph name="R" xMin="100" yMin="100" xMax="1100" yMax="1500">
      <contour>
        <pt x="300" y="1300" on="1"/>
        <pt x="300" y="900" on="1"/>
        <pt x="800" y="900" on="1"/>
        <pt x="800" y="1000" on="1"/>
        <pt x="900" y="1000" on="1"/>
        <pt x="900" y="1200" on="1"/>
        <pt x="800" y="1200" on="1"/>
        <pt x="800" y="1300" on="1"/>
      </contour>
      <contour>
        <pt x="400" y="700" on="1"/>
        <pt x="300" y="700" on="1"/>
        <pt x="300" y="100" on="1"/>
        <pt x="100" y="100" on="1"/>
        <pt x="100" y="1500" on="1"/>
        <pt x="900" y="1500" on="1"/>
        <pt x="900" y="1400" on="1"/>
        <pt x="1000" y="1400" on="1"/>
        <pt x="1000" y="1300" on="1"/>
        <pt x="1100" y="1300" on="1"/>
        <pt x="1100" y="900" on="1"/>
        <pt x="1000" y="900" on="1"/>
        <pt x="1000" y="800" on="1"/>
        <pt x="900" y="800" on="1"/>
        <pt x="900" y="700" on="1"/>
        <pt x="700" y="700" on="1"/>
        <pt x="700" y="600" on="1"/>
        <pt x="800" y="600" on="1"/>
        <pt x="800" y="500" on="1"/>
        <pt x="900" y="500" on="1"/>
        <pt x="900" y="400" on="1"/>
        <pt x="1000" y="400" on="1"/>
        <pt x="1000" y="300" on="1"/>
        <pt x="1100" y="300" on="1"/>
        <pt x="1100" y="100" on="1"/>
        <pt x="900" y="100" on="1"/>
        <pt x="900" y="200" on="1"/>
        <pt x="800" y="200" on="1"/>
        <pt x="800" y="300" on="1"/>
        <pt x="700" y="300" on="1"/>
        <pt x="700" y="400" on="1"/>
        <pt x="600" y="400" on="1"/>
        <pt x="600" y="500" on="1"/>
        <pt x="500" y="500" on="1"/>
        <pt x="500" y="600" on="1"/>
        <pt x="400" y="600" on="1"/>
      </contour>
    </TTGlyph>
    <TTGlyph name="S" xMin="100" yMin="100" xMax="1100" yMax="1500">
      <contour>
        <pt x="1000" y="1300" on="1"/>
        <pt x="1100" y="1300" on="1"/>
        <pt x="1100" y="1100" on="1"/>
        <pt x="900" y="1100" on="1"/>
        <pt x="900" y="1200" on="1"/>
        <pt x="800" y="1200" on="1"/>
        <pt x="800" y="1300" on="1"/>
        <pt x="400" y="1300" on="1"/>
        <pt x="400" y="1200" on="1"/>
        <pt x="300" y="1200" on="1"/>
        <pt x="300" y="1000" on="1"/>
        <pt x="400" y="1000" on="1"/>
        <pt x="400" y="900" on="1"/>
        <pt x="900" y="900" on="1"/>
        <pt x="900" y="800" on="1"/>
        <pt x="1000" y="800" on="1"/>
        <pt x="1000" y="700" on="1"/>
        <pt x="1100" y="700" on="1"/>
        <pt x="1100" y="300" on="1"/>
        <pt x="1000" y="300" on="1"/>
        <pt x="1000" y="200" on="1"/>
        <pt x="900" y="200" on="1"/>
        <pt x="900" y="100" on="1"/>
        <pt x="300" y="100" on="1"/>
        <pt x="300" y="200" on="1"/>
        <pt x="200" y="200" on="1"/>
        <pt x="200" y="300" on="1"/>
        <pt x="100" y="300" on="1"/>
        <pt x="100" y="500" on="1"/>
        <pt x="300" y="500" on="1"/>
        <pt x="300" y="400" on="1"/>
        <pt x="400" y="400" on="1"/>
        <pt x="400" y="300" on="1"/>
        <pt x="800" y="300" on="1"/>
        <pt x="800" y="400" on="1"/>
        <pt x="900" y="400" on="1"/>
        <pt x="900" y="600" on="1"/>
        <pt x="800" y="600" on="1"/>
        <pt x="800" y="700" on="1"/>
        <pt x="300" y="700" on="1"/>
        <pt x="300" y="800" on="1"/>
        <pt x="200" y="800" on="1"/>
        <pt x="200" y="900" on="1"/>
        <pt x="100" y="900" on="1"/>
        <pt x="100" y="1300" on="1"/>
        <pt x="200" y="1300" on="1"/>
        <pt x="200" y="1400" on="1"/>
        <pt x="300" y="1400" on="1"/>
        <pt x="300" y="1500" on="1"/>
        <pt x="900" y="1500" on="1"/>
        <pt x="900" y="1400" on="1"/>
        <pt x="1000" y="1400" on="1"/>
      </contour>
    </TTGlyph>
    <TTGlyph name="T" xMin="100" yMin="100" xMax="1100" yMax="1500">
      <contour>
        <pt x="500" y="1300" on="1"/>
        <pt x="100" y="1300" on="1"/>
        <pt x="100" y="1500" on="1"/>
        <pt x="1100" y="1500" on="1"/>
        <pt x="1100" y="1300" on="1"/>
        <pt x="700" y="1300" on="1"/>
        <pt x="700" y="100" on="1"/>
        <pt x="500" y="100" on="1"/>
      </contour>
    </TTGlyph>
    <TTGlyph name="Thorn" xMin="100" yMin="100" xMax="1100" yMax="1600">
      <contour>
        <pt x="300" y="400" on="1"/>
        <pt x="300" y="100" on="1"/>
        <pt x="100" y="100" on="1"/>
        <pt x="100" y="1600" on="1"/>
        <pt x="300" y="1600" on="1"/>
        <pt x="300" y="1300" on="1"/>
        <pt x="900" y="1300" on="1"/>
        <pt x="900" y="1200" on="1"/>
        <pt x="1000" y="1200" on="1"/>
        <pt x="1000" y="1100" on="1"/>
        <pt x="1100" y="1100" on="1"/>
        <pt x="1100" y="600" on="1"/>
        <pt x="1000" y="600" on="1"/>
        <pt x="1000" y="500" on="1"/>
        <pt x="900" y="500" on="1"/>
        <pt x="900" y="400" on="1"/>
      </contour>
      <contour>
        <pt x="300" y="1100" on="1"/>
        <pt x="300" y="600" on="1"/>
        <pt x="800" y="600" on="1"/>
        <pt x="800" y="700" on="1"/>
        <pt x="900" y="700" on="1"/>
        <pt x="900" y="1000" on="1"/>
        <pt x="800" y="1000" on="1"/>
        <pt x="800" y="1100" on="1"/>
      </contour>
    </TTGlyph>
    <TTGlyph name="U" xMin="100" yMin="100" xMax="1100" yMax="1500">
      <contour>
        <pt x="200" y="300" on="1"/>
        <pt x="100" y="300" on="1"/>
        <pt x="100" y="1500" on="1"/>
        <pt x="300" y="1500" on="1"/>
        <pt x="300" y="400" on="1"/>
        <pt x="400" y="400" on="1"/>
        <pt x="400" y="300" on="1"/>
        <pt x="800" y="300" on="1"/>
        <pt x="800" y="400" on="1"/>
        <pt x="900" y="400" on="1"/>
        <pt x="900" y="1500" on="1"/>
        <pt x="1100" y="1500" on="1"/>
        <pt x="1100" y="300" on="1"/>
        <pt x="1000" y="300" on="1"/>
        <pt x="1000" y="200" on="1"/>
        <pt x="900" y="200" on="1"/>
        <pt x="900" y="100" on="1"/>
        <pt x="300" y="100" on="1"/>
        <pt x="300" y="200" on="1"/>
        <pt x="200" y="200" on="1"/>
      </contour>
    </TTGlyph>
    <TTGlyph name="Uacute" xMin="100" yMin="100" xMax="1100" yMax="1700">
      <contour>
        <pt x="900" y="1700" on="1"/>
        <pt x="900" y="1600" on="1"/>
        <pt x="800" y="1600" on="1"/>
        <pt x="800" y="1500" on="1"/>
        <pt x="600" y="1500" on="1"/>
        <pt x="600" y="1400" on="1"/>
        <pt x="400" y="1400" on="1"/>
        <pt x="400" y="1500" on="1"/>
        <pt x="500" y="1500" on="1"/>
        <pt x="500" y="1600" on="1"/>
        <pt x="600" y="1600" on="1"/>
        <pt x="600" y="1700" on="1"/>
      </contour>
      <contour>
        <pt x="200" y="300" on="1"/>
        <pt x="100" y="300" on="1"/>
        <pt x="100" y="1300" on="1"/>
        <pt x="300" y="1300" on="1"/>
        <pt x="300" y="400" on="1"/>
        <pt x="400" y="400" on="1"/>
        <pt x="400" y="300" on="1"/>
        <pt x="800" y="300" on="1"/>
        <pt x="800" y="400" on="1"/>
        <pt x="900" y="400" on="1"/>
        <pt x="900" y="1300" on="1"/>
        <pt x="1100" y="1300" on="1"/>
        <pt x="1100" y="300" on="1"/>
        <pt x="1000" y="300" on="1"/>
        <pt x="1000" y="200" on="1"/>
        <pt x="900" y="200" on="1"/>
        <pt x="900" y="100" on="1"/>
        <pt x="300" y="100" on="1"/>
        <pt x="300" y="200" on="1"/>
        <pt x="200" y="200" on="1"/>
      </contour>
    </TTGlyph>
    <TTGlyph name="Ucircumflex" xMin="100" yMin="100" xMax="1100" yMax="1700">
      <contour>
        <pt x="200" y="300" on="1"/>
        <pt x="100" y="300" on="1"/>
        <pt x="100" y="1300" on="1"/>
        <pt x="300" y="1300" on="1"/>
        <pt x="300" y="400" on="1"/>
        <pt x="400" y="400" on="1"/>
        <pt x="400" y="300" on="1"/>
        <pt x="800" y="300" on="1"/>
        <pt x="800" y="400" on="1"/>
        <pt x="900" y="400" on="1"/>
        <pt x="900" y="1300" on="1"/>
        <pt x="1100" y="1300" on="1"/>
        <pt x="1100" y="300" on="1"/>
        <pt x="1000" y="300" on="1"/>
        <pt x="1000" y="200" on="1"/>
        <pt x="900" y="200" on="1"/>
        <pt x="900" y="100" on="1"/>
        <pt x="300" y="100" on="1"/>
        <pt x="300" y="200" on="1"/>
        <pt x="200" y="200" on="1"/>
      </contour>
      <contour>
        <pt x="700" y="1700" on="1"/>
        <pt x="700" y="1600" on="1"/>
        <pt x="800" y="1600" on="1"/>
        <pt x="800" y="1500" on="1"/>
        <pt x="900" y="1500" on="1"/>
        <pt x="900" y="1400" on="1"/>
        <pt x="700" y="1400" on="1"/>
        <pt x="700" y="1500" on="1"/>
        <pt x="500" y="1500" on="1"/>
        <pt x="500" y="1400" on="1"/>
        <pt x="300" y="1400" on="1"/>
        <pt x="300" y="1500" on="1"/>
        <pt x="400" y="1500" on="1"/>
        <pt x="400" y="1600" on="1"/>
        <pt x="500" y="1600" on="1"/>
        <pt x="500" y="1700" on="1"/>
      </contour>
    </TTGlyph>
    <TTGlyph name="Udieresis" xMin="100" yMin="100" xMax="1100" yMax="1700">
      <contour>
        <pt x="200" y="300" on="1"/>
        <pt x="100" y="300" on="1"/>
        <pt x="100" y="1300" on="1"/>
        <pt x="300" y="1300" on="1"/>
        <pt x="300" y="400" on="1"/>
        <pt x="400" y="400" on="1"/>
        <pt x="400" y="300" on="1"/>
        <pt x="800" y="300" on="1"/>
        <pt x="800" y="400" on="1"/>
        <pt x="900" y="400" on="1"/>
        <pt x="900" y="1300" on="1"/>
        <pt x="1100" y="1300" on="1"/>
        <pt x="1100" y="300" on="1"/>
        <pt x="1000" y="300" on="1"/>
        <pt x="1000" y="200" on="1"/>
        <pt x="900" y="200" on="1"/>
        <pt x="900" y="100" on="1"/>
        <pt x="300" y="100" on="1"/>
        <pt x="300" y="200" on="1"/>
        <pt x="200" y="200" on="1"/>
      </contour>
      <contour>
        <pt x="300" y="1500" on="1"/>
        <pt x="300" y="1700" on="1"/>
        <pt x="500" y="1700" on="1"/>
        <pt x="500" y="1500" on="1"/>
      </contour>
      <contour>
        <pt x="700" y="1700" on="1"/>
        <pt x="900" y="1700" on="1"/>
        <pt x="900" y="1500" on="1"/>
        <pt x="700" y="1500" on="1"/>
      </contour>
    </TTGlyph>
    <TTGlyph name="Ugrave" xMin="100" yMin="100" xMax="1100" yMax="1700">
      <contour>
        <pt x="600" y="1700" on="1"/>
        <pt x="600" y="1600" on="1"/>
        <pt x="700" y="1600" on="1"/>
        <pt x="700" y="1500" on="1"/>
        <pt x="800" y="1500" on="1"/>
        <pt x="800" y="1400" on="1"/>
        <pt x="600" y="1400" on="1"/>
        <pt x="600" y="1500" on="1"/>
        <pt x="400" y="1500" on="1"/>
        <pt x="400" y="1600" on="1"/>
        <pt x="300" y="1600" on="1"/>
        <pt x="300" y="1700" on="1"/>
      </contour>
      <contour>
        <pt x="200" y="300" on="1"/>
        <pt x="100" y="300" on="1"/>
        <pt x="100" y="1300" on="1"/>
        <pt x="300" y="1300" on="1"/>
        <pt x="300" y="400" on="1"/>
        <pt x="400" y="400" on="1"/>
        <pt x="400" y="300" on="1"/>
        <pt x="800" y="300" on="1"/>
        <pt x="800" y="400" on="1"/>
        <pt x="900" y="400" on="1"/>
        <pt x="900" y="1300" on="1"/>
        <pt x="1100" y="1300" on="1"/>
        <pt x="1100" y="300" on="1"/>
        <pt x="1000" y="300" on="1"/>
        <pt x="1000" y="200" on="1"/>
        <pt x="900" y="200" on="1"/>
        <pt x="900" y="100" on="1"/>
        <pt x="300" y="100" on="1"/>
        <pt x="300" y="200" on="1"/>
        <pt x="200" y="200" on="1"/>
      </contour>
    </TTGlyph>
    <TTGlyph name="V" xMin="100" yMin="100" xMax="1100" yMax="1500">
      <contour>
        <pt x="200" y="500" on="1"/>
        <pt x="100" y="500" on="1"/>
        <pt x="100" y="1500" on="1"/>
        <pt x="300" y="1500" on="1"/>
        <pt x="300" y="600" on="1"/>
        <pt x="400" y="600" on="1"/>
        <pt x="400" y="500" on="1"/>
        <pt x="500" y="500" on="1"/>
        <pt x="500" y="400" on="1"/>
        <pt x="700" y="400" on="1"/>
        <pt x="700" y="500" on="1"/>
        <pt x="800" y="500" on="1"/>
        <pt x="800" y="600" on="1"/>
        <pt x="900" y="600" on="1"/>
        <pt x="900" y="1500" on="1"/>
        <pt x="1100" y="1500" on="1"/>
        <pt x="1100" y="500" on="1"/>
        <pt x="1000" y="500" on="1"/>
        <pt x="1000" y="400" on="1"/>
        <pt x="900" y="400" on="1"/>
        <pt x="900" y="300" on="1"/>
        <pt x="800" y="300" on="1"/>
        <pt x="800" y="200" on="1"/>
        <pt x="700" y="200" on="1"/>
        <pt x="700" y="100" on="1"/>
        <pt x="500" y="100" on="1"/>
        <pt x="500" y="200" on="1"/>
        <pt x="400" y="200" on="1"/>
        <pt x="400" y="300" on="1"/>
        <pt x="300" y="300" on="1"/>
        <pt x="300" y="400" on="1"/>
        <pt x="200" y="400" on="1"/>
      </contour>
    </TTGlyph>
    <TTGlyph name="W" xMin="100" yMin="100" xMax="1100" yMax="1500">
      <contour>
        <pt x="100" y="1500" on="1"/>
        <pt x="300" y="1500" on="1"/>
        <pt x="300" y="400" on="1"/>
        <pt x="500" y="400" on="1"/>
        <pt x="500" y="900" on="1"/>
        <pt x="700" y="900" on="1"/>
        <pt x="700" y="400" on="1"/>
        <pt x="900" y="400" on="1"/>
        <pt x="900" y="1500" on="1"/>
        <pt x="1100" y="1500" on="1"/>
        <pt x="1100" y="300" on="1"/>
        <pt x="1000" y="300" on="1"/>
        <pt x="1000" y="200" on="1"/>
        <pt x="900" y="200" on="1"/>
        <pt x="900" y="100" on="1"/>
        <pt x="700" y="100" on="1"/>
        <pt x="700" y="200" on="1"/>
        <pt x="500" y="200" on="1"/>
        <pt x="500" y="100" on="1"/>
        <pt x="300" y="100" on="1"/>
        <pt x="300" y="200" on="1"/>
        <pt x="200" y="200" on="1"/>
        <pt x="200" y="300" on="1"/>
        <pt x="100" y="300" on="1"/>
      </contour>
    </TTGlyph>
    <TTGlyph name="X" xMin="100" yMin="100" xMax="1100" yMax="1500">
      <contour>
        <pt x="300" y="400" on="1"/>
        <pt x="300" y="100" on="1"/>
        <pt x="100" y="100" on="1"/>
        <pt x="100" y="500" on="1"/>
        <pt x="200" y="500" on="1"/>
        <pt x="200" y="600" on="1"/>
        <pt x="300" y="600" on="1"/>
        <pt x="300" y="700" on="1"/>
        <pt x="400" y="700" on="1"/>
        <pt x="400" y="900" on="1"/>
        <pt x="300" y="900" on="1"/>
        <pt x="300" y="1000" on="1"/>
        <pt x="200" y="1000" on="1"/>
        <pt x="200" y="1100" on="1"/>
        <pt x="100" y="1100" on="1"/>
        <pt x="100" y="1500" on="1"/>
        <pt x="300" y="1500" on="1"/>
        <pt x="300" y="1200" on="1"/>
        <pt x="400" y="1200" on="1"/>
        <pt x="400" y="1100" on="1"/>
        <pt x="500" y="1100" on="1"/>
        <pt x="500" y="1000" on="1"/>
        <pt x="700" y="1000" on="1"/>
        <pt x="700" y="1100" on="1"/>
        <pt x="800" y="1100" on="1"/>
        <pt x="800" y="1200" on="1"/>
        <pt x="900" y="1200" on="1"/>
        <pt x="900" y="1500" on="1"/>
        <pt x="1100" y="1500" on="1"/>
        <pt x="1100" y="1100" on="1"/>
        <pt x="1000" y="1100" on="1"/>
        <pt x="1000" y="1000" on="1"/>
        <pt x="900" y="1000" on="1"/>
        <pt x="900" y="900" on="1"/>
        <pt x="800" y="900" on="1"/>
        <pt x="800" y="700" on="1"/>
        <pt x="900" y="700" on="1"/>
        <pt x="900" y="600" on="1"/>
        <pt x="1000" y="600" on="1"/>
        <pt x="1000" y="500" on="1"/>
        <pt x="1100" y="500" on="1"/>
        <pt x="1100" y="100" on="1"/>
        <pt x="900" y="100" on="1"/>
        <pt x="900" y="400" on="1"/>
        <pt x="800" y="400" on="1"/>
        <pt x="800" y="500" on="1"/>
        <pt x="700" y="500" on="1"/>
        <pt x="700" y="600" on="1"/>
        <pt x="500" y="600" on="1"/>
        <pt x="500" y="500" on="1"/>
        <pt x="400" y="500" on="1"/>
        <pt x="400" y="400" on="1"/>
      </contour>
    </TTGlyph>
    <TTGlyph name="Y" xMin="100" yMin="100" xMax="1100" yMax="1500">
      <contour>
        <pt x="700" y="100" on="1"/>
        <pt x="500" y="100" on="1"/>
        <pt x="500" y="600" on="1"/>
        <pt x="400" y="600" on="1"/>
        <pt x="400" y="700" on="1"/>
        <pt x="300" y="700" on="1"/>
        <pt x="300" y="800" on="1"/>
        <pt x="200" y="800" on="1"/>
        <pt x="200" y="900" on="1"/>
        <pt x="100" y="900" on="1"/>
        <pt x="100" y="1500" on="1"/>
        <pt x="300" y="1500" on="1"/>
        <pt x="300" y="1000" on="1"/>
        <pt x="400" y="1000" on="1"/>
        <pt x="400" y="900" on="1"/>
        <pt x="500" y="900" on="1"/>
        <pt x="500" y="800" on="1"/>
        <pt x="700" y="800" on="1"/>
        <pt x="700" y="900" on="1"/>
        <pt x="800" y="900" on="1"/>
        <pt x="800" y="1000" on="1"/>
        <pt x="900" y="1000" on="1"/>
        <pt x="900" y="1500" on="1"/>
        <pt x="1100" y="1500" on="1"/>
        <pt x="1100" y="900" on="1"/>
        <pt x="1000" y="900" on="1"/>
        <pt x="1000" y="800" on="1"/>
        <pt x="900" y="800" on="1"/>
        <pt x="900" y="700" on="1"/>
        <pt x="800" y="700" on="1"/>
        <pt x="800" y="600" on="1"/>
        <pt x="700" y="600" on="1"/>
      </contour>
    </TTGlyph>
    <TTGlyph name="Yacute" xMin="100" yMin="100" xMax="1100" yMax="1700">
      <contour>
        <pt x="600" y="1600" on="1"/>
        <pt x="600" y="1700" on="1"/>
        <pt x="900" y="1700" on="1"/>
        <pt x="900" y="1600" on="1"/>
        <pt x="800" y="1600" on="1"/>
        <pt x="800" y="1500" on="1"/>
        <pt x="600" y="1500" on="1"/>
        <pt x="600" y="1400" on="1"/>
        <pt x="400" y="1400" on="1"/>
        <pt x="400" y="1500" on="1"/>
        <pt x="500" y="1500" on="1"/>
        <pt x="500" y="1600" on="1"/>
      </contour>
      <contour>
        <pt x="100" y="1300" on="1"/>
        <pt x="300" y="1300" on="1"/>
        <pt x="300" y="1000" on="1"/>
        <pt x="400" y="1000" on="1"/>
        <pt x="400" y="900" on="1"/>
        <pt x="500" y="900" on="1"/>
        <pt x="500" y="800" on="1"/>
        <pt x="700" y="800" on="1"/>
        <pt x="700" y="900" on="1"/>
        <pt x="800" y="900" on="1"/>
        <pt x="800" y="1000" on="1"/>
        <pt x="900" y="1000" on="1"/>
        <pt x="900" y="1300" on="1"/>
        <pt x="1100" y="1300" on="1"/>
        <pt x="1100" y="900" on="1"/>
        <pt x="1000" y="900" on="1"/>
        <pt x="1000" y="800" on="1"/>
        <pt x="900" y="800" on="1"/>
        <pt x="900" y="700" on="1"/>
        <pt x="800" y="700" on="1"/>
        <pt x="800" y="600" on="1"/>
        <pt x="700" y="600" on="1"/>
        <pt x="700" y="100" on="1"/>
        <pt x="500" y="100" on="1"/>
        <pt x="500" y="600" on="1"/>
        <pt x="400" y="600" on="1"/>
        <pt x="400" y="700" on="1"/>
        <pt x="300" y="700" on="1"/>
        <pt x="300" y="800" on="1"/>
        <pt x="200" y="800" on="1"/>
        <pt x="200" y="900" on="1"/>
        <pt x="100" y="900" on="1"/>
      </contour>
    </TTGlyph>
    <TTGlyph name="Z" xMin="100" yMin="100" xMax="1100" yMax="1500">
      <contour>
        <pt x="900" y="1200" on="1"/>
        <pt x="900" y="1300" on="1"/>
        <pt x="100" y="1300" on="1"/>
        <pt x="100" y="1500" on="1"/>
        <pt x="1100" y="1500" on="1"/>
        <pt x="1100" y="1100" on="1"/>
        <pt x="1000" y="1100" on="1"/>
        <pt x="1000" y="1000" on="1"/>
        <pt x="900" y="1000" on="1"/>
        <pt x="900" y="900" on="1"/>
        <pt x="800" y="900" on="1"/>
        <pt x="800" y="800" on="1"/>
        <pt x="700" y="800" on="1"/>
        <pt x="700" y="700" on="1"/>
        <pt x="600" y="700" on="1"/>
        <pt x="600" y="600" on="1"/>
        <pt x="500" y="600" on="1"/>
        <pt x="500" y="500" on="1"/>
        <pt x="400" y="500" on="1"/>
        <pt x="400" y="400" on="1"/>
        <pt x="300" y="400" on="1"/>
        <pt x="300" y="300" on="1"/>
        <pt x="1100" y="300" on="1"/>
        <pt x="1100" y="100" on="1"/>
        <pt x="100" y="100" on="1"/>
        <pt x="100" y="500" on="1"/>
        <pt x="200" y="500" on="1"/>
        <pt x="200" y="600" on="1"/>
        <pt x="300" y="600" on="1"/>
        <pt x="300" y="700" on="1"/>
        <pt x="400" y="700" on="1"/>
        <pt x="400" y="800" on="1"/>
        <pt x="500" y="800" on="1"/>
        <pt x="500" y="900" on="1"/>
        <pt x="600" y="900" on="1"/>
        <pt x="600" y="1000" on="1"/>
        <pt x="700" y="1000" on="1"/>
        <pt x="700" y="1100" on="1"/>
        <pt x="800" y="1100" on="1"/>
        <pt x="800" y="1200" on="1"/>
      </contour>
    </TTGlyph>
    <TTGlyph name="a" xMin="100" yMin="100" xMax="1100" yMax="1300">
      <contour>
        <pt x="400" y="300" on="1"/>
        <pt x="800" y="300" on="1"/>
        <pt x="800" y="400" on="1"/>
        <pt x="900" y="400" on="1"/>
        <pt x="900" y="600" on="1"/>
        <pt x="800" y="600" on="1"/>
        <pt x="800" y="700" on="1"/>
        <pt x="400" y="700" on="1"/>
        <pt x="400" y="600" on="1"/>
        <pt x="300" y="600" on="1"/>
        <pt x="300" y="400" on="1"/>
        <pt x="400" y="400" on="1"/>
      </contour>
      <contour>
        <pt x="300" y="100" on="1"/>
        <pt x="300" y="200" on="1"/>
        <pt x="200" y="200" on="1"/>
        <pt x="200" y="300" on="1"/>
        <pt x="100" y="300" on="1"/>
        <pt x="100" y="700" on="1"/>
        <pt x="200" y="700" on="1"/>
        <pt x="200" y="800" on="1"/>
        <pt x="300" y="800" on="1"/>
        <pt x="300" y="900" on="1"/>
        <pt x="800" y="900" on="1"/>
        <pt x="800" y="800" on="1"/>
        <pt x="900" y="800" on="1"/>
        <pt x="900" y="1000" on="1"/>
        <pt x="800" y="1000" on="1"/>
        <pt x="800" y="1100" on="1"/>
        <pt x="300" y="1100" on="1"/>
        <pt x="300" y="1300" on="1"/>
        <pt x="900" y="1300" on="1"/>
        <pt x="900" y="1200" on="1"/>
        <pt x="1000" y="1200" on="1"/>
        <pt x="1000" y="1100" on="1"/>
        <pt x="1100" y="1100" on="1"/>
        <pt x="1100" y="100" on="1"/>
        <pt x="900" y="100" on="1"/>
        <pt x="900" y="200" on="1"/>
        <pt x="800" y="200" on="1"/>
        <pt x="800" y="100" on="1"/>
      </contour>
    </TTGlyph>
    <TTGlyph name="aacute" xMin="100" yMin="100" xMax="1100" yMax="1500">
      <contour>
        <pt x="400" y="300" on="1"/>
        <pt x="800" y="300" on="1"/>
        <pt x="800" y="400" on="1"/>
        <pt x="900" y="400" on="1"/>
        <pt x="900" y="500" on="1"/>
        <pt x="800" y="500" on="1"/>
        <pt x="800" y="600" on="1"/>
        <pt x="400" y="600" on="1"/>
        <pt x="400" y="500" on="1"/>
        <pt x="300" y="500" on="1"/>
        <pt x="300" y="400" on="1"/>
        <pt x="400" y="400" on="1"/>
      </contour>
      <contour>
        <pt x="300" y="100" on="1"/>
        <pt x="300" y="200" on="1"/>
        <pt x="200" y="200" on="1"/>
        <pt x="200" y="300" on="1"/>
        <pt x="100" y="300" on="1"/>
        <pt x="100" y="600" on="1"/>
        <pt x="200" y="600" on="1"/>
        <pt x="200" y="700" on="1"/>
        <pt x="300" y="700" on="1"/>
        <pt x="300" y="800" on="1"/>
        <pt x="800" y="800" on="1"/>
        <pt x="800" y="700" on="1"/>
        <pt x="900" y="700" on="1"/>
        <pt x="900" y="900" on="1"/>
        <pt x="300" y="900" on="1"/>
        <pt x="300" y="1100" on="1"/>
        <pt x="900" y="1100" on="1"/>
        <pt x="900" y="1000" on="1"/>
        <pt x="1000" y="1000" on="1"/>
        <pt x="1000" y="900" on="1"/>
        <pt x="1100" y="900" on="1"/>
        <pt x="1100" y="100" on="1"/>
        <pt x="900" y="100" on="1"/>
        <pt x="900" y="200" on="1"/>
        <pt x="800" y="200" on="1"/>
        <pt x="800" y="100" on="1"/>
      </contour>
      <contour>
        <pt x="600" y="1400" on="1"/>
        <pt x="600" y="1500" on="1"/>
        <pt x="900" y="1500" on="1"/>
        <pt x="900" y="1400" on="1"/>
        <pt x="800" y="1400" on="1"/>
        <pt x="800" y="1300" on="1"/>
        <pt x="600" y="1300" on="1"/>
        <pt x="600" y="1200" on="1"/>
        <pt x="400" y="1200" on="1"/>
        <pt x="400" y="1300" on="1"/>
        <pt x="500" y="1300" on="1"/>
        <pt x="500" y="1400" on="1"/>
      </contour>
    </TTGlyph>
    <TTGlyph name="acircumflex" xMin="100" yMin="100" xMax="1100" yMax="1500">
      <contour>
        <pt x="400" y="300" on="1"/>
        <pt x="800" y="300" on="1"/>
        <pt x="800" y="400" on="1"/>
        <pt x="900" y="400" on="1"/>
        <pt x="900" y="500" on="1"/>
        <pt x="800" y="500" on="1"/>
        <pt x="800" y="600" on="1"/>
        <pt x="400" y="600" on="1"/>
        <pt x="400" y="500" on="1"/>
        <pt x="300" y="500" on="1"/>
        <pt x="300" y="400" on="1"/>
        <pt x="400" y="400" on="1"/>
      </contour>
      <contour>
        <pt x="300" y="100" on="1"/>
        <pt x="300" y="200" on="1"/>
        <pt x="200" y="200" on="1"/>
        <pt x="200" y="300" on="1"/>
        <pt x="100" y="300" on="1"/>
        <pt x="100" y="600" on="1"/>
        <pt x="200" y="600" on="1"/>
        <pt x="200" y="700" on="1"/>
        <pt x="300" y="700" on="1"/>
        <pt x="300" y="800" on="1"/>
        <pt x="800" y="800" on="1"/>
        <pt x="800" y="700" on="1"/>
        <pt x="900" y="700" on="1"/>
        <pt x="900" y="900" on="1"/>
        <pt x="300" y="900" on="1"/>
        <pt x="300" y="1100" on="1"/>
        <pt x="900" y="1100" on="1"/>
        <pt x="900" y="1000" on="1"/>
        <pt x="1000" y="1000" on="1"/>
        <pt x="1000" y="900" on="1"/>
        <pt x="1100" y="900" on="1"/>
        <pt x="1100" y="100" on="1"/>
        <pt x="900" y="100" on="1"/>
        <pt x="900" y="200" on="1"/>
        <pt x="800" y="200" on="1"/>
        <pt x="800" y="100" on="1"/>
      </contour>
      <contour>
        <pt x="700" y="1500" on="1"/>
        <pt x="700" y="1400" on="1"/>
        <pt x="800" y="1400" on="1"/>
        <pt x="800" y="1300" on="1"/>
        <pt x="900" y="1300" on="1"/>
        <pt x="900" y="1200" on="1"/>
        <pt x="700" y="1200" on="1"/>
        <pt x="700" y="1300" on="1"/>
        <pt x="500" y="1300" on="1"/>
        <pt x="500" y="1200" on="1"/>
        <pt x="300" y="1200" on="1"/>
        <pt x="300" y="1300" on="1"/>
        <pt x="400" y="1300" on="1"/>
        <pt x="400" y="1400" on="1"/>
        <pt x="500" y="1400" on="1"/>
        <pt x="500" y="1500" on="1"/>
      </contour>
    </TTGlyph>
    <TTGlyph name="acute" xMin="400" yMin="1200" xMax="900" yMax="1500">
      <contour>
        <pt x="900" y="1500" on="1"/>
        <pt x="900" y="1400" on="1"/>
        <pt x="800" y="1400" on="1"/>
        <pt x="800" y="1300" on="1"/>
        <pt x="600" y="1300" on="1"/>
        <pt x="600" y="1200" on="1"/>
        <pt x="400" y="1200" on="1"/>
        <pt x="400" y="1300" on="1"/>
        <pt x="500" y="1300" on="1"/>
        <pt x="500" y="1400" on="1"/>
        <pt x="600" y="1400" on="1"/>
        <pt x="600" y="1500" on="1"/>
      </contour>
    </TTGlyph>
    <TTGlyph name="adieresis" xMin="100" yMin="100" xMax="1100" yMax="1500">
      <contour>
        <pt x="300" y="1300" on="1"/>
        <pt x="300" y="1500" on="1"/>
        <pt x="500" y="1500" on="1"/>
        <pt x="500" y="1300" on="1"/>
      </contour>
      <contour>
        <pt x="700" y="1500" on="1"/>
        <pt x="900" y="1500" on="1"/>
        <pt x="900" y="1300" on="1"/>
        <pt x="700" y="1300" on="1"/>
      </contour>
      <contour>
        <pt x="400" y="300" on="1"/>
        <pt x="800" y="300" on="1"/>
        <pt x="800" y="400" on="1"/>
        <pt x="900" y="400" on="1"/>
        <pt x="900" y="500" on="1"/>
        <pt x="800" y="500" on="1"/>
        <pt x="800" y="600" on="1"/>
        <pt x="400" y="600" on="1"/>
        <pt x="400" y="500" on="1"/>
        <pt x="300" y="500" on="1"/>
        <pt x="300" y="400" on="1"/>
        <pt x="400" y="400" on="1"/>
      </contour>
      <contour>
        <pt x="300" y="100" on="1"/>
        <pt x="300" y="200" on="1"/>
        <pt x="200" y="200" on="1"/>
        <pt x="200" y="300" on="1"/>
        <pt x="100" y="300" on="1"/>
        <pt x="100" y="600" on="1"/>
        <pt x="200" y="600" on="1"/>
        <pt x="200" y="700" on="1"/>
        <pt x="300" y="700" on="1"/>
        <pt x="300" y="800" on="1"/>
        <pt x="800" y="800" on="1"/>
        <pt x="800" y="700" on="1"/>
        <pt x="900" y="700" on="1"/>
        <pt x="900" y="900" on="1"/>
        <pt x="300" y="900" on="1"/>
        <pt x="300" y="1100" on="1"/>
        <pt x="900" y="1100" on="1"/>
        <pt x="900" y="1000" on="1"/>
        <pt x="1000" y="1000" on="1"/>
        <pt x="1000" y="900" on="1"/>
        <pt x="1100" y="900" on="1"/>
        <pt x="1100" y="100" on="1"/>
        <pt x="900" y="100" on="1"/>
        <pt x="900" y="200" on="1"/>
        <pt x="800" y="200" on="1"/>
        <pt x="800" y="100" on="1"/>
      </contour>
    </TTGlyph>
    <TTGlyph name="ae" xMin="100" yMin="100" xMax="1100" yMax="1200">
      <contour>
        <pt x="700" y="800" on="1"/>
        <pt x="900" y="800" on="1"/>
        <pt x="900" y="1000" on="1"/>
        <pt x="700" y="1000" on="1"/>
      </contour>
      <contour>
        <pt x="500" y="600" on="1"/>
        <pt x="300" y="600" on="1"/>
        <pt x="300" y="300" on="1"/>
        <pt x="500" y="300" on="1"/>
      </contour>
      <contour>
        <pt x="200" y="100" on="1"/>
        <pt x="200" y="200" on="1"/>
        <pt x="100" y="200" on="1"/>
        <pt x="100" y="700" on="1"/>
        <pt x="200" y="700" on="1"/>
        <pt x="200" y="800" on="1"/>
        <pt x="500" y="800" on="1"/>
        <pt x="500" y="1000" on="1"/>
        <pt x="100" y="1000" on="1"/>
        <pt x="100" y="1200" on="1"/>
        <pt x="500" y="1200" on="1"/>
        <pt x="500" y="1100" on="1"/>
        <pt x="700" y="1100" on="1"/>
        <pt x="700" y="1200" on="1"/>
        <pt x="1000" y="1200" on="1"/>
        <pt x="1000" y="1100" on="1"/>
        <pt x="1100" y="1100" on="1"/>
        <pt x="1100" y="600" on="1"/>
        <pt x="700" y="600" on="1"/>
        <pt x="700" y="300" on="1"/>
        <pt x="1000" y="300" on="1"/>
        <pt x="1000" y="100" on="1"/>
        <pt x="700" y="100" on="1"/>
        <pt x="700" y="200" on="1"/>
        <pt x="600" y="200" on="1"/>
        <pt x="600" y="100" on="1"/>
      </contour>
    </TTGlyph>
    <TTGlyph name="agrave" xMin="100" yMin="100" xMax="1100" yMax="1500">
      <contour>
        <pt x="400" y="300" on="1"/>
        <pt x="800" y="300" on="1"/>
        <pt x="800" y="400" on="1"/>
        <pt x="900" y="400" on="1"/>
        <pt x="900" y="500" on="1"/>
        <pt x="800" y="500" on="1"/>
        <pt x="800" y="600" on="1"/>
        <pt x="400" y="600" on="1"/>
        <pt x="400" y="500" on="1"/>
        <pt x="300" y="500" on="1"/>
        <pt x="300" y="400" on="1"/>
        <pt x="400" y="400" on="1"/>
      </contour>
      <contour>
        <pt x="300" y="100" on="1"/>
        <pt x="300" y="200" on="1"/>
        <pt x="200" y="200" on="1"/>
        <pt x="200" y="300" on="1"/>
        <pt x="100" y="300" on="1"/>
        <pt x="100" y="600" on="1"/>
        <pt x="200" y="600" on="1"/>
        <pt x="200" y="700" on="1"/>
        <pt x="300" y="700" on="1"/>
        <pt x="300" y="800" on="1"/>
        <pt x="800" y="800" on="1"/>
        <pt x="800" y="700" on="1"/>
        <pt x="900" y="700" on="1"/>
        <pt x="900" y="900" on="1"/>
        <pt x="300" y="900" on="1"/>
        <pt x="300" y="1100" on="1"/>
        <pt x="900" y="1100" on="1"/>
        <pt x="900" y="1000" on="1"/>
        <pt x="1000" y="1000" on="1"/>
        <pt x="1000" y="900" on="1"/>
        <pt x="1100" y="900" on="1"/>
        <pt x="1100" y="100" on="1"/>
        <pt x="900" y="100" on="1"/>
        <pt x="900" y="200" on="1"/>
        <pt x="800" y="200" on="1"/>
        <pt x="800" y="100" on="1"/>
      </contour>
      <contour>
        <pt x="600" y="1500" on="1"/>
        <pt x="600" y="1400" on="1"/>
        <pt x="700" y="1400" on="1"/>
        <pt x="700" y="1300" on="1"/>
        <pt x="800" y="1300" on="1"/>
        <pt x="800" y="1200" on="1"/>
        <pt x="600" y="1200" on="1"/>
        <pt x="600" y="1300" on="1"/>
        <pt x="400" y="1300" on="1"/>
        <pt x="400" y="1400" on="1"/>
        <pt x="300" y="1400" on="1"/>
        <pt x="300" y="1500" on="1"/>
      </contour>
    </TTGlyph>
    <TTGlyph name="ampersand" xMin="100" yMin="100" xMax="1100" yMax="1700">
      <contour>
        <pt x="700" y="1500" on="1"/>
        <pt x="400" y="1500" on="1"/>
        <pt x="400" y="1100" on="1"/>
        <pt x="500" y="1100" on="1"/>
        <pt x="500" y="1000" on="1"/>
        <pt x="600" y="1000" on="1"/>
        <pt x="600" y="1100" on="1"/>
        <pt x="700" y="1100" on="1"/>
      </contour>
      <contour>
        <pt x="700" y="500" on="1"/>
        <pt x="600" y="500" on="1"/>
        <pt x="600" y="600" on="1"/>
        <pt x="500" y="600" on="1"/>
        <pt x="500" y="700" on="1"/>
        <pt x="300" y="700" on="1"/>
        <pt x="300" y="400" on="1"/>
        <pt x="400" y="400" on="1"/>
        <pt x="400" y="300" on="1"/>
        <pt x="700" y="300" on="1"/>
      </contour>
      <contour>
        <pt x="700" y="700" on="1"/>
        <pt x="800" y="700" on="1"/>
        <pt x="800" y="600" on="1"/>
        <pt x="900" y="600" on="1"/>
        <pt x="900" y="700" on="1"/>
        <pt x="1100" y="700" on="1"/>
        <pt x="1100" y="500" on="1"/>
        <pt x="1000" y="500" on="1"/>
        <pt x="1000" y="300" on="1"/>
        <pt x="1100" y="300" on="1"/>
        <pt x="1100" y="100" on="1"/>
        <pt x="900" y="100" on="1"/>
        <pt x="900" y="200" on="1"/>
        <pt x="800" y="200" on="1"/>
        <pt x="800" y="100" on="1"/>
        <pt x="300" y="100" on="1"/>
        <pt x="300" y="200" on="1"/>
        <pt x="200" y="200" on="1"/>
        <pt x="200" y="300" on="1"/>
        <pt x="100" y="300" on="1"/>
        <pt x="100" y="800" on="1"/>
        <pt x="200" y="800" on="1"/>
        <pt x="200" y="900" on="1"/>
        <pt x="300" y="900" on="1"/>
        <pt x="300" y="1100" on="1"/>
        <pt x="200" y="1100" on="1"/>
        <pt x="200" y="1500" on="1"/>
        <pt x="300" y="1500" on="1"/>
        <pt x="300" y="1600" on="1"/>
        <pt x="400" y="1600" on="1"/>
        <pt x="400" y="1700" on="1"/>
        <pt x="700" y="1700" on="1"/>
        <pt x="700" y="1600" on="1"/>
        <pt x="800" y="1600" on="1"/>
        <pt x="800" y="1500" on="1"/>
        <pt x="900" y="1500" on="1"/>
        <pt x="900" y="1100" on="1"/>
        <pt x="800" y="1100" on="1"/>
        <pt x="800" y="900" on="1"/>
        <pt x="700" y="900" on="1"/>
      </contour>
    </TTGlyph>
    <TTGlyph name="aring" xMin="100" yMin="100" xMax="1100" yMax="1500">
      <contour>
        <pt x="400" y="300" on="1"/>
        <pt x="800" y="300" on="1"/>
        <pt x="800" y="400" on="1"/>
        <pt x="900" y="400" on="1"/>
        <pt x="900" y="500" on="1"/>
        <pt x="800" y="500" on="1"/>
        <pt x="800" y="600" on="1"/>
        <pt x="400" y="600" on="1"/>
        <pt x="400" y="500" on="1"/>
        <pt x="300" y="500" on="1"/>
        <pt x="300" y="400" on="1"/>
        <pt x="400" y="400" on="1"/>
      </contour>
      <contour>
        <pt x="300" y="100" on="1"/>
        <pt x="300" y="200" on="1"/>
        <pt x="200" y="200" on="1"/>
        <pt x="200" y="300" on="1"/>
        <pt x="100" y="300" on="1"/>
        <pt x="100" y="600" on="1"/>
        <pt x="200" y="600" on="1"/>
        <pt x="200" y="700" on="1"/>
        <pt x="300" y="700" on="1"/>
        <pt x="300" y="800" on="1"/>
        <pt x="800" y="800" on="1"/>
        <pt x="800" y="700" on="1"/>
        <pt x="900" y="700" on="1"/>
        <pt x="900" y="900" on="1"/>
        <pt x="300" y="900" on="1"/>
        <pt x="300" y="1100" on="1"/>
        <pt x="900" y="1100" on="1"/>
        <pt x="900" y="1000" on="1"/>
        <pt x="1000" y="1000" on="1"/>
        <pt x="1000" y="900" on="1"/>
        <pt x="1100" y="900" on="1"/>
        <pt x="1100" y="100" on="1"/>
        <pt x="900" y="100" on="1"/>
        <pt x="900" y="200" on="1"/>
        <pt x="800" y="200" on="1"/>
        <pt x="800" y="100" on="1"/>
      </contour>
      <contour>
        <pt x="400" y="1400" on="1"/>
        <pt x="500" y="1400" on="1"/>
        <pt x="500" y="1200" on="1"/>
        <pt x="400" y="1200" on="1"/>
      </contour>
      <contour>
        <pt x="500" y="1100" on="1"/>
        <pt x="500" y="1200" on="1"/>
        <pt x="700" y="1200" on="1"/>
        <pt x="700" y="1100" on="1"/>
      </contour>
      <contour>
        <pt x="700" y="1500" on="1"/>
        <pt x="700" y="1400" on="1"/>
        <pt x="500" y="1400" on="1"/>
        <pt x="500" y="1500" on="1"/>
      </contour>
      <contour>
        <pt x="800" y="1200" on="1"/>
        <pt x="700" y="1200" on="1"/>
        <pt x="700" y="1400" on="1"/>
        <pt x="800" y="1400" on="1"/>
      </contour>
    </TTGlyph>
    <TTGlyph name="arrowboth" xMin="100" yMin="200" xMax="1100" yMax="1200">
      <contour>
        <pt x="100" y="900" on="1"/>
        <pt x="600" y="900" on="1"/>
        <pt x="600" y="1200" on="1"/>
        <pt x="700" y="1200" on="1"/>
        <pt x="700" y="1100" on="1"/>
        <pt x="800" y="1100" on="1"/>
        <pt x="800" y="1000" on="1"/>
        <pt x="900" y="1000" on="1"/>
        <pt x="900" y="900" on="1"/>
        <pt x="1000" y="900" on="1"/>
        <pt x="1000" y="800" on="1"/>
        <pt x="1100" y="800" on="1"/>
        <pt x="1100" y="600" on="1"/>
        <pt x="1000" y="600" on="1"/>
        <pt x="1000" y="500" on="1"/>
        <pt x="900" y="500" on="1"/>
        <pt x="900" y="400" on="1"/>
        <pt x="800" y="400" on="1"/>
        <pt x="800" y="300" on="1"/>
        <pt x="700" y="300" on="1"/>
        <pt x="700" y="200" on="1"/>
        <pt x="600" y="200" on="1"/>
        <pt x="600" y="500" on="1"/>
        <pt x="100" y="500" on="1"/>
      </contour>
    </TTGlyph>
    <TTGlyph name="arrowdown" xMin="100" yMin="300" xMax="1100" yMax="1300">
      <contour>
        <pt x="900" y="1100" on="1"/>
        <pt x="900" y="1300" on="1"/>
        <pt x="1100" y="1300" on="1"/>
        <pt x="1100" y="1100" on="1"/>
        <pt x="1000" y="1100" on="1"/>
        <pt x="1000" y="900" on="1"/>
        <pt x="900" y="900" on="1"/>
        <pt x="900" y="700" on="1"/>
        <pt x="800" y="700" on="1"/>
        <pt x="800" y="500" on="1"/>
        <pt x="700" y="500" on="1"/>
        <pt x="700" y="300" on="1"/>
        <pt x="500" y="300" on="1"/>
        <pt x="500" y="500" on="1"/>
        <pt x="400" y="500" on="1"/>
        <pt x="400" y="700" on="1"/>
        <pt x="300" y="700" on="1"/>
        <pt x="300" y="900" on="1"/>
        <pt x="200" y="900" on="1"/>
        <pt x="200" y="1100" on="1"/>
        <pt x="100" y="1100" on="1"/>
        <pt x="100" y="1300" on="1"/>
        <pt x="300" y="1300" on="1"/>
        <pt x="300" y="1100" on="1"/>
        <pt x="400" y="1100" on="1"/>
        <pt x="400" y="900" on="1"/>
        <pt x="500" y="900" on="1"/>
        <pt x="500" y="700" on="1"/>
        <pt x="700" y="700" on="1"/>
        <pt x="700" y="900" on="1"/>
        <pt x="800" y="900" on="1"/>
        <pt x="800" y="1100" on="1"/>
      </contour>
    </TTGlyph>
    <TTGlyph name="arrowleft" xMin="100" yMin="300" xMax="1100" yMax="1300">
      <contour>
        <pt x="500" y="1200" on="1"/>
        <pt x="500" y="1300" on="1"/>
        <pt x="700" y="1300" on="1"/>
        <pt x="700" y="1200" on="1"/>
        <pt x="600" y="1200" on="1"/>
        <pt x="600" y="1100" on="1"/>
        <pt x="500" y="1100" on="1"/>
        <pt x="500" y="1000" on="1"/>
        <pt x="400" y="1000" on="1"/>
        <pt x="400" y="900" on="1"/>
        <pt x="1100" y="900" on="1"/>
        <pt x="1100" y="700" on="1"/>
        <pt x="400" y="700" on="1"/>
        <pt x="400" y="600" on="1"/>
        <pt x="500" y="600" on="1"/>
        <pt x="500" y="500" on="1"/>
        <pt x="600" y="500" on="1"/>
        <pt x="600" y="400" on="1"/>
        <pt x="700" y="400" on="1"/>
        <pt x="700" y="300" on="1"/>
        <pt x="500" y="300" on="1"/>
        <pt x="500" y="400" on="1"/>
        <pt x="400" y="400" on="1"/>
        <pt x="400" y="500" on="1"/>
        <pt x="300" y="500" on="1"/>
        <pt x="300" y="600" on="1"/>
        <pt x="200" y="600" on="1"/>
        <pt x="200" y="700" on="1"/>
        <pt x="100" y="700" on="1"/>
        <pt x="100" y="900" on="1"/>
        <pt x="200" y="900" on="1"/>
        <pt x="200" y="1000" on="1"/>
        <pt x="300" y="1000" on="1"/>
        <pt x="300" y="1100" on="1"/>
        <pt x="400" y="1100" on="1"/>
        <pt x="400" y="1200" on="1"/>
      </contour>
    </TTGlyph>
    <TTGlyph name="arrowright" xMin="100" yMin="300" xMax="1100" yMax="1300">
      <contour>
        <pt x="800" y="1200" on="1"/>
        <pt x="800" y="1100" on="1"/>
        <pt x="900" y="1100" on="1"/>
        <pt x="900" y="1000" on="1"/>
        <pt x="1000" y="1000" on="1"/>
        <pt x="1000" y="900" on="1"/>
        <pt x="1100" y="900" on="1"/>
        <pt x="1100" y="700" on="1"/>
        <pt x="1000" y="700" on="1"/>
        <pt x="1000" y="600" on="1"/>
        <pt x="900" y="600" on="1"/>
        <pt x="900" y="500" on="1"/>
        <pt x="800" y="500" on="1"/>
        <pt x="800" y="400" on="1"/>
        <pt x="700" y="400" on="1"/>
        <pt x="700" y="300" on="1"/>
        <pt x="500" y="300" on="1"/>
        <pt x="500" y="400" on="1"/>
        <pt x="600" y="400" on="1"/>
        <pt x="600" y="500" on="1"/>
        <pt x="700" y="500" on="1"/>
        <pt x="700" y="600" on="1"/>
        <pt x="800" y="600" on="1"/>
        <pt x="800" y="700" on="1"/>
        <pt x="100" y="700" on="1"/>
        <pt x="100" y="900" on="1"/>
        <pt x="800" y="900" on="1"/>
        <pt x="800" y="1000" on="1"/>
        <pt x="700" y="1000" on="1"/>
        <pt x="700" y="1100" on="1"/>
        <pt x="600" y="1100" on="1"/>
        <pt x="600" y="1200" on="1"/>
        <pt x="500" y="1200" on="1"/>
        <pt x="500" y="1300" on="1"/>
        <pt x="700" y="1300" on="1"/>
        <pt x="700" y="1200" on="1"/>
      </contour>
    </TTGlyph>
    <TTGlyph name="arrowup" xMin="100" yMin="300" xMax="1100" yMax="1300">
      <contour>
        <pt x="300" y="500" on="1"/>
        <pt x="300" y="300" on="1"/>
        <pt x="100" y="300" on="1"/>
        <pt x="100" y="500" on="1"/>
        <pt x="200" y="500" on="1"/>
        <pt x="200" y="700" on="1"/>
        <pt x="300" y="700" on="1"/>
        <pt x="300" y="900" on="1"/>
        <pt x="400" y="900" on="1"/>
        <pt x="400" y="1100" on="1"/>
        <pt x="500" y="1100" on="1"/>
        <pt x="500" y="1300" on="1"/>
        <pt x="700" y="1300" on="1"/>
        <pt x="700" y="1100" on="1"/>
        <pt x="800" y="1100" on="1"/>
        <pt x="800" y="900" on="1"/>
        <pt x="900" y="900" on="1"/>
        <pt x="900" y="700" on="1"/>
        <pt x="1000" y="700" on="1"/>
        <pt x="1000" y="500" on="1"/>
        <pt x="1100" y="500" on="1"/>
        <pt x="1100" y="300" on="1"/>
        <pt x="900" y="300" on="1"/>
        <pt x="900" y="500" on="1"/>
        <pt x="800" y="500" on="1"/>
        <pt x="800" y="700" on="1"/>
        <pt x="700" y="700" on="1"/>
        <pt x="700" y="900" on="1"/>
        <pt x="500" y="900" on="1"/>
        <pt x="500" y="700" on="1"/>
        <pt x="400" y="700" on="1"/>
        <pt x="400" y="500" on="1"/>
      </contour>
    </TTGlyph>
    <TTGlyph name="asciicircum" xMin="100" yMin="1000" xMax="1100" yMax="1500">
      <contour>
        <pt x="700" y="1500" on="1"/>
        <pt x="700" y="1400" on="1"/>
        <pt x="800" y="1400" on="1"/>
        <pt x="800" y="1300" on="1"/>
        <pt x="900" y="1300" on="1"/>
        <pt x="900" y="1200" on="1"/>
        <pt x="1000" y="1200" on="1"/>
        <pt x="1000" y="1100" on="1"/>
        <pt x="1100" y="1100" on="1"/>
        <pt x="1100" y="1000" on="1"/>
        <pt x="800" y="1000" on="1"/>
        <pt x="800" y="1100" on="1"/>
        <pt x="700" y="1100" on="1"/>
        <pt x="700" y="1200" on="1"/>
        <pt x="500" y="1200" on="1"/>
        <pt x="500" y="1100" on="1"/>
        <pt x="400" y="1100" on="1"/>
        <pt x="400" y="1000" on="1"/>
        <pt x="100" y="1000" on="1"/>
        <pt x="100" y="1100" on="1"/>
        <pt x="200" y="1100" on="1"/>
        <pt x="200" y="1200" on="1"/>
        <pt x="300" y="1200" on="1"/>
        <pt x="300" y="1300" on="1"/>
        <pt x="400" y="1300" on="1"/>
        <pt x="400" y="1400" on="1"/>
        <pt x="500" y="1400" on="1"/>
        <pt x="500" y="1500" on="1"/>
      </contour>
    </TTGlyph>
    <TTGlyph name="asciitilde" xMin="100" yMin="600" xMax="1100" yMax="1000">
      <contour>
        <pt x="300" y="900" on="1"/>
        <pt x="300" y="1000" on="1"/>
        <pt x="600" y="1000" on="1"/>
        <pt x="600" y="900" on="1"/>
        <pt x="700" y="900" on="1"/>
        <pt x="700" y="800" on="1"/>
        <pt x="900" y="800" on="1"/>
        <pt x="900" y="900" on="1"/>
        <pt x="1000" y="900" on="1"/>
        <pt x="1000" y="1000" on="1"/>
        <pt x="1100" y="1000" on="1"/>
        <pt x="1100" y="800" on="1"/>
        <pt x="1000" y="800" on="1"/>
        <pt x="1000" y="700" on="1"/>
        <pt x="900" y="700" on="1"/>
        <pt x="900" y="600" on="1"/>
        <pt x="600" y="600" on="1"/>
        <pt x="600" y="700" on="1"/>
        <pt x="500" y="700" on="1"/>
        <pt x="500" y="800" on="1"/>
        <pt x="300" y="800" on="1"/>
        <pt x="300" y="700" on="1"/>
        <pt x="200" y="700" on="1"/>
        <pt x="200" y="600" on="1"/>
        <pt x="100" y="600" on="1"/>
        <pt x="100" y="800" on="1"/>
        <pt x="200" y="800" on="1"/>
        <pt x="200" y="900" on="1"/>
      </contour>
    </TTGlyph>
    <TTGlyph name="asterisk" xMin="200" yMin="700" xMax="1000" yMax="1600">
      <contour>
        <pt x="300" y="900" on="1"/>
        <pt x="300" y="800" on="1"/>
        <pt x="200" y="800" on="1"/>
        <pt x="200" y="1000" on="1"/>
        <pt x="300" y="1000" on="1"/>
        <pt x="300" y="1100" on="1"/>
        <pt x="400" y="1100" on="1"/>
        <pt x="400" y="1200" on="1"/>
        <pt x="300" y="1200" on="1"/>
        <pt x="300" y="1300" on="1"/>
        <pt x="200" y="1300" on="1"/>
        <pt x="200" y="1500" on="1"/>
        <pt x="300" y="1500" on="1"/>
        <pt x="300" y="1400" on="1"/>
        <pt x="400" y="1400" on="1"/>
        <pt x="400" y="1300" on="1"/>
        <pt x="500" y="1300" on="1"/>
        <pt x="500" y="1600" on="1"/>
        <pt x="700" y="1600" on="1"/>
        <pt x="700" y="1300" on="1"/>
        <pt x="800" y="1300" on="1"/>
        <pt x="800" y="1400" on="1"/>
        <pt x="900" y="1400" on="1"/>
        <pt x="900" y="1500" on="1"/>
        <pt x="1000" y="1500" on="1"/>
        <pt x="1000" y="1300" on="1"/>
        <pt x="900" y="1300" on="1"/>
        <pt x="900" y="1200" on="1"/>
        <pt x="800" y="1200" on="1"/>
        <pt x="800" y="1100" on="1"/>
        <pt x="900" y="1100" on="1"/>
        <pt x="900" y="1000" on="1"/>
        <pt x="1000" y="1000" on="1"/>
        <pt x="1000" y="800" on="1"/>
        <pt x="900" y="800" on="1"/>
        <pt x="900" y="900" on="1"/>
        <pt x="800" y="900" on="1"/>
        <pt x="800" y="1000" on="1"/>
        <pt x="700" y="1000" on="1"/>
        <pt x="700" y="700" on="1"/>
        <pt x="500" y="700" on="1"/>
        <pt x="500" y="1000" on="1"/>
        <pt x="400" y="1000" on="1"/>
        <pt x="400" y="900" on="1"/>
      </contour>
    </TTGlyph>
    <TTGlyph name="at" xMin="100" yMin="200" xMax="1100" yMax="1400">
      <contour>
        <pt x="600" y="1000" on="1"/>
        <pt x="500" y="1000" on="1"/>
        <pt x="500" y="600" on="1"/>
        <pt x="600" y="600" on="1"/>
      </contour>
      <contour>
        <pt x="800" y="500" on="1"/>
        <pt x="800" y="600" on="1"/>
        <pt x="900" y="600" on="1"/>
        <pt x="900" y="700" on="1"/>
        <pt x="1000" y="700" on="1"/>
        <pt x="1000" y="1100" on="1"/>
        <pt x="900" y="1100" on="1"/>
        <pt x="900" y="1200" on="1"/>
        <pt x="800" y="1200" on="1"/>
        <pt x="800" y="1300" on="1"/>
        <pt x="400" y="1300" on="1"/>
        <pt x="400" y="1200" on="1"/>
        <pt x="300" y="1200" on="1"/>
        <pt x="300" y="1100" on="1"/>
        <pt x="200" y="1100" on="1"/>
        <pt x="200" y="500" on="1"/>
        <pt x="300" y="500" on="1"/>
        <pt x="300" y="400" on="1"/>
        <pt x="400" y="400" on="1"/>
        <pt x="400" y="300" on="1"/>
        <pt x="800" y="300" on="1"/>
        <pt x="800" y="400" on="1"/>
        <pt x="1000" y="400" on="1"/>
        <pt x="1000" y="300" on="1"/>
        <pt x="900" y="300" on="1"/>
        <pt x="900" y="200" on="1"/>
        <pt x="300" y="200" on="1"/>
        <pt x="300" y="300" on="1"/>
        <pt x="200" y="300" on="1"/>
        <pt x="200" y="400" on="1"/>
        <pt x="100" y="400" on="1"/>
        <pt x="100" y="1200" on="1"/>
        <pt x="200" y="1200" on="1"/>
        <pt x="200" y="1300" on="1"/>
        <pt x="300" y="1300" on="1"/>
        <pt x="300" y="1400" on="1"/>
        <pt x="900" y="1400" on="1"/>
        <pt x="900" y="1300" on="1"/>
        <pt x="1000" y="1300" on="1"/>
        <pt x="1000" y="1200" on="1"/>
        <pt x="1100" y="1200" on="1"/>
        <pt x="1100" y="600" on="1"/>
        <pt x="1000" y="600" on="1"/>
        <pt x="1000" y="500" on="1"/>
      </contour>
      <contour>
        <pt x="800" y="600" on="1"/>
        <pt x="700" y="600" on="1"/>
        <pt x="700" y="500" on="1"/>
        <pt x="400" y="500" on="1"/>
        <pt x="400" y="600" on="1"/>
        <pt x="300" y="600" on="1"/>
        <pt x="300" y="1000" on="1"/>
        <pt x="400" y="1000" on="1"/>
        <pt x="400" y="1100" on="1"/>
        <pt x="600" y="1100" on="1"/>
        <pt x="600" y="1000" on="1"/>
        <pt x="700" y="1000" on="1"/>
        <pt x="700" y="1100" on="1"/>
        <pt x="800" y="1100" on="1"/>
      </contour>
    </TTGlyph>
    <TTGlyph name="atilde" xMin="100" yMin="100" xMax="1100" yMax="1500">
      <contour>
        <pt x="400" y="300" on="1"/>
        <pt x="800" y="300" on="1"/>
        <pt x="800" y="400" on="1"/>
        <pt x="900" y="400" on="1"/>
        <pt x="900" y="500" on="1"/>
        <pt x="800" y="500" on="1"/>
        <pt x="800" y="600" on="1"/>
        <pt x="400" y="600" on="1"/>
        <pt x="400" y="500" on="1"/>
        <pt x="300" y="500" on="1"/>
        <pt x="300" y="400" on="1"/>
        <pt x="400" y="400" on="1"/>
      </contour>
      <contour>
        <pt x="300" y="100" on="1"/>
        <pt x="300" y="200" on="1"/>
        <pt x="200" y="200" on="1"/>
        <pt x="200" y="300" on="1"/>
        <pt x="100" y="300" on="1"/>
        <pt x="100" y="600" on="1"/>
        <pt x="200" y="600" on="1"/>
        <pt x="200" y="700" on="1"/>
        <pt x="300" y="700" on="1"/>
        <pt x="300" y="800" on="1"/>
        <pt x="800" y="800" on="1"/>
        <pt x="800" y="700" on="1"/>
        <pt x="900" y="700" on="1"/>
        <pt x="900" y="900" on="1"/>
        <pt x="300" y="900" on="1"/>
        <pt x="300" y="1100" on="1"/>
        <pt x="900" y="1100" on="1"/>
        <pt x="900" y="1000" on="1"/>
        <pt x="1000" y="1000" on="1"/>
        <pt x="1000" y="900" on="1"/>
        <pt x="1100" y="900" on="1"/>
        <pt x="1100" y="100" on="1"/>
        <pt x="900" y="100" on="1"/>
        <pt x="900" y="200" on="1"/>
        <pt x="800" y="200" on="1"/>
        <pt x="800" y="100" on="1"/>
      </contour>
      <contour>
        <pt x="800" y="1300" on="1"/>
        <pt x="800" y="1200" on="1"/>
        <pt x="600" y="1200" on="1"/>
        <pt x="600" y="1300" on="1"/>
        <pt x="400" y="1300" on="1"/>
        <pt x="400" y="1200" on="1"/>
        <pt x="300" y="1200" on="1"/>
        <pt x="300" y="1400" on="1"/>
        <pt x="400" y="1400" on="1"/>
        <pt x="400" y="1500" on="1"/>
        <pt x="600" y="1500" on="1"/>
        <pt x="600" y="1400" on="1"/>
        <pt x="800" y="1400" on="1"/>
        <pt x="800" y="1500" on="1"/>
        <pt x="900" y="1500" on="1"/>
        <pt x="900" y="1300" on="1"/>
      </contour>
    </TTGlyph>
    <TTGlyph name="b" xMin="100" yMin="100" xMax="1100" yMax="1500">
      <contour>
        <pt x="600" y="300" on="1"/>
        <pt x="700" y="300" on="1"/>
        <pt x="700" y="400" on="1"/>
        <pt x="800" y="400" on="1"/>
        <pt x="800" y="500" on="1"/>
        <pt x="900" y="500" on="1"/>
        <pt x="900" y="800" on="1"/>
        <pt x="800" y="800" on="1"/>
        <pt x="800" y="900" on="1"/>
        <pt x="700" y="900" on="1"/>
        <pt x="700" y="1000" on="1"/>
        <pt x="600" y="1000" on="1"/>
        <pt x="600" y="900" on="1"/>
        <pt x="500" y="900" on="1"/>
        <pt x="500" y="800" on="1"/>
        <pt x="400" y="800" on="1"/>
        <pt x="400" y="500" on="1"/>
        <pt x="500" y="500" on="1"/>
        <pt x="500" y="400" on="1"/>
        <pt x="600" y="400" on="1"/>
      </contour>
      <contour>
        <pt x="300" y="300" on="1"/>
        <pt x="300" y="100" on="1"/>
        <pt x="100" y="100" on="1"/>
        <pt x="100" y="1500" on="1"/>
        <pt x="300" y="1500" on="1"/>
        <pt x="300" y="1000" on="1"/>
        <pt x="400" y="1000" on="1"/>
        <pt x="400" y="1100" on="1"/>
        <pt x="500" y="1100" on="1"/>
        <pt x="500" y="1200" on="1"/>
        <pt x="800" y="1200" on="1"/>
        <pt x="800" y="1100" on="1"/>
        <pt x="900" y="1100" on="1"/>
        <pt x="900" y="1000" on="1"/>
        <pt x="1000" y="1000" on="1"/>
        <pt x="1000" y="900" on="1"/>
        <pt x="1100" y="900" on="1"/>
        <pt x="1100" y="400" on="1"/>
        <pt x="1000" y="400" on="1"/>
        <pt x="1000" y="300" on="1"/>
        <pt x="900" y="300" on="1"/>
        <pt x="900" y="200" on="1"/>
        <pt x="800" y="200" on="1"/>
        <pt x="800" y="100" on="1"/>
        <pt x="500" y="100" on="1"/>
        <pt x="500" y="200" on="1"/>
        <pt x="400" y="200" on="1"/>
        <pt x="400" y="300" on="1"/>
      </contour>
    </TTGlyph>
    <TTGlyph name="backslash" xMin="100" yMin="100" xMax="1100" yMax="1500">
      <contour>
        <pt x="300" y="1200" on="1"/>
        <pt x="400" y="1200" on="1"/>
        <pt x="400" y="1100" on="1"/>
        <pt x="500" y="1100" on="1"/>
        <pt x="500" y="1000" on="1"/>
        <pt x="600" y="1000" on="1"/>
        <pt x="600" y="900" on="1"/>
        <pt x="700" y="900" on="1"/>
        <pt x="700" y="800" on="1"/>
        <pt x="800" y="800" on="1"/>
        <pt x="800" y="700" on="1"/>
        <pt x="900" y="700" on="1"/>
        <pt x="900" y="600" on="1"/>
        <pt x="1000" y="600" on="1"/>
        <pt x="1000" y="500" on="1"/>
        <pt x="1100" y="500" on="1"/>
        <pt x="1100" y="100" on="1"/>
        <pt x="900" y="100" on="1"/>
        <pt x="900" y="400" on="1"/>
        <pt x="800" y="400" on="1"/>
        <pt x="800" y="500" on="1"/>
        <pt x="700" y="500" on="1"/>
        <pt x="700" y="600" on="1"/>
        <pt x="600" y="600" on="1"/>
        <pt x="600" y="700" on="1"/>
        <pt x="500" y="700" on="1"/>
        <pt x="500" y="800" on="1"/>
        <pt x="400" y="800" on="1"/>
        <pt x="400" y="900" on="1"/>
        <pt x="300" y="900" on="1"/>
        <pt x="300" y="1000" on="1"/>
        <pt x="200" y="1000" on="1"/>
        <pt x="200" y="1100" on="1"/>
        <pt x="100" y="1100" on="1"/>
        <pt x="100" y="1500" on="1"/>
        <pt x="300" y="1500" on="1"/>
      </contour>
    </TTGlyph>
    <TTGlyph name="bar" xMin="500" yMin="100" xMax="700" yMax="1700">
      <contour>
        <pt x="700" y="1700" on="1"/>
        <pt x="700" y="100" on="1"/>
        <pt x="500" y="100" on="1"/>
        <pt x="500" y="1700" on="1"/>
      </contour>
    </TTGlyph>
    <TTGlyph name="braceleft" xMin="300" yMin="100" xMax="900" yMax="1700">
      <contour>
        <pt x="600" y="1500" on="1"/>
        <pt x="600" y="1700" on="1"/>
        <pt x="900" y="1700" on="1"/>
        <pt x="900" y="1400" on="1"/>
        <pt x="700" y="1400" on="1"/>
        <pt x="700" y="1000" on="1"/>
        <pt x="600" y="1000" on="1"/>
        <pt x="600" y="800" on="1"/>
        <pt x="700" y="800" on="1"/>
        <pt x="700" y="400" on="1"/>
        <pt x="900" y="400" on="1"/>
        <pt x="900" y="100" on="1"/>
        <pt x="600" y="100" on="1"/>
        <pt x="600" y="300" on="1"/>
        <pt x="500" y="300" on="1"/>
        <pt x="500" y="800" on="1"/>
        <pt x="300" y="800" on="1"/>
        <pt x="300" y="1000" on="1"/>
        <pt x="500" y="1000" on="1"/>
        <pt x="500" y="1500" on="1"/>
      </contour>
    </TTGlyph>
    <TTGlyph name="braceright" xMin="300" yMin="100" xMax="900" yMax="1700">
      <contour>
        <pt x="700" y="1500" on="1"/>
        <pt x="700" y="1000" on="1"/>
        <pt x="900" y="1000" on="1"/>
        <pt x="900" y="800" on="1"/>
        <pt x="700" y="800" on="1"/>
        <pt x="700" y="300" on="1"/>
        <pt x="600" y="300" on="1"/>
        <pt x="600" y="100" on="1"/>
        <pt x="300" y="100" on="1"/>
        <pt x="300" y="400" on="1"/>
        <pt x="500" y="400" on="1"/>
        <pt x="500" y="800" on="1"/>
        <pt x="600" y="800" on="1"/>
        <pt x="600" y="1000" on="1"/>
        <pt x="500" y="1000" on="1"/>
        <pt x="500" y="1400" on="1"/>
        <pt x="300" y="1400" on="1"/>
        <pt x="300" y="1700" on="1"/>
        <pt x="600" y="1700" on="1"/>
        <pt x="600" y="1500" on="1"/>
      </contour>
    </TTGlyph>
    <TTGlyph name="bracketleft" xMin="400" yMin="100" xMax="1000" yMax="1700">
      <contour>
        <pt x="1000" y="1700" on="1"/>
        <pt x="1000" y="1500" on="1"/>
        <pt x="600" y="1500" on="1"/>
        <pt x="600" y="300" on="1"/>
        <pt x="1000" y="300" on="1"/>
        <pt x="1000" y="100" on="1"/>
        <pt x="400" y="100" on="1"/>
        <pt x="400" y="1700" on="1"/>
      </contour>
    </TTGlyph>
    <TTGlyph name="bracketright" xMin="200" yMin="100" xMax="800" yMax="1700">
      <contour>
        <pt x="600" y="1500" on="1"/>
        <pt x="200" y="1500" on="1"/>
        <pt x="200" y="1700" on="1"/>
        <pt x="800" y="1700" on="1"/>
        <pt x="800" y="100" on="1"/>
        <pt x="200" y="100" on="1"/>
        <pt x="200" y="300" on="1"/>
        <pt x="600" y="300" on="1"/>
      </contour>
    </TTGlyph>
    <TTGlyph name="brokenbar" xMin="500" yMin="100" xMax="700" yMax="1700">
      <contour>
        <pt x="700" y="1700" on="1"/>
        <pt x="700" y="1000" on="1"/>
        <pt x="500" y="1000" on="1"/>
        <pt x="500" y="1700" on="1"/>
      </contour>
      <contour>
        <pt x="700" y="800" on="1"/>
        <pt x="700" y="100" on="1"/>
        <pt x="500" y="100" on="1"/>
        <pt x="500" y="800" on="1"/>
      </contour>
    </TTGlyph>
    <TTGlyph name="bullet" xMin="300" yMin="600" xMax="900" yMax="1100">
      <contour>
        <pt x="400" y="1000" on="1"/>
        <pt x="400" y="1100" on="1"/>
        <pt x="800" y="1100" on="1"/>
        <pt x="800" y="1000" on="1"/>
        <pt x="900" y="1000" on="1"/>
        <pt x="900" y="700" on="1"/>
        <pt x="800" y="700" on="1"/>
        <pt x="800" y="600" on="1"/>
        <pt x="400" y="600" on="1"/>
        <pt x="400" y="700" on="1"/>
        <pt x="300" y="700" on="1"/>
        <pt x="300" y="1000" on="1"/>
      </contour>
    </TTGlyph>
    <TTGlyph name="c" xMin="100" yMin="100" xMax="1100" yMax="1200">
      <contour>
        <pt x="900" y="400" on="1"/>
        <pt x="900" y="500" on="1"/>
        <pt x="1100" y="500" on="1"/>
        <pt x="1100" y="300" on="1"/>
        <pt x="1000" y="300" on="1"/>
        <pt x="1000" y="200" on="1"/>
        <pt x="900" y="200" on="1"/>
        <pt x="900" y="100" on="1"/>
        <pt x="300" y="100" on="1"/>
        <pt x="300" y="200" on="1"/>
        <pt x="200" y="200" on="1"/>
        <pt x="200" y="300" on="1"/>
        <pt x="100" y="300" on="1"/>
        <pt x="100" y="1000" on="1"/>
        <pt x="200" y="1000" on="1"/>
        <pt x="200" y="1100" on="1"/>
        <pt x="300" y="1100" on="1"/>
        <pt x="300" y="1200" on="1"/>
        <pt x="900" y="1200" on="1"/>
        <pt x="900" y="1100" on="1"/>
        <pt x="1000" y="1100" on="1"/>
        <pt x="1000" y="1000" on="1"/>
        <pt x="1100" y="1000" on="1"/>
        <pt x="1100" y="800" on="1"/>
        <pt x="900" y="800" on="1"/>
        <pt x="900" y="900" on="1"/>
        <pt x="800" y="900" on="1"/>
        <pt x="800" y="1000" on="1"/>
        <pt x="400" y="1000" on="1"/>
        <pt x="400" y="900" on="1"/>
        <pt x="300" y="900" on="1"/>
        <pt x="300" y="400" on="1"/>
        <pt x="400" y="400" on="1"/>
        <pt x="400" y="300" on="1"/>
        <pt x="800" y="300" on="1"/>
        <pt x="800" y="400" on="1"/>
      </contour>
    </TTGlyph>
    <TTGlyph name="ccedilla" xMin="100" yMin="100" xMax="1100" yMax="1400">
      <contour>
        <pt x="500" y="400" on="1"/>
        <pt x="300" y="400" on="1"/>
        <pt x="300" y="500" on="1"/>
        <pt x="200" y="500" on="1"/>
        <pt x="200" y="600" on="1"/>
        <pt x="100" y="600" on="1"/>
        <pt x="100" y="1200" on="1"/>
        <pt x="200" y="1200" on="1"/>
        <pt x="200" y="1300" on="1"/>
        <pt x="300" y="1300" on="1"/>
        <pt x="300" y="1400" on="1"/>
        <pt x="900" y="1400" on="1"/>
        <pt x="900" y="1300" on="1"/>
        <pt x="1000" y="1300" on="1"/>
        <pt x="1000" y="1200" on="1"/>
        <pt x="1100" y="1200" on="1"/>
        <pt x="1100" y="1000" on="1"/>
        <pt x="900" y="1000" on="1"/>
        <pt x="900" y="1100" on="1"/>
        <pt x="800" y="1100" on="1"/>
        <pt x="800" y="1200" on="1"/>
        <pt x="400" y="1200" on="1"/>
        <pt x="400" y="1100" on="1"/>
        <pt x="300" y="1100" on="1"/>
        <pt x="300" y="700" on="1"/>
        <pt x="400" y="700" on="1"/>
        <pt x="400" y="600" on="1"/>
        <pt x="800" y="600" on="1"/>
        <pt x="800" y="700" on="1"/>
        <pt x="900" y="700" on="1"/>
        <pt x="900" y="800" on="1"/>
        <pt x="1100" y="800" on="1"/>
        <pt x="1100" y="600" on="1"/>
        <pt x="1000" y="600" on="1"/>
        <pt x="1000" y="500" on="1"/>
        <pt x="900" y="500" on="1"/>
        <pt x="900" y="400" on="1"/>
        <pt x="800" y="400" on="1"/>
        <pt x="800" y="300" on="1"/>
        <pt x="700" y="300" on="1"/>
        <pt x="700" y="200" on="1"/>
        <pt x="600" y="200" on="1"/>
        <pt x="600" y="100" on="1"/>
        <pt x="300" y="100" on="1"/>
        <pt x="300" y="200" on="1"/>
        <pt x="400" y="200" on="1"/>
        <pt x="400" y="300" on="1"/>
        <pt x="500" y="300" on="1"/>
      </contour>
    </TTGlyph>
    <TTGlyph name="cent" xMin="100" yMin="100" xMax="1100" yMax="1500">
      <contour>
        <pt x="500" y="300" on="1"/>
        <pt x="300" y="300" on="1"/>
        <pt x="300" y="400" on="1"/>
        <pt x="200" y="400" on="1"/>
        <pt x="200" y="500" on="1"/>
        <pt x="100" y="500" on="1"/>
        <pt x="100" y="1100" on="1"/>
        <pt x="200" y="1100" on="1"/>
        <pt x="200" y="1200" on="1"/>
        <pt x="300" y="1200" on="1"/>
        <pt x="300" y="1300" on="1"/>
        <pt x="500" y="1300" on="1"/>
        <pt x="500" y="1500" on="1"/>
        <pt x="700" y="1500" on="1"/>
        <pt x="700" y="1300" on="1"/>
        <pt x="900" y="1300" on="1"/>
        <pt x="900" y="1200" on="1"/>
        <pt x="1000" y="1200" on="1"/>
        <pt x="1000" y="1100" on="1"/>
        <pt x="1100" y="1100" on="1"/>
        <pt x="1100" y="900" on="1"/>
        <pt x="900" y="900" on="1"/>
        <pt x="900" y="1000" on="1"/>
        <pt x="800" y="1000" on="1"/>
        <pt x="800" y="1100" on="1"/>
        <pt x="700" y="1100" on="1"/>
        <pt x="700" y="500" on="1"/>
        <pt x="800" y="500" on="1"/>
        <pt x="800" y="600" on="1"/>
        <pt x="900" y="600" on="1"/>
        <pt x="900" y="700" on="1"/>
        <pt x="1100" y="700" on="1"/>
        <pt x="1100" y="500" on="1"/>
        <pt x="1000" y="500" on="1"/>
        <pt x="1000" y="400" on="1"/>
        <pt x="900" y="400" on="1"/>
        <pt x="900" y="300" on="1"/>
        <pt x="700" y="300" on="1"/>
        <pt x="700" y="100" on="1"/>
        <pt x="500" y="100" on="1"/>
      </contour>
      <contour>
        <pt x="500" y="1100" on="1"/>
        <pt x="400" y="1100" on="1"/>
        <pt x="400" y="1000" on="1"/>
        <pt x="300" y="1000" on="1"/>
        <pt x="300" y="600" on="1"/>
        <pt x="400" y="600" on="1"/>
        <pt x="400" y="500" on="1"/>
        <pt x="500" y="500" on="1"/>
      </contour>
    </TTGlyph>
    <TTGlyph name="colon" xMin="400" yMin="300" xMax="600" yMax="1300">
      <contour>
        <pt x="600" y="500" on="1"/>
        <pt x="600" y="300" on="1"/>
        <pt x="400" y="300" on="1"/>
        <pt x="400" y="500" on="1"/>
      </contour>
      <contour>
        <pt x="600" y="1300" on="1"/>
        <pt x="600" y="1100" on="1"/>
        <pt x="400" y="1100" on="1"/>
        <pt x="400" y="1300" on="1"/>
      </contour>
    </TTGlyph>
    <TTGlyph name="comma" xMin="300" yMin="100" xMax="700" yMax="500">
      <contour>
        <pt x="500" y="300" on="1"/>
        <pt x="500" y="500" on="1"/>
        <pt x="700" y="500" on="1"/>
        <pt x="700" y="300" on="1"/>
        <pt x="600" y="300" on="1"/>
        <pt x="600" y="200" on="1"/>
        <pt x="500" y="200" on="1"/>
        <pt x="500" y="100" on="1"/>
        <pt x="300" y="100" on="1"/>
        <pt x="300" y="200" on="1"/>
        <pt x="400" y="200" on="1"/>
        <pt x="400" y="300" on="1"/>
      </contour>
    </TTGlyph>
    <TTGlyph name="copyright" xMin="100" yMin="300" xMax="1100" yMax="1400">
      <contour>
        <pt x="400" y="400" on="1"/>
        <pt x="800" y="400" on="1"/>
        <pt x="800" y="500" on="1"/>
        <pt x="900" y="500" on="1"/>
        <pt x="900" y="600" on="1"/>
        <pt x="1000" y="600" on="1"/>
        <pt x="1000" y="1100" on="1"/>
        <pt x="900" y="1100" on="1"/>
        <pt x="900" y="1200" on="1"/>
        <pt x="800" y="1200" on="1"/>
        <pt x="800" y="1300" on="1"/>
        <pt x="400" y="1300" on="1"/>
        <pt x="400" y="1200" on="1"/>
        <pt x="300" y="1200" on="1"/>
        <pt x="300" y="1100" on="1"/>
        <pt x="200" y="1100" on="1"/>
        <pt x="200" y="600" on="1"/>
        <pt x="300" y="600" on="1"/>
        <pt x="300" y="500" on="1"/>
        <pt x="400" y="500" on="1"/>
      </contour>
      <contour>
        <pt x="900" y="400" on="1"/>
        <pt x="900" y="300" on="1"/>
        <pt x="300" y="300" on="1"/>
        <pt x="300" y="400" on="1"/>
        <pt x="200" y="400" on="1"/>
        <pt x="200" y="500" on="1"/>
        <pt x="100" y="500" on="1"/>
        <pt x="100" y="1200" on="1"/>
        <pt x="200" y="1200" on="1"/>
        <pt x="200" y="1300" on="1"/>
        <pt x="300" y="1300" on="1"/>
        <pt x="300" y="1400" on="1"/>
        <pt x="900" y="1400" on="1"/>
        <pt x="900" y="1300" on="1"/>
        <pt x="1000" y="1300" on="1"/>
        <pt x="1000" y="1200" on="1"/>
        <pt x="1100" y="1200" on="1"/>
        <pt x="1100" y="500" on="1"/>
        <pt x="1000" y="500" on="1"/>
        <pt x="1000" y="400" on="1"/>
      </contour>
      <contour>
        <pt x="800" y="1200" on="1"/>
        <pt x="800" y="1100" on="1"/>
        <pt x="600" y="1100" on="1"/>
        <pt x="600" y="1000" on="1"/>
        <pt x="500" y="1000" on="1"/>
        <pt x="500" y="700" on="1"/>
        <pt x="600" y="700" on="1"/>
        <pt x="600" y="600" on="1"/>
        <pt x="800" y="600" on="1"/>
        <pt x="800" y="500" on="1"/>
        <pt x="500" y="500" on="1"/>
        <pt x="500" y="600" on="1"/>
        <pt x="400" y="600" on="1"/>
        <pt x="400" y="1100" on="1"/>
        <pt x="500" y="1100" on="1"/>
        <pt x="500" y="1200" on="1"/>
      </contour>
    </TTGlyph>
    <TTGlyph name="d" xMin="100" yMin="100" xMax="1100" yMax="1500">
      <contour>
        <pt x="900" y="1000" on="1"/>
        <pt x="900" y="1500" on="1"/>
        <pt x="1100" y="1500" on="1"/>
        <pt x="1100" y="100" on="1"/>
        <pt x="900" y="100" on="1"/>
        <pt x="900" y="300" on="1"/>
        <pt x="800" y="300" on="1"/>
        <pt x="800" y="200" on="1"/>
        <pt x="700" y="200" on="1"/>
        <pt x="700" y="100" on="1"/>
        <pt x="400" y="100" on="1"/>
        <pt x="400" y="200" on="1"/>
        <pt x="300" y="200" on="1"/>
        <pt x="300" y="300" on="1"/>
        <pt x="200" y="300" on="1"/>
        <pt x="200" y="400" on="1"/>
        <pt x="100" y="400" on="1"/>
        <pt x="100" y="900" on="1"/>
        <pt x="200" y="900" on="1"/>
        <pt x="200" y="1000" on="1"/>
        <pt x="300" y="1000" on="1"/>
        <pt x="300" y="1100" on="1"/>
        <pt x="400" y="1100" on="1"/>
        <pt x="400" y="1200" on="1"/>
        <pt x="700" y="1200" on="1"/>
        <pt x="700" y="1100" on="1"/>
        <pt x="800" y="1100" on="1"/>
        <pt x="800" y="1000" on="1"/>
      </contour>
      <contour>
        <pt x="400" y="400" on="1"/>
        <pt x="500" y="400" on="1"/>
        <pt x="500" y="300" on="1"/>
        <pt x="600" y="300" on="1"/>
        <pt x="600" y="400" on="1"/>
        <pt x="700" y="400" on="1"/>
        <pt x="700" y="500" on="1"/>
        <pt x="800" y="500" on="1"/>
        <pt x="800" y="800" on="1"/>
        <pt x="700" y="800" on="1"/>
        <pt x="700" y="900" on="1"/>
        <pt x="600" y="900" on="1"/>
        <pt x="600" y="1000" on="1"/>
        <pt x="500" y="1000" on="1"/>
        <pt x="500" y="900" on="1"/>
        <pt x="400" y="900" on="1"/>
        <pt x="400" y="800" on="1"/>
        <pt x="300" y="800" on="1"/>
        <pt x="300" y="500" on="1"/>
        <pt x="400" y="500" on="1"/>
      </contour>
    </TTGlyph>
    <TTGlyph name="degree" xMin="100" yMin="700" xMax="900" yMax="1500">
      <contour>
        <pt x="300" y="1400" on="1"/>
        <pt x="300" y="1500" on="1"/>
        <pt x="700" y="1500" on="1"/>
        <pt x="700" y="1400" on="1"/>
        <pt x="800" y="1400" on="1"/>
        <pt x="800" y="1300" on="1"/>
        <pt x="900" y="1300" on="1"/>
        <pt x="900" y="900" on="1"/>
        <pt x="800" y="900" on="1"/>
        <pt x="800" y="800" on="1"/>
        <pt x="700" y="800" on="1"/>
        <pt x="700" y="700" on="1"/>
        <pt x="300" y="700" on="1"/>
        <pt x="300" y="800" on="1"/>
        <pt x="200" y="800" on="1"/>
        <pt x="200" y="900" on="1"/>
        <pt x="100" y="900" on="1"/>
        <pt x="100" y="1300" on="1"/>
        <pt x="200" y="1300" on="1"/>
        <pt x="200" y="1400" on="1"/>
      </contour>
      <contour>
        <pt x="400" y="1300" on="1"/>
        <pt x="400" y="1200" on="1"/>
        <pt x="300" y="1200" on="1"/>
        <pt x="300" y="1000" on="1"/>
        <pt x="400" y="1000" on="1"/>
        <pt x="400" y="900" on="1"/>
        <pt x="600" y="900" on="1"/>
        <pt x="600" y="1000" on="1"/>
        <pt x="700" y="1000" on="1"/>
        <pt x="700" y="1200" on="1"/>
        <pt x="600" y="1200" on="1"/>
        <pt x="600" y="1300" on="1"/>
      </contour>
    </TTGlyph>
    <TTGlyph name="dieresis" xMin="300" yMin="1300" xMax="900" yMax="1500">
      <contour>
        <pt x="500" y="1500" on="1"/>
        <pt x="500" y="1300" on="1"/>
        <pt x="300" y="1300" on="1"/>
        <pt x="300" y="1500" on="1"/>
      </contour>
      <contour>
        <pt x="900" y="1500" on="1"/>
        <pt x="900" y="1300" on="1"/>
        <pt x="700" y="1300" on="1"/>
        <pt x="700" y="1500" on="1"/>
      </contour>
    </TTGlyph>
    <TTGlyph name="dollar" xMin="100" yMin="100" xMax="1100" yMax="1500">
      <contour>
        <pt x="700" y="1400" on="1"/>
        <pt x="900" y="1400" on="1"/>
        <pt x="900" y="1300" on="1"/>
        <pt x="1000" y="1300" on="1"/>
        <pt x="1000" y="1200" on="1"/>
        <pt x="1100" y="1200" on="1"/>
        <pt x="1100" y="1000" on="1"/>
        <pt x="900" y="1000" on="1"/>
        <pt x="900" y="1100" on="1"/>
        <pt x="800" y="1100" on="1"/>
        <pt x="800" y="1200" on="1"/>
        <pt x="700" y="1200" on="1"/>
        <pt x="700" y="900" on="1"/>
        <pt x="900" y="900" on="1"/>
        <pt x="900" y="800" on="1"/>
        <pt x="1000" y="800" on="1"/>
        <pt x="1000" y="700" on="1"/>
        <pt x="1100" y="700" on="1"/>
        <pt x="1100" y="400" on="1"/>
        <pt x="1000" y="400" on="1"/>
        <pt x="1000" y="300" on="1"/>
        <pt x="900" y="300" on="1"/>
        <pt x="900" y="200" on="1"/>
        <pt x="700" y="200" on="1"/>
        <pt x="700" y="100" on="1"/>
        <pt x="500" y="100" on="1"/>
        <pt x="500" y="200" on="1"/>
        <pt x="300" y="200" on="1"/>
        <pt x="300" y="300" on="1"/>
        <pt x="200" y="300" on="1"/>
        <pt x="200" y="400" on="1"/>
        <pt x="100" y="400" on="1"/>
        <pt x="100" y="600" on="1"/>
        <pt x="300" y="600" on="1"/>
        <pt x="300" y="500" on="1"/>
        <pt x="400" y="500" on="1"/>
        <pt x="400" y="400" on="1"/>
        <pt x="500" y="400" on="1"/>
        <pt x="500" y="700" on="1"/>
        <pt x="300" y="700" on="1"/>
        <pt x="300" y="800" on="1"/>
        <pt x="200" y="800" on="1"/>
        <pt x="200" y="900" on="1"/>
        <pt x="100" y="900" on="1"/>
        <pt x="100" y="1200" on="1"/>
        <pt x="200" y="1200" on="1"/>
        <pt x="200" y="1300" on="1"/>
        <pt x="300" y="1300" on="1"/>
        <pt x="300" y="1400" on="1"/>
        <pt x="500" y="1400" on="1"/>
        <pt x="500" y="1500" on="1"/>
        <pt x="700" y="1500" on="1"/>
      </contour>
      <contour>
        <pt x="700" y="400" on="1"/>
        <pt x="800" y="400" on="1"/>
        <pt x="800" y="500" on="1"/>
        <pt x="900" y="500" on="1"/>
        <pt x="900" y="600" on="1"/>
        <pt x="800" y="600" on="1"/>
        <pt x="800" y="700" on="1"/>
        <pt x="700" y="700" on="1"/>
      </contour>
      <contour>
        <pt x="500" y="1200" on="1"/>
        <pt x="400" y="1200" on="1"/>
        <pt x="400" y="1100" on="1"/>
        <pt x="300" y="1100" on="1"/>
        <pt x="300" y="1000" on="1"/>
        <pt x="400" y="1000" on="1"/>
        <pt x="400" y="900" on="1"/>
        <pt x="500" y="900" on="1"/>
      </contour>
    </TTGlyph>
    <TTGlyph name="e" xMin="100" yMin="100" xMax="1100" yMax="1200">
      <contour>
        <pt x="300" y="900" on="1"/>
        <pt x="300" y="800" on="1"/>
        <pt x="900" y="800" on="1"/>
        <pt x="900" y="900" on="1"/>
        <pt x="800" y="900" on="1"/>
        <pt x="800" y="1000" on="1"/>
        <pt x="400" y="1000" on="1"/>
        <pt x="400" y="900" on="1"/>
      </contour>
      <contour>
        <pt x="1100" y="400" on="1"/>
        <pt x="1100" y="300" on="1"/>
        <pt x="1000" y="300" on="1"/>
        <pt x="1000" y="200" on="1"/>
        <pt x="900" y="200" on="1"/>
        <pt x="900" y="100" on="1"/>
        <pt x="300" y="100" on="1"/>
        <pt x="300" y="200" on="1"/>
        <pt x="200" y="200" on="1"/>
        <pt x="200" y="300" on="1"/>
        <pt x="100" y="300" on="1"/>
        <pt x="100" y="1000" on="1"/>
        <pt x="200" y="1000" on="1"/>
        <pt x="200" y="1100" on="1"/>
        <pt x="300" y="1100" on="1"/>
        <pt x="300" y="1200" on="1"/>
        <pt x="900" y="1200" on="1"/>
        <pt x="900" y="1100" on="1"/>
        <pt x="1000" y="1100" on="1"/>
        <pt x="1000" y="1000" on="1"/>
        <pt x="1100" y="1000" on="1"/>
        <pt x="1100" y="700" on="1"/>
        <pt x="1000" y="700" on="1"/>
        <pt x="1000" y="600" on="1"/>
        <pt x="300" y="600" on="1"/>
        <pt x="300" y="400" on="1"/>
        <pt x="400" y="400" on="1"/>
        <pt x="400" y="300" on="1"/>
        <pt x="800" y="300" on="1"/>
        <pt x="800" y="400" on="1"/>
      </contour>
    </TTGlyph>
    <TTGlyph name="eacute" xMin="100" yMin="100" xMax="1100" yMax="1500">
      <contour>
        <pt x="1100" y="400" on="1"/>
        <pt x="1100" y="300" on="1"/>
        <pt x="1000" y="300" on="1"/>
        <pt x="1000" y="200" on="1"/>
        <pt x="900" y="200" on="1"/>
        <pt x="900" y="100" on="1"/>
        <pt x="300" y="100" on="1"/>
        <pt x="300" y="200" on="1"/>
        <pt x="200" y="200" on="1"/>
        <pt x="200" y="300" on="1"/>
        <pt x="100" y="300" on="1"/>
        <pt x="100" y="900" on="1"/>
        <pt x="200" y="900" on="1"/>
        <pt x="200" y="1000" on="1"/>
        <pt x="300" y="1000" on="1"/>
        <pt x="300" y="1100" on="1"/>
        <pt x="900" y="1100" on="1"/>
        <pt x="900" y="1000" on="1"/>
        <pt x="1000" y="1000" on="1"/>
        <pt x="1000" y="900" on="1"/>
        <pt x="1100" y="900" on="1"/>
        <pt x="1100" y="600" on="1"/>
        <pt x="1000" y="600" on="1"/>
        <pt x="1000" y="500" on="1"/>
        <pt x="300" y="500" on="1"/>
        <pt x="300" y="400" on="1"/>
        <pt x="400" y="400" on="1"/>
        <pt x="400" y="300" on="1"/>
        <pt x="800" y="300" on="1"/>
        <pt x="800" y="400" on="1"/>
      </contour>
      <contour>
        <pt x="300" y="700" on="1"/>
        <pt x="900" y="700" on="1"/>
        <pt x="900" y="800" on="1"/>
        <pt x="800" y="800" on="1"/>
        <pt x="800" y="900" on="1"/>
        <pt x="400" y="900" on="1"/>
        <pt x="400" y="800" on="1"/>
        <pt x="300" y="800" on="1"/>
      </contour>
      <contour>
        <pt x="600" y="1400" on="1"/>
        <pt x="600" y="1500" on="1"/>
        <pt x="900" y="1500" on="1"/>
        <pt x="900" y="1400" on="1"/>
        <pt x="800" y="1400" on="1"/>
        <pt x="800" y="1300" on="1"/>
        <pt x="600" y="1300" on="1"/>
        <pt x="600" y="1200" on="1"/>
        <pt x="400" y="1200" on="1"/>
        <pt x="400" y="1300" on="1"/>
        <pt x="500" y="1300" on="1"/>
        <pt x="500" y="1400" on="1"/>
      </contour>
    </TTGlyph>
    <TTGlyph name="ecircumflex" xMin="100" yMin="100" xMax="1100" yMax="1500">
      <contour>
        <pt x="1100" y="400" on="1"/>
        <pt x="1100" y="300" on="1"/>
        <pt x="1000" y="300" on="1"/>
        <pt x="1000" y="200" on="1"/>
        <pt x="900" y="200" on="1"/>
        <pt x="900" y="100" on="1"/>
        <pt x="300" y="100" on="1"/>
        <pt x="300" y="200" on="1"/>
        <pt x="200" y="200" on="1"/>
        <pt x="200" y="300" on="1"/>
        <pt x="100" y="300" on="1"/>
        <pt x="100" y="900" on="1"/>
        <pt x="200" y="900" on="1"/>
        <pt x="200" y="1000" on="1"/>
        <pt x="300" y="1000" on="1"/>
        <pt x="300" y="1100" on="1"/>
        <pt x="900" y="1100" on="1"/>
        <pt x="900" y="1000" on="1"/>
        <pt x="1000" y="1000" on="1"/>
        <pt x="1000" y="900" on="1"/>
        <pt x="1100" y="900" on="1"/>
        <pt x="1100" y="600" on="1"/>
        <pt x="1000" y="600" on="1"/>
        <pt x="1000" y="500" on="1"/>
        <pt x="300" y="500" on="1"/>
        <pt x="300" y="400" on="1"/>
        <pt x="400" y="400" on="1"/>
        <pt x="400" y="300" on="1"/>
        <pt x="800" y="300" on="1"/>
        <pt x="800" y="400" on="1"/>
      </contour>
      <contour>
        <pt x="300" y="700" on="1"/>
        <pt x="900" y="700" on="1"/>
        <pt x="900" y="800" on="1"/>
        <pt x="800" y="800" on="1"/>
        <pt x="800" y="900" on="1"/>
        <pt x="400" y="900" on="1"/>
        <pt x="400" y="800" on="1"/>
        <pt x="300" y="800" on="1"/>
      </contour>
      <contour>
        <pt x="700" y="1500" on="1"/>
        <pt x="700" y="1400" on="1"/>
        <pt x="800" y="1400" on="1"/>
        <pt x="800" y="1300" on="1"/>
        <pt x="900" y="1300" on="1"/>
        <pt x="900" y="1200" on="1"/>
        <pt x="700" y="1200" on="1"/>
        <pt x="700" y="1300" on="1"/>
        <pt x="500" y="1300" on="1"/>
        <pt x="500" y="1200" on="1"/>
        <pt x="300" y="1200" on="1"/>
        <pt x="300" y="1300" on="1"/>
        <pt x="400" y="1300" on="1"/>
        <pt x="400" y="1400" on="1"/>
        <pt x="500" y="1400" on="1"/>
        <pt x="500" y="1500" on="1"/>
      </contour>
    </TTGlyph>
    <TTGlyph name="edieresis" xMin="100" yMin="100" xMax="1100" yMax="1500">
      <contour>
        <pt x="1100" y="400" on="1"/>
        <pt x="1100" y="300" on="1"/>
        <pt x="1000" y="300" on="1"/>
        <pt x="1000" y="200" on="1"/>
        <pt x="900" y="200" on="1"/>
        <pt x="900" y="100" on="1"/>
        <pt x="300" y="100" on="1"/>
        <pt x="300" y="200" on="1"/>
        <pt x="200" y="200" on="1"/>
        <pt x="200" y="300" on="1"/>
        <pt x="100" y="300" on="1"/>
        <pt x="100" y="900" on="1"/>
        <pt x="200" y="900" on="1"/>
        <pt x="200" y="1000" on="1"/>
        <pt x="300" y="1000" on="1"/>
        <pt x="300" y="1100" on="1"/>
        <pt x="900" y="1100" on="1"/>
        <pt x="900" y="1000" on="1"/>
        <pt x="1000" y="1000" on="1"/>
        <pt x="1000" y="900" on="1"/>
        <pt x="1100" y="900" on="1"/>
        <pt x="1100" y="600" on="1"/>
        <pt x="1000" y="600" on="1"/>
        <pt x="1000" y="500" on="1"/>
        <pt x="300" y="500" on="1"/>
        <pt x="300" y="400" on="1"/>
        <pt x="400" y="400" on="1"/>
        <pt x="400" y="300" on="1"/>
        <pt x="800" y="300" on="1"/>
        <pt x="800" y="400" on="1"/>
      </contour>
      <contour>
        <pt x="300" y="700" on="1"/>
        <pt x="900" y="700" on="1"/>
        <pt x="900" y="800" on="1"/>
        <pt x="800" y="800" on="1"/>
        <pt x="800" y="900" on="1"/>
        <pt x="400" y="900" on="1"/>
        <pt x="400" y="800" on="1"/>
        <pt x="300" y="800" on="1"/>
      </contour>
      <contour>
        <pt x="300" y="1300" on="1"/>
        <pt x="300" y="1500" on="1"/>
        <pt x="500" y="1500" on="1"/>
        <pt x="500" y="1300" on="1"/>
      </contour>
      <contour>
        <pt x="700" y="1500" on="1"/>
        <pt x="900" y="1500" on="1"/>
        <pt x="900" y="1300" on="1"/>
        <pt x="700" y="1300" on="1"/>
      </contour>
    </TTGlyph>
    <TTGlyph name="egrave" xMin="100" yMin="100" xMax="1100" yMax="1500">
      <contour>
        <pt x="600" y="1500" on="1"/>
        <pt x="600" y="1400" on="1"/>
        <pt x="700" y="1400" on="1"/>
        <pt x="700" y="1300" on="1"/>
        <pt x="800" y="1300" on="1"/>
        <pt x="800" y="1200" on="1"/>
        <pt x="600" y="1200" on="1"/>
        <pt x="600" y="1300" on="1"/>
        <pt x="400" y="1300" on="1"/>
        <pt x="400" y="1400" on="1"/>
        <pt x="300" y="1400" on="1"/>
        <pt x="300" y="1500" on="1"/>
      </contour>
      <contour>
        <pt x="1100" y="400" on="1"/>
        <pt x="1100" y="300" on="1"/>
        <pt x="1000" y="300" on="1"/>
        <pt x="1000" y="200" on="1"/>
        <pt x="900" y="200" on="1"/>
        <pt x="900" y="100" on="1"/>
        <pt x="300" y="100" on="1"/>
        <pt x="300" y="200" on="1"/>
        <pt x="200" y="200" on="1"/>
        <pt x="200" y="300" on="1"/>
        <pt x="100" y="300" on="1"/>
        <pt x="100" y="900" on="1"/>
        <pt x="200" y="900" on="1"/>
        <pt x="200" y="1000" on="1"/>
        <pt x="300" y="1000" on="1"/>
        <pt x="300" y="1100" on="1"/>
        <pt x="900" y="1100" on="1"/>
        <pt x="900" y="1000" on="1"/>
        <pt x="1000" y="1000" on="1"/>
        <pt x="1000" y="900" on="1"/>
        <pt x="1100" y="900" on="1"/>
        <pt x="1100" y="600" on="1"/>
        <pt x="1000" y="600" on="1"/>
        <pt x="1000" y="500" on="1"/>
        <pt x="300" y="500" on="1"/>
        <pt x="300" y="400" on="1"/>
        <pt x="400" y="400" on="1"/>
        <pt x="400" y="300" on="1"/>
        <pt x="800" y="300" on="1"/>
        <pt x="800" y="400" on="1"/>
      </contour>
      <contour>
        <pt x="300" y="700" on="1"/>
        <pt x="900" y="700" on="1"/>
        <pt x="900" y="800" on="1"/>
        <pt x="800" y="800" on="1"/>
        <pt x="800" y="900" on="1"/>
        <pt x="400" y="900" on="1"/>
        <pt x="400" y="800" on="1"/>
        <pt x="300" y="800" on="1"/>
      </contour>
    </TTGlyph>
    <TTGlyph name="eight" xMin="100" yMin="100" xMax="1100" yMax="1500">
      <contour>
        <pt x="400" y="300" on="1"/>
        <pt x="800" y="300" on="1"/>
        <pt x="800" y="400" on="1"/>
        <pt x="900" y="400" on="1"/>
        <pt x="900" y="600" on="1"/>
        <pt x="800" y="600" on="1"/>
        <pt x="800" y="700" on="1"/>
        <pt x="400" y="700" on="1"/>
        <pt x="400" y="600" on="1"/>
        <pt x="300" y="600" on="1"/>
        <pt x="300" y="400" on="1"/>
        <pt x="400" y="400" on="1"/>
      </contour>
      <contour>
        <pt x="900" y="200" on="1"/>
        <pt x="900" y="100" on="1"/>
        <pt x="300" y="100" on="1"/>
        <pt x="300" y="200" on="1"/>
        <pt x="200" y="200" on="1"/>
        <pt x="200" y="300" on="1"/>
        <pt x="100" y="300" on="1"/>
        <pt x="100" y="700" on="1"/>
        <pt x="200" y="700" on="1"/>
        <pt x="200" y="900" on="1"/>
        <pt x="100" y="900" on="1"/>
        <pt x="100" y="1300" on="1"/>
        <pt x="200" y="1300" on="1"/>
        <pt x="200" y="1400" on="1"/>
        <pt x="300" y="1400" on="1"/>
        <pt x="300" y="1500" on="1"/>
        <pt x="900" y="1500" on="1"/>
        <pt x="900" y="1400" on="1"/>
        <pt x="1000" y="1400" on="1"/>
        <pt x="1000" y="1300" on="1"/>
        <pt x="1100" y="1300" on="1"/>
        <pt x="1100" y="900" on="1"/>
        <pt x="1000" y="900" on="1"/>
        <pt x="1000" y="700" on="1"/>
        <pt x="1100" y="700" on="1"/>
        <pt x="1100" y="300" on="1"/>
        <pt x="1000" y="300" on="1"/>
        <pt x="1000" y="200" on="1"/>
      </contour>
      <contour>
        <pt x="800" y="1300" on="1"/>
        <pt x="400" y="1300" on="1"/>
        <pt x="400" y="1200" on="1"/>
        <pt x="300" y="1200" on="1"/>
        <pt x="300" y="1000" on="1"/>
        <pt x="400" y="1000" on="1"/>
        <pt x="400" y="900" on="1"/>
        <pt x="800" y="900" on="1"/>
        <pt x="800" y="1000" on="1"/>
        <pt x="900" y="1000" on="1"/>
        <pt x="900" y="1200" on="1"/>
        <pt x="800" y="1200" on="1"/>
      </contour>
    </TTGlyph>
    <TTGlyph name="ellipsis" xMin="100" yMin="100" xMax="1100" yMax="300">
      <contour>
        <pt x="300" y="300" on="1"/>
        <pt x="300" y="100" on="1"/>
        <pt x="100" y="100" on="1"/>
        <pt x="100" y="300" on="1"/>
      </contour>
      <contour>
        <pt x="700" y="300" on="1"/>
        <pt x="700" y="100" on="1"/>
        <pt x="500" y="100" on="1"/>
        <pt x="500" y="300" on="1"/>
      </contour>
      <contour>
        <pt x="1100" y="300" on="1"/>
        <pt x="1100" y="100" on="1"/>
        <pt x="900" y="100" on="1"/>
        <pt x="900" y="300" on="1"/>
      </contour>
    </TTGlyph>
    <TTGlyph name="equal" xMin="100" yMin="500" xMax="1100" yMax="1100">
      <contour>
        <pt x="1100" y="1100" on="1"/>
        <pt x="1100" y="900" on="1"/>
        <pt x="100" y="900" on="1"/>
        <pt x="100" y="1100" on="1"/>
      </contour>
      <contour>
        <pt x="1100" y="700" on="1"/>
        <pt x="1100" y="500" on="1"/>
        <pt x="100" y="500" on="1"/>
        <pt x="100" y="700" on="1"/>
      </contour>
    </TTGlyph>
    <TTGlyph name="eth" xMin="100" yMin="100" xMax="1100" yMax="1600">
      <contour>
        <pt x="300" y="400" on="1"/>
        <pt x="400" y="400" on="1"/>
        <pt x="400" y="300" on="1"/>
        <pt x="700" y="300" on="1"/>
        <pt x="700" y="400" on="1"/>
        <pt x="800" y="400" on="1"/>
        <pt x="800" y="900" on="1"/>
        <pt x="400" y="900" on="1"/>
        <pt x="400" y="800" on="1"/>
        <pt x="300" y="800" on="1"/>
      </contour>
      <contour>
        <pt x="200" y="300" on="1"/>
        <pt x="100" y="300" on="1"/>
        <pt x="100" y="900" on="1"/>
        <pt x="200" y="900" on="1"/>
        <pt x="200" y="1000" on="1"/>
        <pt x="300" y="1000" on="1"/>
        <pt x="300" y="1100" on="1"/>
        <pt x="800" y="1100" on="1"/>
        <pt x="800" y="1200" on="1"/>
        <pt x="400" y="1200" on="1"/>
        <pt x="400" y="1400" on="1"/>
        <pt x="800" y="1400" on="1"/>
        <pt x="800" y="1600" on="1"/>
        <pt x="1000" y="1600" on="1"/>
        <pt x="1000" y="1400" on="1"/>
        <pt x="1100" y="1400" on="1"/>
        <pt x="1100" y="1200" on="1"/>
        <pt x="1000" y="1200" on="1"/>
        <pt x="1000" y="300" on="1"/>
        <pt x="900" y="300" on="1"/>
        <pt x="900" y="200" on="1"/>
        <pt x="800" y="200" on="1"/>
        <pt x="800" y="100" on="1"/>
        <pt x="300" y="100" on="1"/>
        <pt x="300" y="200" on="1"/>
        <pt x="200" y="200" on="1"/>
      </contour>
    </TTGlyph>
    <TTGlyph name="exclam" xMin="400" yMin="100" xMax="600" yMax="1500">
      <contour>
        <pt x="600" y="300" on="1"/>
        <pt x="600" y="100" on="1"/>
        <pt x="400" y="100" on="1"/>
        <pt x="400" y="300" on="1"/>
      </contour>
      <contour>
        <pt x="600" y="500" on="1"/>
        <pt x="400" y="500" on="1"/>
        <pt x="400" y="1500" on="1"/>
        <pt x="600" y="1500" on="1"/>
      </contour>
    </TTGlyph>
    <TTGlyph name="exclamdown" xMin="600" yMin="100" xMax="800" yMax="1500">
      <contour>
        <pt x="600" y="1300" on="1"/>
        <pt x="600" y="1500" on="1"/>
        <pt x="800" y="1500" on="1"/>
        <pt x="800" y="1300" on="1"/>
      </contour>
      <contour>
        <pt x="600" y="1100" on="1"/>
        <pt x="800" y="1100" on="1"/>
        <pt x="800" y="100" on="1"/>
        <pt x="600" y="100" on="1"/>
      </contour>
    </TTGlyph>
    <TTGlyph name="f" xMin="200" yMin="100" xMax="1000" yMax="1500">
      <contour>
        <pt x="700" y="100" on="1"/>
        <pt x="500" y="100" on="1"/>
        <pt x="500" y="1000" on="1"/>
        <pt x="200" y="1000" on="1"/>
        <pt x="200" y="1200" on="1"/>
        <pt x="500" y="1200" on="1"/>
        <pt x="500" y="1400" on="1"/>
        <pt x="600" y="1400" on="1"/>
        <pt x="600" y="1500" on="1"/>
        <pt x="1000" y="1500" on="1"/>
        <pt x="1000" y="1300" on="1"/>
        <pt x="700" y="1300" on="1"/>
        <pt x="700" y="1200" on="1"/>
        <pt x="1000" y="1200" on="1"/>
        <pt x="1000" y="1000" on="1"/>
        <pt x="700" y="1000" on="1"/>
      </contour>
    </TTGlyph>
    <TTGlyph name="five" xMin="100" yMin="100" xMax="1100" yMax="1500">
      <contour>
        <pt x="100" y="1500" on="1"/>
        <pt x="1100" y="1500" on="1"/>
        <pt x="1100" y="1300" on="1"/>
        <pt x="300" y="1300" on="1"/>
        <pt x="300" y="1100" on="1"/>
        <pt x="900" y="1100" on="1"/>
        <pt x="900" y="1000" on="1"/>
        <pt x="1000" y="1000" on="1"/>
        <pt x="1000" y="900" on="1"/>
        <pt x="1100" y="900" on="1"/>
        <pt x="1100" y="300" on="1"/>
        <pt x="1000" y="300" on="1"/>
        <pt x="1000" y="200" on="1"/>
        <pt x="900" y="200" on="1"/>
        <pt x="900" y="100" on="1"/>
        <pt x="300" y="100" on="1"/>
        <pt x="300" y="200" on="1"/>
        <pt x="200" y="200" on="1"/>
        <pt x="200" y="300" on="1"/>
        <pt x="100" y="300" on="1"/>
        <pt x="100" y="500" on="1"/>
        <pt x="300" y="500" on="1"/>
        <pt x="300" y="400" on="1"/>
        <pt x="400" y="400" on="1"/>
        <pt x="400" y="300" on="1"/>
        <pt x="800" y="300" on="1"/>
        <pt x="800" y="400" on="1"/>
        <pt x="900" y="400" on="1"/>
        <pt x="900" y="800" on="1"/>
        <pt x="800" y="800" on="1"/>
        <pt x="800" y="900" on="1"/>
        <pt x="100" y="900" on="1"/>
      </contour>
    </TTGlyph>
    <TTGlyph name="four" xMin="100" yMin="100" xMax="1100" yMax="1500">
      <contour>
        <pt x="700" y="1400" on="1"/>
        <pt x="700" y="1500" on="1"/>
        <pt x="900" y="1500" on="1"/>
        <pt x="900" y="700" on="1"/>
        <pt x="1100" y="700" on="1"/>
        <pt x="1100" y="500" on="1"/>
        <pt x="900" y="500" on="1"/>
        <pt x="900" y="100" on="1"/>
        <pt x="700" y="100" on="1"/>
        <pt x="700" y="500" on="1"/>
        <pt x="100" y="500" on="1"/>
        <pt x="100" y="900" on="1"/>
        <pt x="200" y="900" on="1"/>
        <pt x="200" y="1000" on="1"/>
        <pt x="300" y="1000" on="1"/>
        <pt x="300" y="1100" on="1"/>
        <pt x="400" y="1100" on="1"/>
        <pt x="400" y="1200" on="1"/>
        <pt x="500" y="1200" on="1"/>
        <pt x="500" y="1300" on="1"/>
        <pt x="600" y="1300" on="1"/>
        <pt x="600" y="1400" on="1"/>
      </contour>
      <contour>
        <pt x="700" y="700" on="1"/>
        <pt x="700" y="1100" on="1"/>
        <pt x="600" y="1100" on="1"/>
        <pt x="600" y="1000" on="1"/>
        <pt x="500" y="1000" on="1"/>
        <pt x="500" y="900" on="1"/>
        <pt x="400" y="900" on="1"/>
        <pt x="400" y="800" on="1"/>
        <pt x="300" y="800" on="1"/>
        <pt x="300" y="700" on="1"/>
      </contour>
    </TTGlyph>
    <TTGlyph name="fraction" xMin="100" yMin="100" xMax="1100" yMax="1500">
      <contour>
        <pt x="900" y="1500" on="1"/>
        <pt x="1100" y="1500" on="1"/>
        <pt x="1100" y="1100" on="1"/>
        <pt x="1000" y="1100" on="1"/>
        <pt x="1000" y="1000" on="1"/>
        <pt x="900" y="1000" on="1"/>
        <pt x="900" y="900" on="1"/>
        <pt x="800" y="900" on="1"/>
        <pt x="800" y="800" on="1"/>
        <pt x="700" y="800" on="1"/>
        <pt x="700" y="700" on="1"/>
        <pt x="600" y="700" on="1"/>
        <pt x="600" y="600" on="1"/>
        <pt x="500" y="600" on="1"/>
        <pt x="500" y="500" on="1"/>
        <pt x="400" y="500" on="1"/>
        <pt x="400" y="400" on="1"/>
        <pt x="300" y="400" on="1"/>
        <pt x="300" y="100" on="1"/>
        <pt x="100" y="100" on="1"/>
        <pt x="100" y="500" on="1"/>
        <pt x="200" y="500" on="1"/>
        <pt x="200" y="600" on="1"/>
        <pt x="300" y="600" on="1"/>
        <pt x="300" y="700" on="1"/>
        <pt x="400" y="700" on="1"/>
        <pt x="400" y="800" on="1"/>
        <pt x="500" y="800" on="1"/>
        <pt x="500" y="900" on="1"/>
        <pt x="600" y="900" on="1"/>
        <pt x="600" y="1000" on="1"/>
        <pt x="700" y="1000" on="1"/>
        <pt x="700" y="1100" on="1"/>
        <pt x="800" y="1100" on="1"/>
        <pt x="800" y="1200" on="1"/>
        <pt x="900" y="1200" on="1"/>
      </contour>
    </TTGlyph>
    <TTGlyph name="franc" xMin="100" yMin="100" xMax="1100" yMax="1500">
      <contour>
        <pt x="200" y="500" on="1"/>
        <pt x="200" y="1500" on="1"/>
        <pt x="1100" y="1500" on="1"/>
        <pt x="1100" y="1300" on="1"/>
        <pt x="400" y="1300" on="1"/>
        <pt x="400" y="900" on="1"/>
        <pt x="900" y="900" on="1"/>
        <pt x="900" y="700" on="1"/>
        <pt x="400" y="700" on="1"/>
        <pt x="400" y="500" on="1"/>
        <pt x="600" y="500" on="1"/>
        <pt x="600" y="400" on="1"/>
        <pt x="400" y="400" on="1"/>
        <pt x="400" y="100" on="1"/>
        <pt x="200" y="100" on="1"/>
        <pt x="200" y="400" on="1"/>
        <pt x="100" y="400" on="1"/>
        <pt x="100" y="500" on="1"/>
      </contour>
    </TTGlyph>
    <TTGlyph name="g" xMin="100" yMin="100" xMax="1100" yMax="1300">
      <contour>
        <pt x="900" y="900" on="1"/>
        <pt x="900" y="1000" on="1"/>
        <pt x="800" y="1000" on="1"/>
        <pt x="800" y="1100" on="1"/>
        <pt x="400" y="1100" on="1"/>
        <pt x="400" y="1000" on="1"/>
        <pt x="300" y="1000" on="1"/>
        <pt x="300" y="900" on="1"/>
        <pt x="400" y="900" on="1"/>
        <pt x="400" y="800" on="1"/>
        <pt x="800" y="800" on="1"/>
        <pt x="800" y="900" on="1"/>
      </contour>
      <contour>
        <pt x="300" y="200" on="1"/>
        <pt x="200" y="200" on="1"/>
        <pt x="200" y="400" on="1"/>
        <pt x="400" y="400" on="1"/>
        <pt x="400" y="300" on="1"/>
        <pt x="800" y="300" on="1"/>
        <pt x="800" y="400" on="1"/>
        <pt x="900" y="400" on="1"/>
        <pt x="900" y="700" on="1"/>
        <pt x="800" y="700" on="1"/>
        <pt x="800" y="600" on="1"/>
        <pt x="300" y="600" on="1"/>
        <pt x="300" y="700" on="1"/>
        <pt x="200" y="700" on="1"/>
        <pt x="200" y="800" on="1"/>
        <pt x="100" y="800" on="1"/>
        <pt x="100" y="1100" on="1"/>
        <pt x="200" y="1100" on="1"/>
        <pt x="200" y="1200" on="1"/>
        <pt x="300" y="1200" on="1"/>
        <pt x="300" y="1300" on="1"/>
        <pt x="900" y="1300" on="1"/>
        <pt x="900" y="1200" on="1"/>
        <pt x="1000" y="1200" on="1"/>
        <pt x="1000" y="1100" on="1"/>
        <pt x="1100" y="1100" on="1"/>
        <pt x="1100" y="300" on="1"/>
        <pt x="1000" y="300" on="1"/>
        <pt x="1000" y="200" on="1"/>
        <pt x="900" y="200" on="1"/>
        <pt x="900" y="100" on="1"/>
        <pt x="300" y="100" on="1"/>
      </contour>
    </TTGlyph>
    <TTGlyph name="germandbls" xMin="100" yMin="100" xMax="1000" yMax="1700">
      <contour>
        <pt x="300" y="1400" on="1"/>
        <pt x="300" y="100" on="1"/>
        <pt x="100" y="100" on="1"/>
        <pt x="100" y="1500" on="1"/>
        <pt x="200" y="1500" on="1"/>
        <pt x="200" y="1600" on="1"/>
        <pt x="300" y="1600" on="1"/>
        <pt x="300" y="1700" on="1"/>
        <pt x="500" y="1700" on="1"/>
        <pt x="500" y="1600" on="1"/>
        <pt x="700" y="1600" on="1"/>
        <pt x="700" y="1500" on="1"/>
        <pt x="800" y="1500" on="1"/>
        <pt x="800" y="1100" on="1"/>
        <pt x="700" y="1100" on="1"/>
        <pt x="700" y="800" on="1"/>
        <pt x="800" y="800" on="1"/>
        <pt x="800" y="700" on="1"/>
        <pt x="900" y="700" on="1"/>
        <pt x="900" y="600" on="1"/>
        <pt x="1000" y="600" on="1"/>
        <pt x="1000" y="200" on="1"/>
        <pt x="900" y="200" on="1"/>
        <pt x="900" y="100" on="1"/>
        <pt x="400" y="100" on="1"/>
        <pt x="400" y="300" on="1"/>
        <pt x="800" y="300" on="1"/>
        <pt x="800" y="500" on="1"/>
        <pt x="700" y="500" on="1"/>
        <pt x="700" y="600" on="1"/>
        <pt x="600" y="600" on="1"/>
        <pt x="600" y="700" on="1"/>
        <pt x="500" y="700" on="1"/>
        <pt x="500" y="1100" on="1"/>
        <pt x="600" y="1100" on="1"/>
        <pt x="600" y="1400" on="1"/>
        <pt x="500" y="1400" on="1"/>
        <pt x="500" y="1500" on="1"/>
        <pt x="400" y="1500" on="1"/>
        <pt x="400" y="1400" on="1"/>
      </contour>
    </TTGlyph>
    <TTGlyph name="grave" xMin="300" yMin="1200" xMax="800" yMax="1500">
      <contour>
        <pt x="600" y="1500" on="1"/>
        <pt x="600" y="1400" on="1"/>
        <pt x="700" y="1400" on="1"/>
        <pt x="700" y="1300" on="1"/>
        <pt x="800" y="1300" on="1"/>
        <pt x="800" y="1200" on="1"/>
        <pt x="600" y="1200" on="1"/>
        <pt x="600" y="1300" on="1"/>
        <pt x="400" y="1300" on="1"/>
        <pt x="400" y="1400" on="1"/>
        <pt x="300" y="1400" on="1"/>
        <pt x="300" y="1500" on="1"/>
      </contour>
    </TTGlyph>
    <TTGlyph name="greater" xMin="200" yMin="100" xMax="1000" yMax="1600">
      <contour>
        <pt x="400" y="200" on="1"/>
        <pt x="400" y="100" on="1"/>
        <pt x="200" y="100" on="1"/>
        <pt x="200" y="300" on="1"/>
        <pt x="300" y="300" on="1"/>
        <pt x="300" y="400" on="1"/>
        <pt x="400" y="400" on="1"/>
        <pt x="400" y="500" on="1"/>
        <pt x="500" y="500" on="1"/>
        <pt x="500" y="600" on="1"/>
        <pt x="600" y="600" on="1"/>
        <pt x="600" y="700" on="1"/>
        <pt x="700" y="700" on="1"/>
        <pt x="700" y="800" on="1"/>
        <pt x="800" y="800" on="1"/>
        <pt x="800" y="900" on="1"/>
        <pt x="700" y="900" on="1"/>
        <pt x="700" y="1000" on="1"/>
        <pt x="600" y="1000" on="1"/>
        <pt x="600" y="1100" on="1"/>
        <pt x="500" y="1100" on="1"/>
        <pt x="500" y="1200" on="1"/>
        <pt x="400" y="1200" on="1"/>
        <pt x="400" y="1300" on="1"/>
        <pt x="300" y="1300" on="1"/>
        <pt x="300" y="1400" on="1"/>
        <pt x="200" y="1400" on="1"/>
        <pt x="200" y="1600" on="1"/>
        <pt x="400" y="1600" on="1"/>
        <pt x="400" y="1500" on="1"/>
        <pt x="500" y="1500" on="1"/>
        <pt x="500" y="1400" on="1"/>
        <pt x="600" y="1400" on="1"/>
        <pt x="600" y="1300" on="1"/>
        <pt x="700" y="1300" on="1"/>
        <pt x="700" y="1200" on="1"/>
        <pt x="800" y="1200" on="1"/>
        <pt x="800" y="1100" on="1"/>
        <pt x="900" y="1100" on="1"/>
        <pt x="900" y="1000" on="1"/>
        <pt x="1000" y="1000" on="1"/>
        <pt x="1000" y="700" on="1"/>
        <pt x="900" y="700" on="1"/>
        <pt x="900" y="600" on="1"/>
        <pt x="800" y="600" on="1"/>
        <pt x="800" y="500" on="1"/>
        <pt x="700" y="500" on="1"/>
        <pt x="700" y="400" on="1"/>
        <pt x="600" y="400" on="1"/>
        <pt x="600" y="300" on="1"/>
        <pt x="500" y="300" on="1"/>
        <pt x="500" y="200" on="1"/>
      </contour>
    </TTGlyph>
    <TTGlyph name="guillemotleft" xMin="100" yMin="300" xMax="1100" yMax="1200">
      <contour>
        <pt x="200" y="700" on="1"/>
        <pt x="100" y="700" on="1"/>
        <pt x="100" y="800" on="1"/>
        <pt x="200" y="800" on="1"/>
        <pt x="200" y="900" on="1"/>
        <pt x="300" y="900" on="1"/>
        <pt x="300" y="1000" on="1"/>
        <pt x="400" y="1000" on="1"/>
        <pt x="400" y="1100" on="1"/>
        <pt x="500" y="1100" on="1"/>
        <pt x="500" y="1200" on="1"/>
        <pt x="600" y="1200" on="1"/>
        <pt x="600" y="1000" on="1"/>
        <pt x="500" y="1000" on="1"/>
        <pt x="500" y="900" on="1"/>
        <pt x="400" y="900" on="1"/>
        <pt x="400" y="800" on="1"/>
        <pt x="300" y="800" on="1"/>
        <pt x="300" y="700" on="1"/>
        <pt x="400" y="700" on="1"/>
        <pt x="400" y="600" on="1"/>
        <pt x="500" y="600" on="1"/>
        <pt x="500" y="500" on="1"/>
        <pt x="600" y="500" on="1"/>
        <pt x="600" y="300" on="1"/>
        <pt x="500" y="300" on="1"/>
        <pt x="500" y="400" on="1"/>
        <pt x="400" y="400" on="1"/>
        <pt x="400" y="500" on="1"/>
        <pt x="300" y="500" on="1"/>
        <pt x="300" y="600" on="1"/>
        <pt x="200" y="600" on="1"/>
      </contour>
      <contour>
        <pt x="700" y="700" on="1"/>
        <pt x="600" y="700" on="1"/>
        <pt x="600" y="800" on="1"/>
        <pt x="700" y="800" on="1"/>
        <pt x="700" y="900" on="1"/>
        <pt x="800" y="900" on="1"/>
        <pt x="800" y="1000" on="1"/>
        <pt x="900" y="1000" on="1"/>
        <pt x="900" y="1100" on="1"/>
        <pt x="1000" y="1100" on="1"/>
        <pt x="1000" y="1200" on="1"/>
        <pt x="1100" y="1200" on="1"/>
        <pt x="1100" y="1000" on="1"/>
        <pt x="1000" y="1000" on="1"/>
        <pt x="1000" y="900" on="1"/>
        <pt x="900" y="900" on="1"/>
        <pt x="900" y="800" on="1"/>
        <pt x="800" y="800" on="1"/>
        <pt x="800" y="700" on="1"/>
        <pt x="900" y="700" on="1"/>
        <pt x="900" y="600" on="1"/>
        <pt x="1000" y="600" on="1"/>
        <pt x="1000" y="500" on="1"/>
        <pt x="1100" y="500" on="1"/>
        <pt x="1100" y="300" on="1"/>
        <pt x="1000" y="300" on="1"/>
        <pt x="1000" y="400" on="1"/>
        <pt x="900" y="400" on="1"/>
        <pt x="900" y="500" on="1"/>
        <pt x="800" y="500" on="1"/>
        <pt x="800" y="600" on="1"/>
        <pt x="700" y="600" on="1"/>
      </contour>
    </TTGlyph>
    <TTGlyph name="guillemotright" xMin="100" yMin="300" xMax="1100" yMax="1200">
      <contour>
        <pt x="1000" y="600" on="1"/>
        <pt x="900" y="600" on="1"/>
        <pt x="900" y="500" on="1"/>
        <pt x="800" y="500" on="1"/>
        <pt x="800" y="400" on="1"/>
        <pt x="700" y="400" on="1"/>
        <pt x="700" y="300" on="1"/>
        <pt x="600" y="300" on="1"/>
        <pt x="600" y="500" on="1"/>
        <pt x="700" y="500" on="1"/>
        <pt x="700" y="600" on="1"/>
        <pt x="800" y="600" on="1"/>
        <pt x="800" y="700" on="1"/>
        <pt x="900" y="700" on="1"/>
        <pt x="900" y="800" on="1"/>
        <pt x="800" y="800" on="1"/>
        <pt x="800" y="900" on="1"/>
        <pt x="700" y="900" on="1"/>
        <pt x="700" y="1000" on="1"/>
        <pt x="600" y="1000" on="1"/>
        <pt x="600" y="1200" on="1"/>
        <pt x="700" y="1200" on="1"/>
        <pt x="700" y="1100" on="1"/>
        <pt x="800" y="1100" on="1"/>
        <pt x="800" y="1000" on="1"/>
        <pt x="900" y="1000" on="1"/>
        <pt x="900" y="900" on="1"/>
        <pt x="1000" y="900" on="1"/>
        <pt x="1000" y="800" on="1"/>
        <pt x="1100" y="800" on="1"/>
        <pt x="1100" y="700" on="1"/>
        <pt x="1000" y="700" on="1"/>
      </contour>
      <contour>
        <pt x="500" y="600" on="1"/>
        <pt x="400" y="600" on="1"/>
        <pt x="400" y="500" on="1"/>
        <pt x="300" y="500" on="1"/>
        <pt x="300" y="400" on="1"/>
        <pt x="200" y="400" on="1"/>
        <pt x="200" y="300" on="1"/>
        <pt x="100" y="300" on="1"/>
        <pt x="100" y="500" on="1"/>
        <pt x="200" y="500" on="1"/>
        <pt x="200" y="600" on="1"/>
        <pt x="300" y="600" on="1"/>
        <pt x="300" y="700" on="1"/>
        <pt x="400" y="700" on="1"/>
        <pt x="400" y="800" on="1"/>
        <pt x="300" y="800" on="1"/>
        <pt x="300" y="900" on="1"/>
        <pt x="200" y="900" on="1"/>
        <pt x="200" y="1000" on="1"/>
        <pt x="100" y="1000" on="1"/>
        <pt x="100" y="1200" on="1"/>
        <pt x="200" y="1200" on="1"/>
        <pt x="200" y="1100" on="1"/>
        <pt x="300" y="1100" on="1"/>
        <pt x="300" y="1000" on="1"/>
        <pt x="400" y="1000" on="1"/>
        <pt x="400" y="900" on="1"/>
        <pt x="500" y="900" on="1"/>
        <pt x="500" y="800" on="1"/>
        <pt x="600" y="800" on="1"/>
        <pt x="600" y="700" on="1"/>
        <pt x="500" y="700" on="1"/>
      </contour>
    </TTGlyph>
    <TTGlyph name="guilsinglleft" xMin="200" yMin="100" xMax="700" yMax="1000">
      <contour>
        <pt x="300" y="500" on="1"/>
        <pt x="200" y="500" on="1"/>
        <pt x="200" y="600" on="1"/>
        <pt x="300" y="600" on="1"/>
        <pt x="300" y="700" on="1"/>
        <pt x="400" y="700" on="1"/>
        <pt x="400" y="800" on="1"/>
        <pt x="500" y="800" on="1"/>
        <pt x="500" y="900" on="1"/>
        <pt x="600" y="900" on="1"/>
        <pt x="600" y="1000" on="1"/>
        <pt x="700" y="1000" on="1"/>
        <pt x="700" y="800" on="1"/>
        <pt x="600" y="800" on="1"/>
        <pt x="600" y="700" on="1"/>
        <pt x="500" y="700" on="1"/>
        <pt x="500" y="600" on="1"/>
        <pt x="400" y="600" on="1"/>
        <pt x="400" y="500" on="1"/>
        <pt x="500" y="500" on="1"/>
        <pt x="500" y="400" on="1"/>
        <pt x="600" y="400" on="1"/>
        <pt x="600" y="300" on="1"/>
        <pt x="700" y="300" on="1"/>
        <pt x="700" y="100" on="1"/>
        <pt x="600" y="100" on="1"/>
        <pt x="600" y="200" on="1"/>
        <pt x="500" y="200" on="1"/>
        <pt x="500" y="300" on="1"/>
        <pt x="400" y="300" on="1"/>
        <pt x="400" y="400" on="1"/>
        <pt x="300" y="400" on="1"/>
      </contour>
    </TTGlyph>
    <TTGlyph name="guilsinglright" xMin="300" yMin="100" xMax="800" yMax="1000">
      <contour>
        <pt x="700" y="400" on="1"/>
        <pt x="600" y="400" on="1"/>
        <pt x="600" y="300" on="1"/>
        <pt x="500" y="300" on="1"/>
        <pt x="500" y="200" on="1"/>
        <pt x="400" y="200" on="1"/>
        <pt x="400" y="100" on="1"/>
        <pt x="300" y="100" on="1"/>
        <pt x="300" y="300" on="1"/>
        <pt x="400" y="300" on="1"/>
        <pt x="400" y="400" on="1"/>
        <pt x="500" y="400" on="1"/>
        <pt x="500" y="500" on="1"/>
        <pt x="600" y="500" on="1"/>
        <pt x="600" y="600" on="1"/>
        <pt x="500" y="600" on="1"/>
        <pt x="500" y="700" on="1"/>
        <pt x="400" y="700" on="1"/>
        <pt x="400" y="800" on="1"/>
        <pt x="300" y="800" on="1"/>
        <pt x="300" y="1000" on="1"/>
        <pt x="400" y="1000" on="1"/>
        <pt x="400" y="900" on="1"/>
        <pt x="500" y="900" on="1"/>
        <pt x="500" y="800" on="1"/>
        <pt x="600" y="800" on="1"/>
        <pt x="600" y="700" on="1"/>
        <pt x="700" y="700" on="1"/>
        <pt x="700" y="600" on="1"/>
        <pt x="800" y="600" on="1"/>
        <pt x="800" y="500" on="1"/>
        <pt x="700" y="500" on="1"/>
      </contour>
    </TTGlyph>
    <TTGlyph name="h" xMin="100" yMin="100" xMax="1100" yMax="1500">
      <contour>
        <pt x="300" y="700" on="1"/>
        <pt x="300" y="100" on="1"/>
        <pt x="100" y="100" on="1"/>
        <pt x="100" y="1500" on="1"/>
        <pt x="300" y="1500" on="1"/>
        <pt x="300" y="1000" on="1"/>
        <pt x="400" y="1000" on="1"/>
        <pt x="400" y="1100" on="1"/>
        <pt x="500" y="1100" on="1"/>
        <pt x="500" y="1200" on="1"/>
        <pt x="800" y="1200" on="1"/>
        <pt x="800" y="1100" on="1"/>
        <pt x="900" y="1100" on="1"/>
        <pt x="900" y="1000" on="1"/>
        <pt x="1000" y="1000" on="1"/>
        <pt x="1000" y="900" on="1"/>
        <pt x="1100" y="900" on="1"/>
        <pt x="1100" y="100" on="1"/>
        <pt x="900" y="100" on="1"/>
        <pt x="900" y="800" on="1"/>
        <pt x="800" y="800" on="1"/>
        <pt x="800" y="900" on="1"/>
        <pt x="700" y="900" on="1"/>
        <pt x="700" y="1000" on="1"/>
        <pt x="600" y="1000" on="1"/>
        <pt x="600" y="900" on="1"/>
        <pt x="500" y="900" on="1"/>
        <pt x="500" y="800" on="1"/>
        <pt x="400" y="800" on="1"/>
        <pt x="400" y="700" on="1"/>
      </contour>
    </TTGlyph>
    <TTGlyph name="hyphen" xMin="200" yMin="700" xMax="1000" yMax="900">
      <contour>
        <pt x="1000" y="900" on="1"/>
        <pt x="1000" y="700" on="1"/>
        <pt x="200" y="700" on="1"/>
        <pt x="200" y="900" on="1"/>
      </contour>
    </TTGlyph>
    <TTGlyph name="i" xMin="300" yMin="100" xMax="900" yMax="1400">
      <contour>
        <pt x="700" y="1400" on="1"/>
        <pt x="700" y="1200" on="1"/>
        <pt x="500" y="1200" on="1"/>
        <pt x="500" y="1400" on="1"/>
      </contour>
      <contour>
        <pt x="800" y="300" on="1"/>
        <pt x="900" y="300" on="1"/>
        <pt x="900" y="100" on="1"/>
        <pt x="700" y="100" on="1"/>
        <pt x="700" y="200" on="1"/>
        <pt x="600" y="200" on="1"/>
        <pt x="600" y="300" on="1"/>
        <pt x="500" y="300" on="1"/>
        <pt x="500" y="800" on="1"/>
        <pt x="300" y="800" on="1"/>
        <pt x="300" y="1000" on="1"/>
        <pt x="700" y="1000" on="1"/>
        <pt x="700" y="400" on="1"/>
        <pt x="800" y="400" on="1"/>
      </contour>
    </TTGlyph>
    <TTGlyph name="iacute" xMin="300" yMin="100" xMax="900" yMax="1500">
      <contour>
        <pt x="800" y="300" on="1"/>
        <pt x="900" y="300" on="1"/>
        <pt x="900" y="100" on="1"/>
        <pt x="700" y="100" on="1"/>
        <pt x="700" y="200" on="1"/>
        <pt x="600" y="200" on="1"/>
        <pt x="600" y="300" on="1"/>
        <pt x="500" y="300" on="1"/>
        <pt x="500" y="800" on="1"/>
        <pt x="300" y="800" on="1"/>
        <pt x="300" y="1000" on="1"/>
        <pt x="700" y="1000" on="1"/>
        <pt x="700" y="400" on="1"/>
        <pt x="800" y="400" on="1"/>
      </contour>
      <contour>
        <pt x="800" y="300" on="1"/>
        <pt x="900" y="300" on="1"/>
        <pt x="900" y="100" on="1"/>
        <pt x="700" y="100" on="1"/>
        <pt x="700" y="200" on="1"/>
        <pt x="600" y="200" on="1"/>
        <pt x="600" y="300" on="1"/>
        <pt x="500" y="300" on="1"/>
        <pt x="500" y="800" on="1"/>
        <pt x="300" y="800" on="1"/>
        <pt x="300" y="1000" on="1"/>
        <pt x="700" y="1000" on="1"/>
        <pt x="700" y="400" on="1"/>
        <pt x="800" y="400" on="1"/>
      </contour>
      <contour>
        <pt x="900" y="1500" on="1"/>
        <pt x="900" y="1400" on="1"/>
        <pt x="800" y="1400" on="1"/>
        <pt x="800" y="1300" on="1"/>
        <pt x="600" y="1300" on="1"/>
        <pt x="600" y="1200" on="1"/>
        <pt x="400" y="1200" on="1"/>
        <pt x="400" y="1300" on="1"/>
        <pt x="500" y="1300" on="1"/>
        <pt x="500" y="1400" on="1"/>
        <pt x="600" y="1400" on="1"/>
        <pt x="600" y="1500" on="1"/>
      </contour>
    </TTGlyph>
    <TTGlyph name="icircumflex" xMin="200" yMin="100" xMax="900" yMax="1500">
      <contour>
        <pt x="800" y="300" on="1"/>
        <pt x="900" y="300" on="1"/>
        <pt x="900" y="100" on="1"/>
        <pt x="700" y="100" on="1"/>
        <pt x="700" y="200" on="1"/>
        <pt x="600" y="200" on="1"/>
        <pt x="600" y="300" on="1"/>
        <pt x="500" y="300" on="1"/>
        <pt x="500" y="800" on="1"/>
        <pt x="300" y="800" on="1"/>
        <pt x="300" y="1000" on="1"/>
        <pt x="700" y="1000" on="1"/>
        <pt x="700" y="400" on="1"/>
        <pt x="800" y="400" on="1"/>
      </contour>
      <contour>
        <pt x="800" y="300" on="1"/>
        <pt x="900" y="300" on="1"/>
        <pt x="900" y="100" on="1"/>
        <pt x="700" y="100" on="1"/>
        <pt x="700" y="200" on="1"/>
        <pt x="600" y="200" on="1"/>
        <pt x="600" y="300" on="1"/>
        <pt x="500" y="300" on="1"/>
        <pt x="500" y="800" on="1"/>
        <pt x="300" y="800" on="1"/>
        <pt x="300" y="1000" on="1"/>
        <pt x="700" y="1000" on="1"/>
        <pt x="700" y="400" on="1"/>
        <pt x="800" y="400" on="1"/>
      </contour>
      <contour>
        <pt x="600" y="1500" on="1"/>
        <pt x="600" y="1400" on="1"/>
        <pt x="700" y="1400" on="1"/>
        <pt x="700" y="1300" on="1"/>
        <pt x="800" y="1300" on="1"/>
        <pt x="800" y="1200" on="1"/>
        <pt x="600" y="1200" on="1"/>
        <pt x="600" y="1300" on="1"/>
        <pt x="400" y="1300" on="1"/>
        <pt x="400" y="1200" on="1"/>
        <pt x="200" y="1200" on="1"/>
        <pt x="200" y="1300" on="1"/>
        <pt x="300" y="1300" on="1"/>
        <pt x="300" y="1400" on="1"/>
        <pt x="400" y="1400" on="1"/>
        <pt x="400" y="1500" on="1"/>
      </contour>
    </TTGlyph>
    <TTGlyph name="idieresis" xMin="200" yMin="100" xMax="900" yMax="1500">
      <contour>
        <pt x="800" y="300" on="1"/>
        <pt x="900" y="300" on="1"/>
        <pt x="900" y="100" on="1"/>
        <pt x="700" y="100" on="1"/>
        <pt x="700" y="200" on="1"/>
        <pt x="600" y="200" on="1"/>
        <pt x="600" y="300" on="1"/>
        <pt x="500" y="300" on="1"/>
        <pt x="500" y="800" on="1"/>
        <pt x="300" y="800" on="1"/>
        <pt x="300" y="1000" on="1"/>
        <pt x="700" y="1000" on="1"/>
        <pt x="700" y="400" on="1"/>
        <pt x="800" y="400" on="1"/>
      </contour>
      <contour>
        <pt x="800" y="300" on="1"/>
        <pt x="900" y="300" on="1"/>
        <pt x="900" y="100" on="1"/>
        <pt x="700" y="100" on="1"/>
        <pt x="700" y="200" on="1"/>
        <pt x="600" y="200" on="1"/>
        <pt x="600" y="300" on="1"/>
        <pt x="500" y="300" on="1"/>
        <pt x="500" y="800" on="1"/>
        <pt x="300" y="800" on="1"/>
        <pt x="300" y="1000" on="1"/>
        <pt x="700" y="1000" on="1"/>
        <pt x="700" y="400" on="1"/>
        <pt x="800" y="400" on="1"/>
      </contour>
      <contour>
        <pt x="200" y="1300" on="1"/>
        <pt x="200" y="1500" on="1"/>
        <pt x="400" y="1500" on="1"/>
        <pt x="400" y="1300" on="1"/>
      </contour>
      <contour>
        <pt x="600" y="1500" on="1"/>
        <pt x="800" y="1500" on="1"/>
        <pt x="800" y="1300" on="1"/>
        <pt x="600" y="1300" on="1"/>
      </contour>
    </TTGlyph>
    <TTGlyph name="igrave" xMin="200" yMin="100" xMax="900" yMax="1500">
      <contour>
        <pt x="800" y="300" on="1"/>
        <pt x="900" y="300" on="1"/>
        <pt x="900" y="100" on="1"/>
        <pt x="700" y="100" on="1"/>
        <pt x="700" y="200" on="1"/>
        <pt x="600" y="200" on="1"/>
        <pt x="600" y="300" on="1"/>
        <pt x="500" y="300" on="1"/>
        <pt x="500" y="800" on="1"/>
        <pt x="300" y="800" on="1"/>
        <pt x="300" y="1000" on="1"/>
        <pt x="700" y="1000" on="1"/>
        <pt x="700" y="400" on="1"/>
        <pt x="800" y="400" on="1"/>
      </contour>
      <contour>
        <pt x="800" y="300" on="1"/>
        <pt x="900" y="300" on="1"/>
        <pt x="900" y="100" on="1"/>
        <pt x="700" y="100" on="1"/>
        <pt x="700" y="200" on="1"/>
        <pt x="600" y="200" on="1"/>
        <pt x="600" y="300" on="1"/>
        <pt x="500" y="300" on="1"/>
        <pt x="500" y="800" on="1"/>
        <pt x="300" y="800" on="1"/>
        <pt x="300" y="1000" on="1"/>
        <pt x="700" y="1000" on="1"/>
        <pt x="700" y="400" on="1"/>
        <pt x="800" y="400" on="1"/>
      </contour>
      <contour>
        <pt x="500" y="1500" on="1"/>
        <pt x="500" y="1400" on="1"/>
        <pt x="600" y="1400" on="1"/>
        <pt x="600" y="1300" on="1"/>
        <pt x="700" y="1300" on="1"/>
        <pt x="700" y="1200" on="1"/>
        <pt x="500" y="1200" on="1"/>
        <pt x="500" y="1300" on="1"/>
        <pt x="300" y="1300" on="1"/>
        <pt x="300" y="1400" on="1"/>
        <pt x="200" y="1400" on="1"/>
        <pt x="200" y="1500" on="1"/>
      </contour>
    </TTGlyph>
    <TTGlyph name="j" xMin="300" yMin="100" xMax="900" yMax="1600">
      <contour>
        <pt x="900" y="1600" on="1"/>
        <pt x="900" y="1400" on="1"/>
        <pt x="700" y="1400" on="1"/>
        <pt x="700" y="1600" on="1"/>
      </contour>
      <contour>
        <pt x="900" y="300" on="1"/>
        <pt x="800" y="300" on="1"/>
        <pt x="800" y="200" on="1"/>
        <pt x="700" y="200" on="1"/>
        <pt x="700" y="100" on="1"/>
        <pt x="300" y="100" on="1"/>
        <pt x="300" y="300" on="1"/>
        <pt x="600" y="300" on="1"/>
        <pt x="600" y="400" on="1"/>
        <pt x="700" y="400" on="1"/>
        <pt x="700" y="1000" on="1"/>
        <pt x="500" y="1000" on="1"/>
        <pt x="500" y="1200" on="1"/>
        <pt x="900" y="1200" on="1"/>
      </contour>
    </TTGlyph>
    <TTGlyph name="k" xMin="100" yMin="100" xMax="1100" yMax="1500">
      <contour>
        <pt x="300" y="300" on="1"/>
        <pt x="300" y="100" on="1"/>
        <pt x="100" y="100" on="1"/>
        <pt x="100" y="1500" on="1"/>
        <pt x="300" y="1500" on="1"/>
        <pt x="300" y="600" on="1"/>
        <pt x="400" y="600" on="1"/>
        <pt x="400" y="700" on="1"/>
        <pt x="500" y="700" on="1"/>
        <pt x="500" y="800" on="1"/>
        <pt x="600" y="800" on="1"/>
        <pt x="600" y="900" on="1"/>
        <pt x="700" y="900" on="1"/>
        <pt x="700" y="1000" on="1"/>
        <pt x="800" y="1000" on="1"/>
        <pt x="800" y="1100" on="1"/>
        <pt x="900" y="1100" on="1"/>
        <pt x="900" y="1200" on="1"/>
        <pt x="1100" y="1200" on="1"/>
        <pt x="1100" y="1000" on="1"/>
        <pt x="1000" y="1000" on="1"/>
        <pt x="1000" y="900" on="1"/>
        <pt x="900" y="900" on="1"/>
        <pt x="900" y="800" on="1"/>
        <pt x="800" y="800" on="1"/>
        <pt x="800" y="700" on="1"/>
        <pt x="700" y="700" on="1"/>
        <pt x="700" y="600" on="1"/>
        <pt x="800" y="600" on="1"/>
        <pt x="800" y="500" on="1"/>
        <pt x="900" y="500" on="1"/>
        <pt x="900" y="400" on="1"/>
        <pt x="1000" y="400" on="1"/>
        <pt x="1000" y="300" on="1"/>
        <pt x="1100" y="300" on="1"/>
        <pt x="1100" y="100" on="1"/>
        <pt x="900" y="100" on="1"/>
        <pt x="900" y="200" on="1"/>
        <pt x="800" y="200" on="1"/>
        <pt x="800" y="300" on="1"/>
        <pt x="700" y="300" on="1"/>
        <pt x="700" y="400" on="1"/>
        <pt x="600" y="400" on="1"/>
        <pt x="600" y="500" on="1"/>
        <pt x="500" y="500" on="1"/>
        <pt x="500" y="400" on="1"/>
        <pt x="400" y="400" on="1"/>
        <pt x="400" y="300" on="1"/>
      </contour>
    </TTGlyph>
    <TTGlyph name="l" xMin="500" yMin="100" xMax="700" yMax="1500">
      <contour>
        <pt x="700" y="1500" on="1"/>
        <pt x="700" y="100" on="1"/>
        <pt x="500" y="100" on="1"/>
        <pt x="500" y="1500" on="1"/>
      </contour>
    </TTGlyph>
    <TTGlyph name="less" xMin="200" yMin="100" xMax="1000" yMax="1600">
      <contour>
        <pt x="700" y="200" on="1"/>
        <pt x="700" y="300" on="1"/>
        <pt x="600" y="300" on="1"/>
        <pt x="600" y="400" on="1"/>
        <pt x="500" y="400" on="1"/>
        <pt x="500" y="500" on="1"/>
        <pt x="400" y="500" on="1"/>
        <pt x="400" y="600" on="1"/>
        <pt x="300" y="600" on="1"/>
        <pt x="300" y="700" on="1"/>
        <pt x="200" y="700" on="1"/>
        <pt x="200" y="1000" on="1"/>
        <pt x="300" y="1000" on="1"/>
        <pt x="300" y="1100" on="1"/>
        <pt x="400" y="1100" on="1"/>
        <pt x="400" y="1200" on="1"/>
        <pt x="500" y="1200" on="1"/>
        <pt x="500" y="1300" on="1"/>
        <pt x="600" y="1300" on="1"/>
        <pt x="600" y="1400" on="1"/>
        <pt x="700" y="1400" on="1"/>
        <pt x="700" y="1500" on="1"/>
        <pt x="800" y="1500" on="1"/>
        <pt x="800" y="1600" on="1"/>
        <pt x="1000" y="1600" on="1"/>
        <pt x="1000" y="1400" on="1"/>
        <pt x="900" y="1400" on="1"/>
        <pt x="900" y="1300" on="1"/>
        <pt x="800" y="1300" on="1"/>
        <pt x="800" y="1200" on="1"/>
        <pt x="700" y="1200" on="1"/>
        <pt x="700" y="1100" on="1"/>
        <pt x="600" y="1100" on="1"/>
        <pt x="600" y="1000" on="1"/>
        <pt x="500" y="1000" on="1"/>
        <pt x="500" y="900" on="1"/>
        <pt x="400" y="900" on="1"/>
        <pt x="400" y="800" on="1"/>
        <pt x="500" y="800" on="1"/>
        <pt x="500" y="700" on="1"/>
        <pt x="600" y="700" on="1"/>
        <pt x="600" y="600" on="1"/>
        <pt x="700" y="600" on="1"/>
        <pt x="700" y="500" on="1"/>
        <pt x="800" y="500" on="1"/>
        <pt x="800" y="400" on="1"/>
        <pt x="900" y="400" on="1"/>
        <pt x="900" y="300" on="1"/>
        <pt x="1000" y="300" on="1"/>
        <pt x="1000" y="100" on="1"/>
        <pt x="800" y="100" on="1"/>
        <pt x="800" y="200" on="1"/>
      </contour>
    </TTGlyph>
    <TTGlyph name="lira" xMin="100" yMin="100" xMax="1100" yMax="1700">
      <contour>
        <pt x="400" y="300" on="1"/>
        <pt x="1100" y="300" on="1"/>
        <pt x="1100" y="100" on="1"/>
        <pt x="100" y="100" on="1"/>
        <pt x="100" y="300" on="1"/>
        <pt x="200" y="300" on="1"/>
        <pt x="200" y="400" on="1"/>
        <pt x="300" y="400" on="1"/>
        <pt x="300" y="600" on="1"/>
        <pt x="100" y="600" on="1"/>
        <pt x="100" y="800" on="1"/>
        <pt x="300" y="800" on="1"/>
        <pt x="300" y="900" on="1"/>
        <pt x="100" y="900" on="1"/>
        <pt x="100" y="1100" on="1"/>
        <pt x="300" y="1100" on="1"/>
        <pt x="300" y="1500" on="1"/>
        <pt x="400" y="1500" on="1"/>
        <pt x="400" y="1600" on="1"/>
        <pt x="500" y="1600" on="1"/>
        <pt x="500" y="1700" on="1"/>
        <pt x="900" y="1700" on="1"/>
        <pt x="900" y="1600" on="1"/>
        <pt x="1000" y="1600" on="1"/>
        <pt x="1000" y="1500" on="1"/>
        <pt x="1100" y="1500" on="1"/>
        <pt x="1100" y="1300" on="1"/>
        <pt x="900" y="1300" on="1"/>
        <pt x="900" y="1400" on="1"/>
        <pt x="800" y="1400" on="1"/>
        <pt x="800" y="1500" on="1"/>
        <pt x="600" y="1500" on="1"/>
        <pt x="600" y="1400" on="1"/>
        <pt x="500" y="1400" on="1"/>
        <pt x="500" y="1100" on="1"/>
        <pt x="900" y="1100" on="1"/>
        <pt x="900" y="900" on="1"/>
        <pt x="500" y="900" on="1"/>
        <pt x="500" y="800" on="1"/>
        <pt x="900" y="800" on="1"/>
        <pt x="900" y="600" on="1"/>
        <pt x="500" y="600" on="1"/>
        <pt x="500" y="400" on="1"/>
        <pt x="400" y="400" on="1"/>
      </contour>
    </TTGlyph>
    <TTGlyph name="m" xMin="100" yMin="100" xMax="1100" yMax="1200">
      <contour>
        <pt x="300" y="900" on="1"/>
        <pt x="300" y="100" on="1"/>
        <pt x="100" y="100" on="1"/>
        <pt x="100" y="1200" on="1"/>
        <pt x="300" y="1200" on="1"/>
        <pt x="300" y="1100" on="1"/>
        <pt x="400" y="1100" on="1"/>
        <pt x="400" y="1200" on="1"/>
        <pt x="900" y="1200" on="1"/>
        <pt x="900" y="1100" on="1"/>
        <pt x="1000" y="1100" on="1"/>
        <pt x="1000" y="1000" on="1"/>
        <pt x="1100" y="1000" on="1"/>
        <pt x="1100" y="100" on="1"/>
        <pt x="900" y="100" on="1"/>
        <pt x="900" y="900" on="1"/>
        <pt x="800" y="900" on="1"/>
        <pt x="800" y="1000" on="1"/>
        <pt x="700" y="1000" on="1"/>
        <pt x="700" y="100" on="1"/>
        <pt x="500" y="100" on="1"/>
        <pt x="500" y="1000" on="1"/>
        <pt x="400" y="1000" on="1"/>
        <pt x="400" y="900" on="1"/>
      </contour>
    </TTGlyph>
    <TTGlyph name="n" xMin="100" yMin="100" xMax="1100" yMax="1200">
      <contour>
        <pt x="300" y="900" on="1"/>
        <pt x="300" y="100" on="1"/>
        <pt x="100" y="100" on="1"/>
        <pt x="100" y="1200" on="1"/>
        <pt x="300" y="1200" on="1"/>
        <pt x="300" y="1100" on="1"/>
        <pt x="400" y="1100" on="1"/>
        <pt x="400" y="1200" on="1"/>
        <pt x="900" y="1200" on="1"/>
        <pt x="900" y="1100" on="1"/>
        <pt x="1000" y="1100" on="1"/>
        <pt x="1000" y="1000" on="1"/>
        <pt x="1100" y="1000" on="1"/>
        <pt x="1100" y="100" on="1"/>
        <pt x="900" y="100" on="1"/>
        <pt x="900" y="900" on="1"/>
        <pt x="800" y="900" on="1"/>
        <pt x="800" y="1000" on="1"/>
        <pt x="400" y="1000" on="1"/>
        <pt x="400" y="900" on="1"/>
      </contour>
    </TTGlyph>
    <TTGlyph name="nine" xMin="100" yMin="100" xMax="1100" yMax="1500">
      <contour>
        <pt x="200" y="300" on="1"/>
        <pt x="100" y="300" on="1"/>
        <pt x="100" y="500" on="1"/>
        <pt x="300" y="500" on="1"/>
        <pt x="300" y="400" on="1"/>
        <pt x="400" y="400" on="1"/>
        <pt x="400" y="300" on="1"/>
        <pt x="800" y="300" on="1"/>
        <pt x="800" y="400" on="1"/>
        <pt x="900" y="400" on="1"/>
        <pt x="900" y="700" on="1"/>
        <pt x="300" y="700" on="1"/>
        <pt x="300" y="800" on="1"/>
        <pt x="200" y="800" on="1"/>
        <pt x="200" y="900" on="1"/>
        <pt x="100" y="900" on="1"/>
        <pt x="100" y="1300" on="1"/>
        <pt x="200" y="1300" on="1"/>
        <pt x="200" y="1400" on="1"/>
        <pt x="300" y="1400" on="1"/>
        <pt x="300" y="1500" on="1"/>
        <pt x="900" y="1500" on="1"/>
        <pt x="900" y="1400" on="1"/>
        <pt x="1000" y="1400" on="1"/>
        <pt x="1000" y="1300" on="1"/>
        <pt x="1100" y="1300" on="1"/>
        <pt x="1100" y="300" on="1"/>
        <pt x="1000" y="300" on="1"/>
        <pt x="1000" y="200" on="1"/>
        <pt x="900" y="200" on="1"/>
        <pt x="900" y="100" on="1"/>
        <pt x="300" y="100" on="1"/>
        <pt x="300" y="200" on="1"/>
        <pt x="200" y="200" on="1"/>
      </contour>
      <contour>
        <pt x="900" y="900" on="1"/>
        <pt x="900" y="1200" on="1"/>
        <pt x="800" y="1200" on="1"/>
        <pt x="800" y="1300" on="1"/>
        <pt x="400" y="1300" on="1"/>
        <pt x="400" y="1200" on="1"/>
        <pt x="300" y="1200" on="1"/>
        <pt x="300" y="999" on="1"/>
        <pt x="400" y="999" on="1"/>
        <pt x="400" y="900" on="1"/>
      </contour>
    </TTGlyph>
    <TTGlyph name="ntilde" xMin="100" yMin="100" xMax="1100" yMax="1500">
      <contour>
        <pt x="300" y="800" on="1"/>
        <pt x="300" y="100" on="1"/>
        <pt x="100" y="100" on="1"/>
        <pt x="100" y="1100" on="1"/>
        <pt x="300" y="1100" on="1"/>
        <pt x="300" y="1000" on="1"/>
        <pt x="400" y="1000" on="1"/>
        <pt x="400" y="1100" on="1"/>
        <pt x="900" y="1100" on="1"/>
        <pt x="900" y="1000" on="1"/>
        <pt x="1000" y="1000" on="1"/>
        <pt x="1000" y="900" on="1"/>
        <pt x="1100" y="900" on="1"/>
        <pt x="1100" y="100" on="1"/>
        <pt x="900" y="100" on="1"/>
        <pt x="900" y="800" on="1"/>
        <pt x="800" y="800" on="1"/>
        <pt x="800" y="900" on="1"/>
        <pt x="400" y="900" on="1"/>
        <pt x="400" y="800" on="1"/>
      </contour>
      <contour>
        <pt x="800" y="1300" on="1"/>
        <pt x="800" y="1200" on="1"/>
        <pt x="600" y="1200" on="1"/>
        <pt x="600" y="1300" on="1"/>
        <pt x="400" y="1300" on="1"/>
        <pt x="400" y="1200" on="1"/>
        <pt x="300" y="1200" on="1"/>
        <pt x="300" y="1400" on="1"/>
        <pt x="400" y="1400" on="1"/>
        <pt x="400" y="1500" on="1"/>
        <pt x="600" y="1500" on="1"/>
        <pt x="600" y="1400" on="1"/>
        <pt x="800" y="1400" on="1"/>
        <pt x="800" y="1500" on="1"/>
        <pt x="900" y="1500" on="1"/>
        <pt x="900" y="1300" on="1"/>
      </contour>
    </TTGlyph>
    <TTGlyph name="numbersign" xMin="100" yMin="200" xMax="1100" yMax="1500">
      <contour>
        <pt x="300" y="900" on="1"/>
        <pt x="100" y="900" on="1"/>
        <pt x="100" y="1100" on="1"/>
        <pt x="300" y="1100" on="1"/>
        <pt x="300" y="1400" on="1"/>
        <pt x="500" y="1400" on="1"/>
        <pt x="500" y="1200" on="1"/>
        <pt x="700" y="1200" on="1"/>
        <pt x="700" y="1500" on="1"/>
        <pt x="900" y="1500" on="1"/>
        <pt x="900" y="1300" on="1"/>
        <pt x="1100" y="1300" on="1"/>
        <pt x="1100" y="1100" on="1"/>
        <pt x="900" y="1100" on="1"/>
        <pt x="900" y="800" on="1"/>
        <pt x="1100" y="800" on="1"/>
        <pt x="1100" y="600" on="1"/>
        <pt x="900" y="600" on="1"/>
        <pt x="900" y="300" on="1"/>
        <pt x="700" y="300" on="1"/>
        <pt x="700" y="500" on="1"/>
        <pt x="500" y="500" on="1"/>
        <pt x="500" y="200" on="1"/>
        <pt x="300" y="200" on="1"/>
        <pt x="300" y="400" on="1"/>
        <pt x="100" y="400" on="1"/>
        <pt x="100" y="600" on="1"/>
        <pt x="300" y="600" on="1"/>
      </contour>
      <contour>
        <pt x="500" y="1000" on="1"/>
        <pt x="500" y="700" on="1"/>
        <pt x="700" y="700" on="1"/>
        <pt x="700" y="1000" on="1"/>
      </contour>
    </TTGlyph>
    <TTGlyph name="o" xMin="100" yMin="100" xMax="1100" yMax="1200">
      <contour>
        <pt x="400" y="300" on="1"/>
        <pt x="800" y="300" on="1"/>
        <pt x="800" y="400" on="1"/>
        <pt x="900" y="400" on="1"/>
        <pt x="900" y="900" on="1"/>
        <pt x="800" y="900" on="1"/>
        <pt x="800" y="1000" on="1"/>
        <pt x="400" y="1000" on="1"/>
        <pt x="400" y="900" on="1"/>
        <pt x="300" y="900" on="1"/>
        <pt x="300" y="400" on="1"/>
        <pt x="400" y="400" on="1"/>
      </contour>
      <contour>
        <pt x="300" y="100" on="1"/>
        <pt x="300" y="200" on="1"/>
        <pt x="200" y="200" on="1"/>
        <pt x="200" y="300" on="1"/>
        <pt x="100" y="300" on="1"/>
        <pt x="100" y="1000" on="1"/>
        <pt x="200" y="1000" on="1"/>
        <pt x="200" y="1100" on="1"/>
        <pt x="300" y="1100" on="1"/>
        <pt x="300" y="1200" on="1"/>
        <pt x="900" y="1200" on="1"/>
        <pt x="900" y="1100" on="1"/>
        <pt x="1000" y="1100" on="1"/>
        <pt x="1000" y="1000" on="1"/>
        <pt x="1100" y="1000" on="1"/>
        <pt x="1100" y="300" on="1"/>
        <pt x="1000" y="300" on="1"/>
        <pt x="1000" y="200" on="1"/>
        <pt x="900" y="200" on="1"/>
        <pt x="900" y="100" on="1"/>
      </contour>
    </TTGlyph>
    <TTGlyph name="oacute" xMin="100" yMin="100" xMax="1100" yMax="1500">
      <contour>
        <pt x="900" y="1500" on="1"/>
        <pt x="900" y="1400" on="1"/>
        <pt x="800" y="1400" on="1"/>
        <pt x="800" y="1300" on="1"/>
        <pt x="600" y="1300" on="1"/>
        <pt x="600" y="1200" on="1"/>
        <pt x="400" y="1200" on="1"/>
        <pt x="400" y="1300" on="1"/>
        <pt x="500" y="1300" on="1"/>
        <pt x="500" y="1400" on="1"/>
        <pt x="600" y="1400" on="1"/>
        <pt x="600" y="1500" on="1"/>
      </contour>
      <contour>
        <pt x="400" y="300" on="1"/>
        <pt x="800" y="300" on="1"/>
        <pt x="800" y="400" on="1"/>
        <pt x="900" y="400" on="1"/>
        <pt x="900" y="800" on="1"/>
        <pt x="800" y="800" on="1"/>
        <pt x="800" y="900" on="1"/>
        <pt x="400" y="900" on="1"/>
        <pt x="400" y="800" on="1"/>
        <pt x="300" y="800" on="1"/>
        <pt x="300" y="400" on="1"/>
        <pt x="400" y="400" on="1"/>
      </contour>
      <contour>
        <pt x="300" y="100" on="1"/>
        <pt x="300" y="200" on="1"/>
        <pt x="200" y="200" on="1"/>
        <pt x="200" y="300" on="1"/>
        <pt x="100" y="300" on="1"/>
        <pt x="100" y="900" on="1"/>
        <pt x="200" y="900" on="1"/>
        <pt x="200" y="1000" on="1"/>
        <pt x="300" y="1000" on="1"/>
        <pt x="300" y="1100" on="1"/>
        <pt x="900" y="1100" on="1"/>
        <pt x="900" y="1000" on="1"/>
        <pt x="1000" y="1000" on="1"/>
        <pt x="1000" y="900" on="1"/>
        <pt x="1100" y="900" on="1"/>
        <pt x="1100" y="300" on="1"/>
        <pt x="1000" y="300" on="1"/>
        <pt x="1000" y="200" on="1"/>
        <pt x="900" y="200" on="1"/>
        <pt x="900" y="100" on="1"/>
      </contour>
    </TTGlyph>
</ttFont>
